g _furni_drop_box_01
v -171.1769 0.8149236 -86.58807
v -117.6976 0.8149236 -86.58807
v -113.4768 5.969079 -86.58807
v -171.1769 18.05826 -86.58807
v -56.66869 5.969079 -86.58807
v 1.031372 18.05826 -86.58807
v 1.031372 0.8149236 -86.58807
v -52.44775 0.8149236 -86.58807
v 58.73135 5.969079 -86.58807
v 54.51068 0.8149236 -86.58807
v 115.5396 5.969079 -86.58807
v 173.2396 18.05826 -86.58807
v 173.2396 0.8149236 -86.58807
v 119.7604 0.8149236 -86.58807
v -171.1769 0.8149236 -34.04242
v -171.1769 0.8149236 -86.58807
v -171.1769 18.05826 -86.58807
v -171.1769 4.53872 -28.32966
v -171.1769 18.05826 84.45309
v -171.1769 4.53872 26.19444
v -171.1769 0.8149236 31.90748
v -171.1769 0.8149236 84.45309
v -171.1769 18.05826 -86.58807
v 1.031372 18.05826 -86.58807
v 1.031372 18.05826 84.45309
v -171.1769 18.05826 84.45309
v 173.2396 18.05826 -86.58807
v 173.2396 18.05826 84.45309
v -171.1769 0.8149236 84.45309
v -171.1769 18.05826 84.45309
v -113.4768 5.969079 84.45309
v -117.6978 0.8149236 84.45309
v 1.031372 18.05826 84.45309
v -56.66869 5.969079 84.45309
v 1.031372 0.8149236 84.45309
v -52.44775 0.8149236 84.45309
v 58.73135 5.969079 84.45309
v 54.51047 0.8149236 84.45309
v 115.5396 5.969079 84.45309
v 173.2396 18.05826 84.45309
v 173.2396 0.8149236 84.45309
v 119.7604 0.8149236 84.45309
v 173.2396 0.8149236 -34.04242
v 173.2396 4.53872 -28.32941
v 173.2396 18.05826 -86.58807
v 173.2396 0.8149236 -86.58807
v 173.2396 4.53872 26.19444
v 173.2396 18.05826 84.45309
v 173.2396 0.8149236 31.90748
v 173.2396 0.8149236 84.45309
v -166.3 17.56885 78.54786
v -166.3 17.56885 41.12682
v -166.3 149.9012 41.12682
v -166.3 149.9012 78.54764
v -166.3 17.56885 -81.02213
v -166.3 149.901 -81.02213
v -166.3 149.901 -43.6013
v -166.3 17.56885 -43.6013
v -162.1839 17.56885 41.12682
v -162.1839 17.56885 -43.6013
v -162.1839 149.901 -43.6013
v -162.1839 149.9012 41.12682
v -166.3 149.9012 41.12682
v -166.3 17.56885 41.12682
v -162.1839 17.56885 41.12682
v -162.1839 149.9012 41.12682
v -166.3 17.56885 -43.6013
v -166.3 149.901 -43.6013
v -162.1839 149.901 -43.6013
v -162.1839 17.56885 -43.6013
v 168.3627 149.9012 78.54764
v 168.3627 17.56885 78.54786
v -166.3 17.56885 78.54786
v -166.3 149.9012 78.54764
v 168.3627 17.56885 78.54786
v 168.3627 149.9012 78.54764
v 168.3627 149.9012 41.12682
v 168.3627 17.56885 41.12682
v 168.3627 17.56885 -81.02213
v 168.3627 17.56885 -43.60107
v 168.3627 149.901 -43.6013
v 168.3627 149.901 -81.02213
v 164.2468 17.56885 41.12682
v 164.2468 149.9012 41.12682
v 164.2468 149.901 -43.6013
v 164.2468 17.56885 -43.60107
v 168.3627 149.9012 41.12682
v 164.2468 149.9012 41.12682
v 164.2468 17.56885 41.12682
v 168.3627 17.56885 41.12682
v 168.3627 17.56885 -43.60107
v 164.2468 17.56885 -43.60107
v 164.2468 149.901 -43.6013
v 168.3627 149.901 -43.6013
v -166.3 149.901 -81.02213
v -166.3 17.56885 -81.02213
v 168.3627 17.56885 -81.02213
v 168.3627 149.901 -81.02213
v -171.291 174.4643 28.7713
v -165.1987 174.4643 25.52803
v -171.291 174.4643 85.80629
v -121.6664 174.4638 79.99039
v -121.6989 174.4638 85.80653
v 168.7815 174.4643 25.52803
v 125.2493 174.4638 79.99062
v 168.7815 174.4643 -27.75792
v -165.1987 174.4643 -27.75792
v 174.8741 174.4643 85.80653
v 174.8741 174.4643 28.7713
v 125.2817 174.4638 85.80653
v -121.6664 174.4638 -82.22029
v -171.291 174.4643 -88.03619
v -171.291 174.4643 -31.00118
v -121.6989 174.4638 -88.03619
v 125.2493 174.4638 -82.22029
v 174.8741 174.4643 -88.03619
v 174.8741 174.4643 -31.00118
v 125.2817 174.4638 -88.03619
v -171.291 131.0777 85.80653
v -171.291 131.0777 38.0809
v -171.291 147.3952 28.7713
v -171.291 143.1523 85.80653
v -171.291 167.0658 25.52803
v -171.291 174.4643 85.80629
v -171.291 174.4643 28.7713
v -171.291 147.395 -31.00118
v -171.291 167.0658 -27.75792
v -171.291 143.1521 -88.03619
v -171.291 131.0777 -88.03619
v -171.291 131.0777 -40.31057
v -171.291 174.4643 -88.03619
v -171.291 174.4643 -31.00118
v -171.291 174.4643 28.7713
v -165.524 168.2999 25.52803
v -165.1987 174.4643 25.52803
v -171.291 167.0658 25.52803
v -165.524 168.2997 -27.75792
v -165.1987 174.4643 -27.75792
v -171.291 167.0658 -27.75792
v -171.291 174.4643 -31.00118
v -156.4423 143.1523 85.80653
v -171.291 143.1523 85.80653
v -171.291 174.4643 85.80629
v -121.6989 174.4638 85.80653
v -157.608 131.0777 85.80653
v -171.291 131.0777 85.80653
v 125.2817 174.4638 85.80653
v 160.0254 143.1523 85.80653
v 174.8741 174.4643 85.80653
v 174.8741 143.1523 85.80653
v 161.1908 131.0777 85.80653
v 174.8741 131.0777 85.80653
v -114.683 179.5918 85.80629
v 118.266 179.5918 85.80653
v 125.2817 174.4638 85.80653
v -121.6989 174.4638 85.80653
v -121.6989 174.4638 85.80653
v -121.6664 174.4638 79.99039
v -114.6219 179.5918 80.02359
v -114.683 179.5918 85.80629
v 118.266 179.5918 85.80653
v 118.2048 179.5918 80.02359
v 125.2817 174.4638 85.80653
v 125.2493 174.4638 79.99062
v -171.291 174.4643 -88.03619
v -171.291 143.1521 -88.03619
v -156.4423 143.1521 -88.03619
v -121.6989 174.4638 -88.03619
v -157.608 131.0777 -88.03619
v -171.291 131.0777 -88.03619
v 160.0254 143.1521 -88.03619
v 125.2817 174.4638 -88.03619
v 174.8741 174.4643 -88.03619
v 174.8741 143.1521 -88.03619
v 161.1908 131.0777 -88.03619
v 174.8741 131.0777 -88.03619
v -114.683 179.5918 -88.03619
v -121.6989 174.4638 -88.03619
v 125.2817 174.4638 -88.03619
v 118.266 179.5918 -88.03619
v -121.6989 174.4638 -88.03619
v -114.683 179.5918 -88.03619
v -114.6219 179.5918 -82.25349
v -121.6664 174.4638 -82.22029
v 118.266 179.5918 -88.03619
v 118.2048 179.5918 -82.25349
v 125.2817 174.4638 -88.03619
v 125.2493 174.4638 -82.22029
v 174.8741 131.0777 85.80653
v 174.8741 143.1523 85.80653
v 174.8741 147.3952 28.7713
v 174.8741 131.0777 38.0809
v 174.8741 167.0658 25.52803
v 174.8741 174.4643 85.80653
v 174.8741 174.4643 28.7713
v 174.8741 147.395 -31.00118
v 174.8741 167.0658 -27.75792
v 174.8741 143.1521 -88.03619
v 174.8741 131.0777 -88.03619
v 174.8741 131.0777 -40.31057
v 174.8741 174.4643 -88.03619
v 174.8741 174.4643 -31.00118
v 174.8741 174.4643 28.7713
v 168.7815 174.4643 25.52803
v 169.1068 168.2999 25.52803
v 174.8741 167.0658 25.52803
v 169.1068 168.2997 -27.75792
v 168.7815 174.4643 -27.75792
v 174.8741 167.0658 -27.75792
v 174.8741 174.4643 -31.00118
v -121.6664 174.4638 79.99039
v 125.2493 174.4638 79.99062
v 118.2048 179.5918 80.02359
v -114.6219 179.5918 80.02359
v -121.6664 174.4638 -82.22029
v -114.6219 179.5918 -82.25349
v 118.2048 179.5918 -82.25349
v 125.2493 174.4638 -82.22029
vt 0.4612 0.3723
vt 0.4612 0.3166
vt 0.4666 0.3122
vt 0.4792 0.3723
vt 0.4666 0.253
vt 0.4792 0.1929
vt 0.4612 0.1929
vt 0.4612 0.2486
vt 0.4666 0.1327
vt 0.4612 0.1371
vt 0.4666 0.0736
vt 0.4792 0.0134
vt 0.4612 0.0134
vt 0.4612 0.0692
vt 0.5167 0.3336
vt 0.5167 0.3884
vt 0.5346 0.3884
vt 0.5206 0.3277
vt 0.5346 0.2102
vt 0.5206 0.2709
vt 0.5167 0.2649
vt 0.5167 0.2102
vt 0.1897 0.0146
vt 0.1897 0.1935
vt 0.0124 0.1935
vt 0.0124 0.0146
vt 0.1897 0.3725
vt 0.0124 0.3725
vt 0.4612 0.3723
vt 0.4792 0.3723
vt 0.4666 0.3122
vt 0.4612 0.3166
vt 0.4792 0.1929
vt 0.4666 0.253
vt 0.4612 0.1929
vt 0.4612 0.2486
vt 0.4666 0.1327
vt 0.4612 0.1371
vt 0.4666 0.0736
vt 0.4792 0.0134
vt 0.4612 0.0134
vt 0.4612 0.0692
vt 0.5167 0.3336
vt 0.5206 0.3277
vt 0.5346 0.3884
vt 0.5167 0.3884
vt 0.5206 0.2709
vt 0.5346 0.2102
vt 0.5167 0.2649
vt 0.5167 0.2102
vt 0.1485 0.391
vt 0.1095 0.391
vt 0.1095 0.5289
vt 0.1485 0.5289
vt 0.1485 0.391
vt 0.1485 0.5289
vt 0.1095 0.5289
vt 0.1095 0.391
vt 0.0118 0.393
vt 0.1001 0.393
vt 0.1001 0.5309
vt 0.0118 0.5309
vt 0.1602 0.5309
vt 0.1602 0.393
vt 0.1559 0.393
vt 0.1559 0.5309
vt 0.1602 0.5309
vt 0.1602 0.393
vt 0.1559 0.393
vt 0.1559 0.5309
vt 0.5341 0.5376
vt 0.5341 0.3997
vt 0.1854 0.3997
vt 0.1854 0.5376
vt 0.1485 0.391
vt 0.1485 0.5289
vt 0.1095 0.5289
vt 0.1095 0.391
vt 0.1485 0.391
vt 0.1095 0.391
vt 0.1095 0.5289
vt 0.1485 0.5289
vt 0.1001 0.393
vt 0.1001 0.5309
vt 0.0118 0.5309
vt 0.0118 0.393
vt 0.1602 0.5309
vt 0.1559 0.5309
vt 0.1559 0.393
vt 0.1602 0.393
vt 0.1602 0.5309
vt 0.1559 0.5309
vt 0.1559 0.393
vt 0.1602 0.393
vt 0.5341 0.5376
vt 0.5341 0.3997
vt 0.1854 0.3997
vt 0.1854 0.5376
vt 0.2568 0.3733
vt 0.2602 0.367
vt 0.1974 0.3733
vt 0.2035 0.3216
vt 0.1974 0.3216
vt 0.2602 0.0189
vt 0.2035 0.0643
vt 0.3158 0.0189
vt 0.3158 0.367
vt 0.1974 0.0125
vt 0.2568 0.0125
vt 0.1974 0.0642
vt 0.3725 0.3216
vt 0.3786 0.3733
vt 0.3191 0.3733
vt 0.3786 0.3216
vt 0.3725 0.0643
vt 0.3786 0.0125
vt 0.3191 0.0125
vt 0.3786 0.0642
vt 0.4914 0.0146
vt 0.4914 0.0643
vt 0.5084 0.074
vt 0.5039 0.0146
vt 0.5289 0.0774
vt 0.5366 0.0146
vt 0.5366 0.074
vt 0.5084 0.1363
vt 0.5289 0.1329
vt 0.5039 0.1957
vt 0.4914 0.1957
vt 0.4914 0.146
vt 0.5366 0.1957
vt 0.5366 0.1363
vt 0.2536 0.3878
vt 0.2617 0.3866
vt 0.2603 0.3921
vt 0.2603 0.3816
vt 0.3128 0.3866
vt 0.3142 0.3921
vt 0.3142 0.3816
vt 0.3209 0.3878
vt 0.4242 0.3626
vt 0.4242 0.3777
vt 0.3916 0.3777
vt 0.3916 0.3252
vt 0.4366 0.3643
vt 0.4366 0.3777
vt 0.3916 0.069
vt 0.4242 0.0316
vt 0.3916 0.0165
vt 0.4242 0.0165
vt 0.4366 0.0299
vt 0.4366 0.0165
vt 0.4383 0.07
vt 0.4387 0.2832
vt 0.434 0.2897
vt 0.4336 0.0635
vt 0.4383 0.062
vt 0.4437 0.062
vt 0.4436 0.07
vt 0.4383 0.07
vt 0.4387 0.2832
vt 0.444 0.2832
vt 0.4387 0.2912
vt 0.444 0.2912
vt 0.3916 0.0165
vt 0.4242 0.0165
vt 0.4242 0.0316
vt 0.3916 0.069
vt 0.4366 0.0299
vt 0.4366 0.0165
vt 0.4242 0.3626
vt 0.3916 0.3252
vt 0.3916 0.3777
vt 0.4242 0.3777
vt 0.4366 0.3643
vt 0.4366 0.3777
vt 0.4383 0.0699
vt 0.4336 0.0635
vt 0.434 0.2896
vt 0.4387 0.2832
vt 0.4383 0.062
vt 0.4383 0.0699
vt 0.4436 0.07
vt 0.4437 0.062
vt 0.4387 0.2832
vt 0.444 0.2832
vt 0.4387 0.2912
vt 0.444 0.2911
vt 0.4914 0.1957
vt 0.5039 0.1957
vt 0.5084 0.1363
vt 0.4914 0.146
vt 0.5289 0.1329
vt 0.5366 0.1957
vt 0.5366 0.1363
vt 0.5084 0.074
vt 0.5289 0.0774
vt 0.5039 0.0146
vt 0.4914 0.0146
vt 0.4914 0.0643
vt 0.5366 0.0146
vt 0.5366 0.074
vt 0.2536 0.3878
vt 0.2603 0.3921
vt 0.2617 0.3866
vt 0.2603 0.3816
vt 0.3128 0.3866
vt 0.3142 0.3921
vt 0.3142 0.3816
vt 0.3209 0.3878
vt 0.4483 0.0635
vt 0.4487 0.2896
vt 0.444 0.2832
vt 0.4436 0.07
vt 0.4483 0.0635
vt 0.4436 0.07
vt 0.444 0.2832
vt 0.4487 0.2896
vn 0 0 -1
vn 0 0 -1
vn 0 0 -1
vn 0 0 -1
vn 0 0 -1
vn 0 0 -1
vn 0 0 -1
vn 0 0 -1
vn 0 0 -1
vn 0 0 -1
vn 0 0 -1
vn 0 0 -1
vn 0 0 -1
vn 0 0 -1
vn -1 0 0
vn -1 0 0
vn -1 0 0
vn -1 0 0
vn -1 0 0
vn -1 0 0
vn -1 0 0
vn -1 0 0
vn 0 1 0
vn 0 1 0
vn 0 1 0
vn 0 1 0
vn 0 1 0
vn 0 1 0
vn 0 0 1
vn 0 0 1
vn 0 0 1
vn 0 0 1
vn 0 0 1
vn 0 0 1
vn 0 0 1
vn 0 0 1
vn 0 0 1
vn 0 0 1
vn 0 0 1
vn 0 0 1
vn 0 0 1
vn 0 0 1
vn 1 0 0
vn 1 0 0
vn 1 0 0
vn 1 0 0
vn 1 0 0
vn 1 0 0
vn 1 0 0
vn 1 0 0
vn -1 0 0
vn -1 0 0
vn -1 0 0
vn -1 0 0
vn -1 0 0
vn -1 0 0
vn -1 0 0
vn -1 0 0
vn -1 0 0
vn -1 0 0
vn -1 0 0
vn -1 0 0
vn 0 0 -1
vn 0 0 -1
vn 0 0 -1
vn 0 0 -1
vn 0 0 1
vn 0 0 1
vn 0 0 1
vn 0 0 1
vn 0 0 1
vn 0 0 1
vn 0 0 1
vn 0 0 1
vn 1 0 0
vn 1 0 0
vn 1 0 0
vn 1 0 0
vn 1 0 0
vn 1 0 0
vn 1 0 0
vn 1 0 0
vn 1 0 0
vn 1 0 0
vn 1 0 0
vn 1 0 0
vn 0 0 -1
vn 0 0 -1
vn 0 0 -1
vn 0 0 -1
vn 0 0 1
vn 0 0 1
vn 0 0 1
vn 0 0 1
vn 0 0 -1
vn 0 0 -1
vn 0 0 -1
vn 0 0 -1
vn 0 1 0
vn 0 1 0
vn 0 1 0
vn -0.001253034 0.9999993 0
vn -0.1579404 0.9874478 -0.001277936
vn 0 1 0
vn 0.001253057 0.9999993 0
vn 0 1 0
vn 0 1 0
vn 0 1 0
vn 0 1 0
vn 0.1579482 0.9874465 -0.001275791
vn -0.001253015 0.9999993 0
vn 0 1 0
vn 0 1 0
vn -0.1579452 0.9874471 0.001278031
vn 0.001253012 0.9999993 0
vn 0 1 0
vn 0 1 0
vn 0.1579459 0.987447 0.001275975
vn -1 0 0
vn -1 0 0
vn -1 0 0
vn -1 0 0
vn -0.9940838 0.108425 -0.00643149
vn -1 0 0
vn -1 0 0
vn -1 0 0
vn -0.9940838 0.1084255 0.006431228
vn -1 0 0
vn -1 0 0
vn -1 0 0
vn -1 0 0
vn -1 0 0
vn -0.2866168 0.2221744 -0.9319277
vn -0.7701437 0.6360786 -0.04777715
vn -0.9971684 0.05261677 -0.05372796
vn -0.9940838 0.108425 -0.00643149
vn -0.7701423 0.6360807 0.04777458
vn -0.9971682 0.0526167 0.05372948
vn -0.9940838 0.1084255 0.006431228
vn -0.2866187 0.2221666 0.931929
vn 0 0 1
vn 0 0 1
vn 0 0 1
vn 0 0 1
vn 0 0 1
vn 0 0 1
vn 0 0 1
vn 0 0 1
vn 0 0 1
vn 0 0 1
vn 0 0 1
vn 0 0 1
vn 0 2.348311E-05 1
vn 0 2.348311E-05 1
vn 0 0 1
vn 0 0 1
vn -0.1579404 0.9874478 -0.001277936
vn -0.001253034 0.9999993 0
vn -0.02122743 0.9997746 -0.0001712693
vn -0.02168287 0.9997649 -0.0001749439
vn 0.02168334 0.9997649 -0.0001751342
vn 0.02122644 0.9997746 -0.0001714439
vn 0.1579482 0.9874465 -0.001275791
vn 0.001253057 0.9999993 0
vn 0 0 -1
vn 0 0 -1
vn 0 0 -1
vn 0 0 -1
vn 0 0 -1
vn 0 0 -1
vn 0 0 -1
vn 0 0 -1
vn 0 0 -1
vn 0 0 -1
vn 0 0 -1
vn 0 0 -1
vn 0 0 -1
vn 0 0 -1
vn 0 0 -1
vn 0 0 -1
vn -0.1579452 0.9874471 0.001278031
vn -0.02168258 0.9997649 0.0001753737
vn -0.0212275 0.9997746 0.0001717021
vn -0.001253015 0.9999993 0
vn 0.02168336 0.9997649 0.0001755867
vn 0.02122679 0.9997746 0.0001718988
vn 0.1579459 0.987447 0.001275975
vn 0.001253012 0.9999993 0
vn 1 0 0
vn 1 0 0
vn 1 0 0
vn 1 0 0
vn 0.9940831 0.1084321 -0.006431822
vn 1 0 0
vn 1 -1.265396E-05 0
vn 1 0 0
vn 0.9940832 0.1084304 0.006431536
vn 1 0 0
vn 1 0 0
vn 1 0 0
vn 1 0 0
vn 1 -2.530803E-05 0
vn 0.2866006 0.2221859 -0.9319299
vn 0.9971686 0.05260986 -0.05373028
vn 0.7701335 0.6360911 -0.04777835
vn 0.9940831 0.1084321 -0.006431822
vn 0.7701319 0.6360931 0.04777559
vn 0.9971685 0.05260979 0.05373187
vn 0.9940832 0.1084304 0.006431536
vn 0.2866009 0.2221778 0.9319318
vn 0 0.00645163 -0.9999793
vn 0 0.00645163 -0.9999793
vn 0 0.00645163 -0.9999793
vn 0 0.00645163 -0.9999793
vn 0 0.00647424 0.999979
vn 0 0.006474241 0.999979
vn 0 0.006474241 0.999979
vn 0 0.00647424 0.999979
g _furni_drop_box_01_0
f 3/3/3 2/2/2 1/1/1
f 4/4/4 3/3/3 1/1/1
f 3/3/3 4/4/4 5/5/5
f 4/4/4 6/6/6 5/5/5
f 5/5/5 6/6/6 7/7/7
f 8/8/8 5/5/5 7/7/7
f 6/6/6 9/9/9 7/7/7
f 9/9/9 10/10/10 7/7/7
f 9/9/9 6/6/6 11/11/11
f 6/6/6 12/12/12 11/11/11
f 11/11/11 12/12/12 13/13/13
f 14/14/14 11/11/11 13/13/13
f 17/17/17 16/16/16 15/15/15
f 18/18/18 17/17/17 15/15/15
f 19/19/19 17/17/17 18/18/18
f 20/20/20 19/19/19 18/18/18
f 19/19/19 20/20/20 21/21/21
f 22/22/22 19/19/19 21/21/21
f 25/25/25 24/24/24 23/23/23
f 26/26/26 25/25/25 23/23/23
f 27/27/27 24/24/24 25/25/25
f 28/28/28 27/27/27 25/25/25
f 31/31/31 30/30/30 29/29/29
f 32/32/32 31/31/31 29/29/29
f 33/33/33 30/30/30 31/31/31
f 34/34/34 33/33/33 31/31/31
f 33/33/33 34/34/34 35/35/35
f 34/34/34 36/36/36 35/35/35
f 37/37/37 33/33/33 35/35/35
f 38/38/38 37/37/37 35/35/35
f 33/33/33 37/37/37 39/39/39
f 40/40/40 33/33/33 39/39/39
f 40/40/40 39/39/39 41/41/41
f 39/39/39 42/42/42 41/41/41
f 45/45/45 44/44/44 43/43/43
f 46/46/46 45/45/45 43/43/43
f 44/44/44 45/45/45 47/47/47
f 45/45/45 48/48/48 47/47/47
f 47/47/47 48/48/48 49/49/49
f 48/48/48 50/50/50 49/49/49
f 53/53/53 52/52/52 51/51/51
f 54/54/54 53/53/53 51/51/51
f 57/57/57 56/56/56 55/55/55
f 58/58/58 57/57/57 55/55/55
f 61/61/61 60/60/60 59/59/59
f 62/62/62 61/61/61 59/59/59
f 65/65/65 64/64/64 63/63/63
f 66/66/66 65/65/65 63/63/63
f 69/69/69 68/68/68 67/67/67
f 70/70/70 69/69/69 67/67/67
f 73/73/73 72/72/72 71/71/71
f 74/74/74 73/73/73 71/71/71
f 77/77/77 76/76/76 75/75/75
f 78/78/78 77/77/77 75/75/75
f 81/81/81 80/80/80 79/79/79
f 82/82/82 81/81/81 79/79/79
f 85/85/85 84/84/84 83/83/83
f 86/86/86 85/85/85 83/83/83
f 89/89/89 88/88/88 87/87/87
f 90/90/90 89/89/89 87/87/87
f 93/93/93 92/92/92 91/91/91
f 94/94/94 93/93/93 91/91/91
f 97/97/97 96/96/96 95/95/95
f 98/98/98 97/97/97 95/95/95
f 101/101/101 100/100/100 99/99/99
f 102/102/102 100/100/100 101/101/101
f 103/103/103 102/102/102 101/101/101
f 100/100/100 102/102/102 104/104/104
f 102/102/102 105/105/105 104/104/104
f 104/104/104 106/106/106 100/100/100
f 106/106/106 107/107/107 100/100/100
f 104/104/104 105/105/105 108/108/108
f 104/104/104 108/108/108 109/109/109
f 105/105/105 110/110/110 108/108/108
f 111/111/111 107/107/107 106/106/106
f 107/107/107 111/111/111 112/112/112
f 107/107/107 112/112/112 113/113/113
f 111/111/111 114/114/114 112/112/112
f 115/115/115 111/111/111 106/106/106
f 115/115/115 106/106/106 116/116/116
f 116/116/116 106/106/106 117/117/117
f 118/118/118 115/115/115 116/116/116
f 121/121/121 120/120/120 119/119/119
f 122/122/122 121/121/121 119/119/119
f 123/123/123 121/121/121 122/122/122
f 124/124/124 123/123/123 122/122/122
f 125/125/125 123/123/123 124/124/124
f 126/126/126 121/121/121 123/123/123
f 127/127/127 126/126/126 123/123/123
f 126/126/126 127/127/127 128/128/128
f 126/126/126 128/128/128 129/129/129
f 130/130/130 126/126/126 129/129/129
f 127/127/127 131/131/131 128/128/128
f 127/127/127 132/132/132 131/131/131
f 135/135/135 134/134/134 133/133/133
f 136/136/136 133/133/133 134/134/134
f 137/137/137 134/134/134 135/135/135
f 134/134/134 137/137/137 136/136/136
f 138/138/138 137/137/137 135/135/135
f 137/137/137 139/139/139 136/136/136
f 137/137/137 138/138/138 140/140/140
f 140/140/140 139/139/139 137/137/137
f 143/143/143 142/142/142 141/141/141
f 144/144/144 143/143/143 141/141/141
f 145/145/145 141/141/141 142/142/142
f 146/146/146 145/145/145 142/142/142
f 144/144/144 141/141/141 147/147/147
f 141/141/141 148/148/148 147/147/147
f 149/149/149 147/147/147 148/148/148
f 150/150/150 149/149/149 148/148/148
f 148/148/148 151/151/151 150/150/150
f 151/151/151 152/152/152 150/150/150
f 155/155/155 154/154/154 153/153/153
f 156/156/156 155/155/155 153/153/153
f 159/159/159 158/158/158 157/157/157
f 160/160/160 159/159/159 157/157/157
f 160/160/160 161/161/161 159/159/159
f 161/161/161 162/162/162 159/159/159
f 162/162/162 161/161/161 163/163/163
f 164/164/164 162/162/162 163/163/163
f 167/167/167 166/166/166 165/165/165
f 168/168/168 167/167/167 165/165/165
f 167/167/167 169/169/169 166/166/166
f 169/169/169 170/170/170 166/166/166
f 171/171/171 167/167/167 168/168/168
f 172/172/172 171/171/171 168/168/168
f 171/171/171 172/172/172 173/173/173
f 174/174/174 171/171/171 173/173/173
f 175/175/175 171/171/171 174/174/174
f 176/176/176 175/175/175 174/174/174
f 179/179/179 178/178/178 177/177/177
f 180/180/180 179/179/179 177/177/177
f 183/183/183 182/182/182 181/181/181
f 184/184/184 183/183/183 181/181/181
f 185/185/185 182/182/182 183/183/183
f 186/186/186 185/185/185 183/183/183
f 185/185/185 186/186/186 187/187/187
f 186/186/186 188/188/188 187/187/187
f 191/191/191 190/190/190 189/189/189
f 192/192/192 191/191/191 189/189/189
f 191/191/191 193/193/193 190/190/190
f 193/193/193 194/194/194 190/190/190
f 193/193/193 195/195/195 194/194/194
f 191/191/191 196/196/196 193/193/193
f 196/196/196 197/197/197 193/193/193
f 197/197/197 196/196/196 198/198/198
f 198/198/198 196/196/196 199/199/199
f 196/196/196 200/200/200 199/199/199
f 201/201/201 197/197/197 198/198/198
f 202/202/202 197/197/197 201/201/201
f 205/205/205 204/204/204 203/203/203
f 203/203/203 206/206/206 205/205/205
f 205/205/205 207/207/207 204/204/204
f 207/207/207 205/205/205 206/206/206
f 207/207/207 208/208/208 204/204/204
f 209/209/209 207/207/207 206/206/206
f 208/208/208 207/207/207 210/210/210
f 209/209/209 210/210/210 207/207/207
f 213/213/213 212/212/212 211/211/211
f 214/214/214 213/213/213 211/211/211
f 217/217/217 216/216/216 215/215/215
f 218/218/218 217/217/217 215/215/215
