g Cone001
v -0.5764212 0.3327972 0
v -0.5490451 0.2334578 0.1285932
v -0.5907601 0.08339961 0.1285932
v -0.6429144 0.1722686 0
v -0.5922158 -0.0723421 0.1285932
v -0.665594 2.422333E-07 0
v -0.553313 -0.2231538 0.1285932
v -0.6429145 -0.1722681 0
v -0.4767029 -0.358758 0.1285932
v -0.5764214 -0.3327967 0
v -0.3676063 -0.4699134 0.1285932
v -0.4706463 -0.4706457 0
v -0.2334577 -0.549045 0.1285932
v -0.3327972 -0.5764211 0
v -0.08339956 -0.5907601 0.1285932
v -0.1722686 -0.6429142 0
v 0.07234214 -0.5922158 0.1285932
v -2.906799E-07 -0.665594 0
v 0.2231539 -0.553313 0.1285932
v 0.172268 -0.6429145 0
v 0.358758 -0.4767029 0.1285932
v 0.3327967 -0.5764214 0
v 0.4699134 -0.3676063 0.1285932
v 0.4706456 -0.4706463 0
v 0.549045 -0.2334578 0.1285932
v 0.5764211 -0.3327973 0
v 0.59076 -0.08339975 0.1285932
v 0.6429142 -0.1722689 0
v 0.592216 0.07234243 0.1285932
v 0.665594 0 0
v 0.1476954 -0.5151949 0.2571864
v 0.2760051 -0.4594137 0.2571864
v 0.3855054 -0.3723242 0.2571864
v 0.4687343 -0.2598615 0.2571864
v 0.5200198 -0.1296896 0.2571864
v 0.5358666 0.009320507 0.2571864
v 0.515195 0.1476958 0.2571864
v 0.3308218 -0.3612166 0.3857796
v 0.2260596 -0.4345314 0.3857797
v 0.009320604 -0.5358664 0.2571864
v -0.1296894 -0.5200196 0.2571864
v -0.2598615 -0.4687342 0.2571864
v -0.3723242 -0.3855054 0.2571864
v -0.4594137 -0.2760051 0.2571864
v -0.5151949 -0.1476954 0.2571864
v -0.5358664 -0.009320507 0.2571864
v -0.5200197 0.1296895 0.2571864
v -0.4782336 -0.1058918 0.3857796
v -0.489345 0.02149234 0.3857796
v -0.4345313 -0.2260596 0.3857796
v -0.3612165 -0.3308218 0.3857796
v -0.2632854 -0.413039 0.3857796
v -0.1474119 -0.4671083 0.3857796
v -0.02149224 -0.489345 0.3857796
v 0.1058919 -0.4782336 0.3857796
v -0.4178614 -0.2063141 0.5143728
v -0.4570211 -0.09113363 0.5143728
v -0.3502251 -0.3074346 0.5143728
v -0.2587216 -0.3876039 0.5143728
v -0.1495866 -0.4413587 0.5143728
v -0.0302575 -0.4650356 0.5143729
v 0.09113363 -0.4570211 0.5143728
v 0.206314 -0.4178614 0.5143728
v 0.3074345 -0.3502252 0.5143728
v 0.3876039 -0.2587216 0.5143728
v 0.4413587 -0.1495866 0.5143728
v 0.413039 -0.2632854 0.3857796
v 0.4671082 -0.1474118 0.3857796
v 0.489345 -0.02149244 0.3857796
v 0.4782336 0.1058917 0.3857796
v 0.4345312 0.2260598 0.3857796
v 0.4650356 -0.0302575 0.5143728
v 0.4570213 0.09113353 0.5143728
v 0.4178616 0.2063141 0.5143728
v 0.350225 0.3074348 0.5143728
v 0.4625163 0.09160153 0.642966
v 0.4230482 0.2081884 0.642966
v 0.3547501 0.3105875 0.642966
v 0.262276 0.3918207 0.642966
v 0.4704646 -0.0312277 0.642966
v 0.4463515 -0.1519287 0.642966
v 0.3918204 -0.2622762 0.642966
v 0.3105875 -0.35475 0.642966
v 0.2081884 -0.423048 0.6429659
v 0.09160163 -0.4625162 0.642966
v -0.0312277 -0.4704646 0.642966
v -0.1519288 -0.4463516 0.642966
v -0.2622762 -0.3918205 0.642966
v -0.35475 -0.3105875 0.6429662
v -0.423048 -0.2081884 0.642966
vt 0.1666666 0
vt 0.1666666 0.2
vt 0.2083333 0.2123647
vt 0.2083333 0.01236476
vt 0.2499999 0.2
vt 0.2499999 0
vt 0.2916666 0.1917568
vt 0.2916666 -0.008243173
vt 0.3333333 0.2
vt 0.3333333 0
vt 0.3749999 0.2164863
vt 0.3749999 0.01648635
vt 0.4166666 0.2
vt 0.4166667 0
vt 0.4583333 0.1835136
vt 0.4583333 -0.01648635
vt 0.4999999 0.2
vt 0.4999999 0
vt 0.5416666 0.2185471
vt 0.5416666 0.01854714
vt 0.5833333 0.2
vt 0.5833333 0
vt 0.6249999 0.1732097
vt 0.6249999 -0.02679031
vt 0.6666666 0.2
vt 0.6666666 0
vt 0.7083333 0.2123647
vt 0.7083333 0.01236476
vt 0.75 0.2
vt 0.75 0
vt 0.4999999 0.4
vt 0.5416666 0.4185472
vt 0.5833333 0.4
vt 0.6249999 0.3732097
vt 0.6666665 0.4
vt 0.7083333 0.4123648
vt 0.75 0.4
vt 0.5416666 0.6185471
vt 0.4999999 0.6
vt 0.4583333 0.3835137
vt 0.4166666 0.4
vt 0.3749999 0.4164864
vt 0.3333333 0.4
vt 0.2916666 0.3917568
vt 0.2499999 0.4
vt 0.2083333 0.4123648
vt 0.1666666 0.4
vt 0.2083333 0.6123648
vt 0.1666666 0.6
vt 0.2499999 0.6
vt 0.2916666 0.5917568
vt 0.3333333 0.6
vt 0.3749999 0.6164864
vt 0.4166666 0.6
vt 0.4583333 0.5835137
vt 0.2083333 0.8123648
vt 0.1666666 0.8
vt 0.2499999 0.8
vt 0.2916666 0.7917569
vt 0.3333333 0.8
vt 0.3749999 0.8164864
vt 0.4166666 0.8
vt 0.4583333 0.7835137
vt 0.4999999 0.8
vt 0.5416666 0.8185471
vt 0.5833333 0.8
vt 0.5833333 0.6
vt 0.6249999 0.5732097
vt 0.6666665 0.6
vt 0.7083333 0.6123648
vt 0.75 0.6
vt 0.6249999 0.7732097
vt 0.6666665 0.8
vt 0.7083333 0.8123648
vt 0.75 0.8
vt 0.6249999 0.9732097
vt 0.6666666 1
vt 0.7083333 1.012365
vt 0.75 1
vt 0.5833333 1
vt 0.5416666 1.018547
vt 0.4999999 1
vt 0.4583333 0.9835137
vt 0.4166667 1
vt 0.3749999 1.016486
vt 0.3333333 1
vt 0.2916666 0.9917568
vt 0.2499999 1
vt 0.2083333 1.012365
vt 0.1666666 1
vn -0.8344811 0.2896743 0.4687538
vn -0.8895516 0.2263401 0.3968225
vn -0.8827766 0.1215452 0.4537977
vn -0.8221139 0.2340523 0.5189878
vn -0.8841548 -0.1110756 0.4537978
vn -0.8546783 0.01329854 0.5189877
vn -0.8252796 -0.336127 0.4537976
vn -0.8289976 -0.2083615 0.5189879
vn -0.7101628 -0.5382717 0.4537977
vn -0.7468224 -0.4158221 0.5189879
vn -0.5466496 -0.7037342 0.4537978
vn -0.6137524 -0.5949453 0.5189878
vn -0.345883 -0.8212384 0.4537978
vn -0.438856 -0.7335238 0.5189877
vn -0.1215453 -0.8827766 0.4537976
vn -0.2340524 -0.8221141 0.5189874
vn 0.1110756 -0.8841549 0.4537977
vn -0.01329887 -0.8546782 0.5189878
vn 0.336127 -0.8252796 0.4537976
vn 0.2083614 -0.8289977 0.5189878
vn 0.5382714 -0.710163 0.4537978
vn 0.4158221 -0.7468225 0.5189876
vn 0.7037345 -0.5466498 0.4537973
vn 0.5949455 -0.6137526 0.5189871
vn 0.8212388 -0.3458831 0.4537971
vn 0.7335236 -0.4388564 0.5189877
vn 0.8827766 -0.1215456 0.4537974
vn 0.8221138 -0.2340527 0.5189876
vn 0.8653813 -0.02786326 0.5003387
vn 0.83538 -0.1099808 0.5385577
vn 0.2569177 -0.884459 0.3895196
vn 0.4770786 -0.7878266 0.3895194
vn 0.6647267 -0.6375052 0.3895198
vn 0.8070749 -0.443739 0.3895201
vn 0.894423 -0.219732 0.3895193
vn 0.9208173 0.01924915 0.389519
vn 0.8855672 0.1093782 0.4514502
vn 0.6521373 -0.7081352 0.2706683
vn 0.4466372 -0.8527917 0.2706684
vn 0.01924887 -0.9208171 0.3895194
vn -0.2197319 -0.894423 0.3895194
vn -0.4437385 -0.8070755 0.3895192
vn -0.6375051 -0.664727 0.3895192
vn -0.7878266 -0.4770783 0.3895196
vn -0.884459 -0.2569178 0.3895196
vn -0.9208171 -0.01924905 0.3895193
vn -0.94471 0.08442274 0.316853
vn -0.9393318 -0.2107 0.2706682
vn -0.9778475 -0.1112194 0.1773262
vn -0.8527917 -0.4466374 0.2706682
vn -0.7081354 -0.652137 0.2706684
vn -0.5152208 -0.813195 0.2706685
vn -0.2871946 -0.9188351 0.2706683
vn -0.03959674 -0.9618579 0.2706686
vn 0.2106998 -0.9393318 0.2706683
vn -0.8937105 -0.4416861 0.07870744
vn -0.937131 -0.347602 -0.03095744
vn -0.7489414 -0.6579453 0.07870781
vn -0.5531332 -0.8293664 0.0787078
vn -0.3196297 -0.9442679 0.07870766
vn -0.06434388 -0.9948191 0.07870737
vn 0.1953269 -0.9775749 0.07870754
vn 0.4416861 -0.8937106 0.07870787
vn 0.6579451 -0.7489414 0.07870827
vn 0.8293664 -0.5531331 0.07870845
vn 0.9442679 -0.3196296 0.07870758
vn 0.8131953 -0.5152205 0.2706681
vn 0.9188347 -0.2871949 0.270669
vn 0.9618578 -0.03959728 0.2706691
vn 0.9393318 0.2107 0.2706681
vn 0.887074 0.2956475 0.3545311
vn 0.994819 -0.06434458 0.07870767
vn 0.9775749 0.1953259 0.07870802
vn 0.8937104 0.4416864 0.07870675
vn 0.8316702 0.523824 0.1842093
vn 0.9480336 0.2204338 -0.229437
vn 0.8586778 0.4582918 -0.2294362
vn 0.7108038 0.6649185 -0.229437
vn 0.7316786 0.6757416 -0.08955313
vn 0.9727827 -0.03244691 -0.2294359
vn 0.9312384 -0.2831157 -0.2294357
vn 0.8262315 -0.5144901 -0.2294372
vn 0.6649186 -0.7108034 -0.2294378
vn 0.4582921 -0.8586776 -0.2294366
vn 0.2204343 -0.9480335 -0.229437
vn -0.03244628 -0.9727826 -0.2294366
vn -0.2831151 -0.9312381 -0.2294368
vn -0.5144908 -0.8262314 -0.2294364
vn -0.710804 -0.6649184 -0.2294367
vn -0.8000076 -0.5335885 -0.2743561
g Cone001_0
f 3/3/3 2/2/2 1/1/1
f 4/4/4 3/3/3 1/1/1
f 5/5/5 3/3/3 4/4/4
f 6/6/6 5/5/5 4/4/4
f 7/7/7 5/5/5 6/6/6
f 8/8/8 7/7/7 6/6/6
f 9/9/9 7/7/7 8/8/8
f 10/10/10 9/9/9 8/8/8
f 11/11/11 9/9/9 10/10/10
f 12/12/12 11/11/11 10/10/10
f 13/13/13 11/11/11 12/12/12
f 14/14/14 13/13/13 12/12/12
f 15/15/15 13/13/13 14/14/14
f 16/16/16 15/15/15 14/14/14
f 17/17/17 15/15/15 16/16/16
f 18/18/18 17/17/17 16/16/16
f 19/19/19 17/17/17 18/18/18
f 20/20/20 19/19/19 18/18/18
f 21/21/21 19/19/19 20/20/20
f 22/22/22 21/21/21 20/20/20
f 23/23/23 21/21/21 22/22/22
f 24/24/24 23/23/23 22/22/22
f 25/25/25 23/23/23 24/24/24
f 26/26/26 25/25/25 24/24/24
f 27/27/27 25/25/25 26/26/26
f 28/28/28 27/27/27 26/26/26
f 29/29/29 27/27/27 28/28/28
f 30/30/30 29/29/29 28/28/28
f 17/17/17 31/31/31 15/15/15
f 32/32/32 31/31/31 17/17/17
f 19/19/19 32/32/32 17/17/17
f 33/33/33 32/32/32 19/19/19
f 21/21/21 33/33/33 19/19/19
f 34/34/34 33/33/33 21/21/21
f 23/23/23 34/34/34 21/21/21
f 35/35/35 34/34/34 23/23/23
f 25/25/25 35/35/35 23/23/23
f 36/36/36 35/35/35 25/25/25
f 27/27/27 36/36/36 25/25/25
f 37/37/37 36/36/36 27/27/27
f 29/29/29 37/37/37 27/27/27
f 32/32/32 38/38/38 31/31/31
f 38/38/38 39/39/39 31/31/31
f 31/31/31 39/39/39 40/40/40
f 31/31/31 40/40/40 15/15/15
f 15/15/15 40/40/40 13/13/13
f 40/40/40 41/41/41 13/13/13
f 13/13/13 41/41/41 11/11/11
f 41/41/41 42/42/42 11/11/11
f 11/11/11 42/42/42 9/9/9
f 42/42/42 43/43/43 9/9/9
f 9/9/9 43/43/43 7/7/7
f 43/43/43 44/44/44 7/7/7
f 7/7/7 44/44/44 5/5/5
f 44/44/44 45/45/45 5/5/5
f 5/5/5 45/45/45 3/3/3
f 45/45/45 46/46/46 3/3/3
f 3/3/3 46/46/46 2/2/2
f 46/46/46 47/47/47 2/2/2
f 46/46/46 48/48/48 47/47/47
f 48/48/48 49/49/49 47/47/47
f 50/50/50 48/48/48 46/46/46
f 45/45/45 50/50/50 46/46/46
f 51/51/51 50/50/50 45/45/45
f 44/44/44 51/51/51 45/45/45
f 52/52/52 51/51/51 44/44/44
f 43/43/43 52/52/52 44/44/44
f 53/53/53 52/52/52 43/43/43
f 42/42/42 53/53/53 43/43/43
f 54/54/54 53/53/53 42/42/42
f 41/41/41 54/54/54 42/42/42
f 55/55/55 54/54/54 41/41/41
f 40/40/40 55/55/55 41/41/41
f 39/39/39 55/55/55 40/40/40
f 48/48/48 56/56/56 49/49/49
f 56/56/56 57/57/57 49/49/49
f 58/58/58 56/56/56 48/48/48
f 50/50/50 58/58/58 48/48/48
f 59/59/59 58/58/58 50/50/50
f 51/51/51 59/59/59 50/50/50
f 60/60/60 59/59/59 51/51/51
f 52/52/52 60/60/60 51/51/51
f 61/61/61 60/60/60 52/52/52
f 53/53/53 61/61/61 52/52/52
f 62/62/62 61/61/61 53/53/53
f 54/54/54 62/62/62 53/53/53
f 63/63/63 62/62/62 54/54/54
f 55/55/55 63/63/63 54/54/54
f 64/64/64 63/63/63 55/55/55
f 39/39/39 64/64/64 55/55/55
f 65/65/65 64/64/64 39/39/39
f 38/38/38 65/65/65 39/39/39
f 66/66/66 65/65/65 38/38/38
f 67/67/67 66/66/66 38/38/38
f 67/67/67 38/38/38 32/32/32
f 33/33/33 67/67/67 32/32/32
f 68/68/68 67/67/67 33/33/33
f 34/34/34 68/68/68 33/33/33
f 69/69/69 68/68/68 34/34/34
f 35/35/35 69/69/69 34/34/34
f 70/70/70 69/69/69 35/35/35
f 36/36/36 70/70/70 35/35/35
f 71/71/71 70/70/70 36/36/36
f 37/37/37 71/71/71 36/36/36
f 72/72/72 66/66/66 67/67/67
f 68/68/68 72/72/72 67/67/67
f 73/73/73 72/72/72 68/68/68
f 69/69/69 73/73/73 68/68/68
f 74/74/74 73/73/73 69/69/69
f 70/70/70 74/74/74 69/69/69
f 75/75/75 74/74/74 70/70/70
f 71/71/71 75/75/75 70/70/70
f 72/72/72 76/76/76 66/66/66
f 77/77/77 76/76/76 72/72/72
f 73/73/73 77/77/77 72/72/72
f 78/78/78 77/77/77 73/73/73
f 74/74/74 78/78/78 73/73/73
f 79/79/79 78/78/78 74/74/74
f 75/75/75 79/79/79 74/74/74
f 76/76/76 80/80/80 66/66/66
f 66/66/66 80/80/80 65/65/65
f 80/80/80 81/81/81 65/65/65
f 65/65/65 81/81/81 64/64/64
f 81/81/81 82/82/82 64/64/64
f 64/64/64 82/82/82 63/63/63
f 82/82/82 83/83/83 63/63/63
f 63/63/63 83/83/83 62/62/62
f 83/83/83 84/84/84 62/62/62
f 62/62/62 84/84/84 61/61/61
f 84/84/84 85/85/85 61/61/61
f 61/61/61 85/85/85 60/60/60
f 85/85/85 86/86/86 60/60/60
f 60/60/60 86/86/86 59/59/59
f 86/86/86 87/87/87 59/59/59
f 59/59/59 87/87/87 58/58/58
f 87/87/87 88/88/88 58/58/58
f 58/58/58 88/88/88 56/56/56
f 88/88/88 89/89/89 56/56/56
f 56/56/56 89/89/89 57/57/57
f 89/89/89 90/90/90 57/57/57
