g Plane001
v -0.04508865 -0.0465662 0
v -0.3993288 -0.0232831 0
v -0.04508865 -0.0232831 0
v -0.3993288 -0.0465662 0
v -0.3993288 0 0
v -0.04508865 0 0
v -0.3993288 0.0232831 0
v -0.04508865 0.0232831 0
v -0.3993288 0.0465662 0
v -0.04508865 0.0465662 0
v -0.0002924919 -0.0465662 0
v -0.0002924919 -0.0232831 0
v -0.4450837 -0.0232831 0
v -0.4450837 -0.0465662 0
v -0.0002924919 0 0
v -0.4450837 0 0
v -0.0002924919 0.0232831 0
v -0.4450837 0.0232831 0
v -0.0002924919 0.0465662 0
v -0.4450837 0.0465662 0
vt 0.9591666 0
vt 0.04083335 0.25
vt 0.9591666 0.25
vt 0.04083332 0
vt 0.04083335 0.5
vt 0.9591666 0.5
vt 0.04083335 0.75
vt 0.9591666 0.75
vt 0.04083335 1
vt 0.9591666 1
vt 1 0
vt 1 0.25
vt 0 0.25
vt 0 0
vt 1 0.5
vt 0 0.5
vt 1 0.75
vt 0 0.75
vt 1 1
vt 0 1
vn 0 0 1
vn 0 0 1
vn 0 0 1
vn 0 0 1
vn 0 0 1
vn 0 0 1
vn 0 0 1
vn 0 0 1
vn 0 0 1
vn 0 0 1
vn 0 0 1
vn 0 0 1
vn 0 0 1
vn 0 0 1
vn 0 0 1
vn 0 0 1
vn 0 0 1
vn 0 0 1
vn 0 0 1
vn 0 0 1
g Plane001_0
f 3/3/3 2/2/2 1/1/1
f 4/4/4 1/1/1 2/2/2
f 2/2/2 3/3/3 5/5/5
f 6/6/6 5/5/5 3/3/3
f 5/5/5 6/6/6 7/7/7
f 8/8/8 7/7/7 6/6/6
f 7/7/7 8/8/8 9/9/9
f 10/10/10 9/9/9 8/8/8
f 1/1/1 11/11/11 3/3/3
f 12/12/12 3/3/3 11/11/11
f 3/3/3 12/12/12 6/6/6
f 2/2/2 13/13/13 4/4/4
f 14/14/14 4/4/4 13/13/13
f 15/15/15 6/6/6 12/12/12
f 6/6/6 15/15/15 8/8/8
f 13/13/13 2/2/2 16/16/16
f 5/5/5 16/16/16 2/2/2
f 17/17/17 8/8/8 15/15/15
f 8/8/8 17/17/17 10/10/10
f 16/16/16 5/5/5 18/18/18
f 7/7/7 18/18/18 5/5/5
f 19/19/19 10/10/10 17/17/17
f 18/18/18 7/7/7 20/20/20
f 9/9/9 20/20/20 7/7/7
