g 对象002
v 0.6719576 0.01674775 0.4057507
v 0.6742443 0.07303347 0.3958749
v 0.4344793 -0.02373113 0.00404871
v 0.43047 -0.006648259 0.003926258
v 0.6697105 0.1279228 0.3847122
v 0.4291216 0.009925818 0.00053442
v 0.6621626 0.1805665 0.3705855
v 0.4267545 0.02691173 -0.004077186
v 0.6518045 0.2307741 0.3539601
v 0.4232892 0.04441464 -0.009976578
v 0.6388435 0.2784475 0.3352835
v 0.4186427 0.06244651 -0.01721352
v 0.6234766 0.3235615 0.3149707
v 0.4127424 0.08094759 -0.02580571
v 0.6058808 0.3661393 0.2933995
v 0.4055349 0.0998088 -0.03573354
v 0.5862114 0.4062324 0.2709115
v 0.3969899 0.1188929 -0.04694098
v 0.5646002 0.4439041 0.2478175
v 0.3870995 0.1380512 -0.05934121
v 0.541159 0.4792171 0.2244037
v 0.3758762 0.1571354 -0.07282332
v 0.5159834 0.5122248 0.2009399
v 0.3633486 0.1760064 -0.08725945
v 0.4891558 0.5429661 0.1776857
v 0.3495586 0.1945397 -0.1025118
v 0.4607515 0.5714617 0.1548975
v 0.3345555 0.2126292 -0.118439
v 0.4308419 0.597711 0.132833
v 0.3183915 0.2301896 -0.1349017
v 0.3995017 0.6216908 0.1117572
v 0.3011167 0.2471587 -0.1517671
v 0.3668143 0.6433528 0.09194527
v 0.2827716 0.2634993 -0.1689131
v 0.3328808 0.6626217 0.07368627
v 0.2633795 0.279201 -0.1862313
v 0.2978306 0.6793931 0.05728436
v 0.2429353 0.2942826 -0.2036281
v 0.2618348 0.6935321 0.04305765
v 0.2213921 0.3087933 -0.2210245
v 0.225123 0.7048727 0.031333
v 0.1986445 0.3228137 -0.2383497
v 0.1880022 0.7132198 0.02243405
v 0.1745098 0.3364534 -0.2555299
v 0.1508764 0.7183553 0.0166598
v 0.1487084 0.3498444 -0.2724665
v 0.1142587 0.7200516 0.01425009
v 0.1208513 0.3631292 -0.2890021
v 0.07877191 0.7180924 0.01533876
v 0.09044006 0.3764385 -0.3048729
v 0.04511839 0.7123021 0.01989605
v 0.05689628 0.389862 -0.3196517
v 0.01401416 0.7025816 0.02767495
v 0.01962839 0.4034134 -0.332694
v -0.0247805 0.6960332 0.03243704
v -0.01416423 0.4097463 -0.3381382
v -0.07240456 0.6927543 0.03228799
v -0.04137985 0.4078756 -0.3382259
v -0.1190746 0.6863455 0.03202701
v -0.06811009 0.4042169 -0.338385
v -0.1646431 0.6769236 0.03169093
v -0.09433825 0.3988219 -0.3386002
v -0.2089731 0.6646116 0.03131676
v -0.120038 0.3917362 -0.3388568
v -0.2519366 0.6495355 0.03094161
v -0.1451724 0.383002 -0.3391397
v -0.2934157 0.6318229 0.03060246
v -0.1696959 0.3726601 -0.339434
v -0.3333002 0.6116014 0.03033606
v -0.193555 0.3607518 -0.3397244
v -0.3714864 0.5889962 0.03017899
v -0.2166891 0.3473195 -0.3399954
v -0.4078754 0.5641315 0.03016762
v -0.239033 0.3324085 -0.3402317
v -0.4423721 0.5371279 0.0303383
v -0.2605182 0.3160658 -0.3404173
v -0.4748827 0.5081044 0.03072714
v -0.2810744 0.2983412 -0.3405365
v -0.5053138 0.4771785 0.03137036
v -0.3006307 0.2792856 -0.3405735
v -0.5335715 0.4444668 0.03230421
v -0.3191173 0.2589509 -0.3405124
v -0.5595607 0.4100861 0.03356479
v -0.3364654 0.2373884 -0.3403376
v -0.5831838 0.3741558 0.03518827
v -0.3526084 0.2146476 -0.340033
v -0.6043419 0.3367982 0.03721054
v -0.3674816 0.1907745 -0.3395827
v -0.6229337 0.2981404 0.03966722
v -0.3810219 0.1658102 -0.3389703
v -0.6388575 0.258316 0.04259297
v -0.3931673 0.1397896 -0.3381784
v -0.6520116 0.2174665 0.0460214
v -0.4038555 0.1127402 -0.3371886
v -0.662296 0.1757412 0.0499846
v -0.4130222 0.08468037 -0.3359811
v -0.6696149 0.1332989 0.05451226
v -0.4205998 0.05562001 -0.3345335
v -0.6738774 0.09030738 0.05963124
v -0.4265146 0.02556027 -0.3328207
v -0.6750012 0.04694197 0.06536502
v -0.4306854 -0.00550648 -0.3308141
v -0.6740268 0.006848333 0.07080946
v -0.4319551 -0.03998671 -0.3274451
v -0.6718605 -0.02890236 0.07638995
v -0.4297107 -0.0768721 -0.3216821
v -0.6674396 -0.06440897 0.0833756
v -0.4252121 -0.1125895 -0.3146237
v -0.6607907 -0.09960741 0.09165758
v -0.4185748 -0.1470646 -0.3064357
v -0.6519411 -0.1344282 0.1011225
v -0.4099138 -0.1802284 -0.2972794
v -0.6409187 -0.1687982 0.1116525
v -0.3993429 -0.2120142 -0.2873118
v -0.6277518 -0.2026444 0.1231254
v -0.3869758 -0.2423566 -0.2766855
v -0.6124691 -0.2358942 0.1354153
v -0.3729261 -0.2711896 -0.265549
v -0.5950972 -0.2684768 0.1483922
v -0.3573094 -0.2984444 -0.2540476
v -0.5756601 -0.3003245 0.1619234
v -0.3402435 -0.3240501 -0.2423229
v -0.5541772 -0.3313731 0.1758723
v -0.3218508 -0.3479327 -0.2305132
v -0.5306624 -0.36156 0.1900987
v -0.3022598 -0.3700143 -0.218753
v -0.5051216 -0.3908267 0.2044579
v -0.2816065 -0.3902158 -0.2071725
v -0.4775521 -0.4191155 0.2187994
v -0.2600356 -0.4084558 -0.1958956
v -0.4479409 -0.4463687 0.2329648
v -0.2377026 -0.4246527 -0.1850391
v -0.4162634 -0.4725277 0.246786
v -0.2147733 -0.4387265 -0.1747092
v -0.3824847 -0.4975296 0.260081
v -0.1914256 -0.450601 -0.164999
v -0.3465589 -0.5213051 0.2726508
v -0.1678468 -0.4602066 -0.1559841
v -0.3084328 -0.5437743 0.2842741
v -0.1442324 -0.4674843 -0.1477179
v -0.2680506 -0.5648435 0.2947019
v -0.1207798 -0.4723893 -0.1402261
v -0.225363 -0.5844003 0.3036529
v -0.09768105 -0.4748943 -0.1335023
v -0.1803372 -0.6023115 0.3108085
v -0.07511026 -0.4749943 -0.1275025
v -0.1329749 -0.6184195 0.3158109
v -0.05320871 -0.4727077 -0.1221438
v -0.08332904 -0.6325436 0.3182648
v -0.03206488 -0.4680762 -0.1173055
v -0.03152565 -0.6444829 0.3177439
v -0.01169483 -0.461162 -0.1128361
v 0.01495422 -0.6501945 0.3159807
v 0.01593688 -0.4558464 -0.1101963
v 0.05136463 -0.6480134 0.3171397
v 0.05405484 -0.4535535 -0.1089789
v 0.08756493 -0.6434582 0.3194844
v 0.090937 -0.4488555 -0.1065641
v 0.1234958 -0.6365533 0.3229151
v 0.1264867 -0.4418827 -0.1031052
v 0.1590909 -0.6273223 0.3273285
v 0.1606155 -0.4327667 -0.09875216
v 0.1942786 -0.6157879 0.3326172
v 0.1932402 -0.4216395 -0.09365059
v 0.2289834 -0.6019728 0.3386692
v 0.2242815 -0.4086333 -0.08794146
v 0.2631275 -0.5858986 0.3453672
v 0.2536609 -0.3938807 -0.08176085
v 0.2966337 -0.5675861 0.3525891
v 0.2813017 -0.3775165 -0.07523952
v 0.3294241 -0.547053 0.3602071
v 0.3071258 -0.3596777 -0.06850281
v 0.3614222 -0.5243133 0.3680873
v 0.331055 -0.3405053 -0.06167009
v 0.3925516 -0.4993753 0.3760893
v 0.3530104 -0.3201453 -0.05485392
v 0.4227358 -0.4722417 0.3840647
v 0.3729137 -0.29875 -0.04815903
v 0.4518965 -0.4429082 0.3918556
v 0.3906881 -0.2764786 -0.04168058
v 0.4799516 -0.4113634 0.3992927
v 0.4062604 -0.2534973 -0.03550243
v 0.5068129 -0.37759 0.4061925
v 0.4195635 -0.2299786 -0.02969427
v 0.5323834 -0.3415662 0.4123549
v 0.4305394 -0.206099 -0.02430899
v 0.5565538 -0.3032698 0.4175597
v 0.4391425 -0.1820353 -0.01937933
v 0.579199 -0.2626839 0.4215637
v 0.4453427 -0.1579591 -0.01491554
v 0.600175 -0.2198053 0.424099
v 0.449129 -0.1340286 -0.0109026
v 0.6193168 -0.1746556 0.4248715
v 0.4505109 -0.1103776 -0.007299614
v 0.6364381 -0.1272922 0.4235629
v 0.4495199 -0.08710294 -0.00404129
v 0.6513327 -0.07782454 0.419835
v 0.446207 -0.06425036 -0.001042652
v 0.6637791 -0.02642542 0.4133389
v 0.4406383 -0.0418011 0.001792259
v 0.6755841 0.02681365 0.4024634
v 0.4308558 -0.02000207 0.005833492
vt 0 1
vt 0.01 1
vt 0 0
vt 0.01 0
vt 0.02 1
vt 0.02 0
vt 0.03 1
vt 0.03 0
vt 0.04 1
vt 0.04 0
vt 0.05 1
vt 0.05 0
vt 0.05999999 1
vt 0.05999999 0
vt 0.06999999 1
vt 0.06999999 0
vt 0.07999999 1
vt 0.07999999 0
vt 0.08999999 1
vt 0.08999999 0
vt 0.09999999 1
vt 0.09999999 0
vt 0.11 1
vt 0.11 0
vt 0.12 1
vt 0.12 0
vt 0.13 1
vt 0.13 0
vt 0.14 1
vt 0.14 0
vt 0.15 1
vt 0.15 0
vt 0.16 1
vt 0.16 0
vt 0.17 1
vt 0.17 0
vt 0.18 1
vt 0.18 0
vt 0.19 1
vt 0.19 0
vt 0.2 1
vt 0.2 0
vt 0.21 1
vt 0.21 0
vt 0.22 1
vt 0.22 0
vt 0.23 1
vt 0.23 0
vt 0.24 1
vt 0.24 0
vt 0.25 1
vt 0.25 0
vt 0.26 1
vt 0.26 0
vt 0.27 1
vt 0.27 0
vt 0.28 1
vt 0.28 0
vt 0.29 1
vt 0.29 0
vt 0.3 1
vt 0.3 0
vt 0.31 1
vt 0.31 0
vt 0.32 1
vt 0.32 0
vt 0.33 1
vt 0.33 0
vt 0.3399999 1
vt 0.3399999 0
vt 0.3499999 1
vt 0.3499999 0
vt 0.3599999 1
vt 0.3599999 0
vt 0.3699999 1
vt 0.3699999 0
vt 0.3799999 1
vt 0.3799999 0
vt 0.3899999 1
vt 0.3899999 0
vt 0.3999999 1
vt 0.3999999 0
vt 0.4099999 1
vt 0.4099999 0
vt 0.4199999 1
vt 0.4199999 0
vt 0.4299999 1
vt 0.4299999 0
vt 0.4399998 1
vt 0.4399998 0
vt 0.4499998 1
vt 0.4499998 0
vt 0.4599998 1
vt 0.4599998 0
vt 0.4699998 1
vt 0.4699998 0
vt 0.4799998 1
vt 0.4799998 0
vt 0.4899998 1
vt 0.4899998 0
vt 0.4999998 1
vt 0.4999998 0
vt 0.5099998 1
vt 0.5099998 0
vt 0.5199998 1
vt 0.5199998 0
vt 0.5299998 1
vt 0.5299998 0
vt 0.5399998 1
vt 0.5399998 0
vt 0.5499998 1
vt 0.5499998 0
vt 0.5599998 1
vt 0.5599998 0
vt 0.5699998 1
vt 0.5699998 0
vt 0.5799997 1
vt 0.5799997 0
vt 0.5899997 1
vt 0.5899997 0
vt 0.5999997 1
vt 0.5999997 0
vt 0.6099997 1
vt 0.6099997 0
vt 0.6199997 1
vt 0.6199997 0
vt 0.6299997 1
vt 0.6299997 0
vt 0.6399997 1
vt 0.6399997 0
vt 0.6499997 1
vt 0.6499997 0
vt 0.6599997 1
vt 0.6599997 0
vt 0.6699997 1
vt 0.6699997 0
vt 0.6799996 1
vt 0.6799996 0
vt 0.6899996 1
vt 0.6899996 0
vt 0.6999996 1
vt 0.6999996 0
vt 0.7099996 1
vt 0.7099996 0
vt 0.7199996 1
vt 0.7199996 0
vt 0.7299996 1
vt 0.7299996 0
vt 0.7399996 1
vt 0.7399996 0
vt 0.7499996 1
vt 0.7499996 0
vt 0.7599996 1
vt 0.7599996 0
vt 0.7699996 1
vt 0.7699996 0
vt 0.7799996 1
vt 0.7799996 0
vt 0.7899995 1
vt 0.7899995 0
vt 0.7999995 1
vt 0.7999995 0
vt 0.8099995 1
vt 0.8099995 0
vt 0.8199995 1
vt 0.8199995 0
vt 0.8299995 1
vt 0.8299995 0
vt 0.8399995 1
vt 0.8399995 0
vt 0.8499995 1
vt 0.8499995 0
vt 0.8599995 1
vt 0.8599995 0
vt 0.8699995 1
vt 0.8699995 0
vt 0.8799995 1
vt 0.8799995 0
vt 0.8899994 1
vt 0.8899994 0
vt 0.8999994 1
vt 0.8999994 0
vt 0.9099994 1
vt 0.9099994 0
vt 0.9199994 1
vt 0.9199994 0
vt 0.9299994 1
vt 0.9299994 0
vt 0.9399994 1
vt 0.9399994 0
vt 0.9499994 1
vt 0.9499994 0
vt 0.9599994 1
vt 0.9599994 0
vt 0.9699994 1
vt 0.9699994 0
vt 0.9799994 1
vt 0.9799994 0
vt 0.9899994 1
vt 0.9899994 0
vt 0.9999993 1
vt 0.9999993 0
vn 0.8597341 -0.1219519 -0.4959687
vn 0.8565189 -0.07525495 -0.5105998
vn 0.8226485 0.1648928 -0.5441139
vn 0.8398144 0.07560206 -0.5375836
vn 0.8509826 -0.0276537 -0.5244653
vn 0.8514662 -0.03055282 -0.5235187
vn 0.8485508 -0.01039222 -0.5290117
vn 0.8499507 -0.0165961 -0.5266007
vn 0.8448309 0.008323371 -0.5349687
vn 0.8478447 -0.002105679 -0.5302404
vn 0.8396782 0.02836372 -0.5423431
vn 0.8451253 0.01307484 -0.5344084
vn 0.8329499 0.04964374 -0.5511171
vn 0.8417464 0.02907908 -0.5390893
vn 0.8244922 0.07212498 -0.5612581
vn 0.8376548 0.04600429 -0.5442591
vn 0.814124 0.09581842 -0.5727312
vn 0.8327923 0.06393376 -0.5498813
vn 0.8016214 0.1207829 -0.5855038
vn 0.8270994 0.0829495 -0.555901
vn 0.7867048 0.1471118 -0.5995444
vn 0.8205088 0.1031467 -0.5622509
vn 0.7690169 0.1749345 -0.614826
vn 0.8129457 0.124637 -0.5688453
vn 0.7481083 0.2044011 -0.6313115
vn 0.8043265 0.1475494 -0.5755763
vn 0.7234134 0.2356759 -0.6489452
vn 0.7945467 0.1720431 -0.5823201
vn 0.694227 0.2689222 -0.6676299
vn 0.7834831 0.1982999 -0.5889238
vn 0.6596798 0.3042799 -0.6871946
vn 0.7709818 0.2265279 -0.5952075
vn 0.618704 0.3418424 -0.7073537
vn 0.7568429 0.2569649 -0.6009641
vn 0.5700148 0.3816091 -0.7276384
vn 0.7408006 0.2898739 -0.60596
vn 0.512094 0.4234245 -0.7473094
vn 0.7224888 0.3255413 -0.6099449
vn 0.4432062 0.466887 -0.7652351
vn 0.7014009 0.3642606 -0.6126589
vn 0.3614742 0.5112229 -0.7797356
vn 0.6768386 0.4063092 -0.6138424
vn 0.2650596 0.5551232 -0.7884044
vn 0.6478729 0.4519045 -0.6132234
vn 0.152533 0.5965563 -0.7879431
vn 0.6133589 0.5011316 -0.6104572
vn 0.02351028 0.632616 -0.7741087
vn 0.5720373 0.5538476 -0.605001
vn -0.1203931 0.6595454 -0.7419605
vn 0.5227801 0.6095658 -0.5959283
vn -0.2744119 0.6731859 -0.6866724
vn 0.4649941 0.6673449 -0.5817483
vn -0.267836 0.7182089 -0.6422148
vn 0.3351499 0.7385569 -0.5849856
vn -0.1184507 0.7745607 -0.6213092
vn 0.09406202 0.7891514 -0.6069533
vn -0.0783833 0.7871365 -0.611778
vn -0.07804669 0.78719 -0.6117519
vn -0.1300721 0.780049 -0.6120496
vn -0.1292023 0.7802458 -0.611983
vn -0.1813243 0.7694857 -0.6123833
vn -0.1796334 0.7699859 -0.6122528
vn -0.2318827 0.7555129 -0.612724
vn -0.2290898 0.7565417 -0.6125051
vn -0.2815232 0.7382136 -0.6130135
vn -0.277359 0.7400625 -0.6126821
vn -0.3300549 0.7176772 -0.6131909
vn -0.3242739 0.7207041 -0.612725
vn -0.3773273 0.6939868 -0.6131936
vn -0.3697239 0.6986104 -0.6125746
vn -0.423209 0.6672177 -0.6129557
vn -0.4136151 0.673922 -0.6121697
vn -0.4675891 0.6374295 -0.6124085
vn -0.4558832 0.6467625 -0.611448
vn -0.5103682 0.6046638 -0.6114784
vn -0.4964884 0.6172343 -0.610345
vn -0.5514443 0.5689482 -0.6100878
vn -0.5353943 0.5854267 -0.6087928
vn -0.5907118 0.5302924 -0.6081526
vn -0.5725709 0.5514101 -0.6067202
vn -0.6280489 0.4886975 -0.6055818
vn -0.6079836 0.5152456 -0.6040513
vn -0.6633134 0.4441602 -0.6022766
vn -0.6415941 0.4769809 -0.6007048
vn -0.696336 0.3966828 -0.5981296
vn -0.6733522 0.436661 -0.5965936
vn -0.7269201 0.3462781 -0.593025
vn -0.7031959 0.3943304 -0.591624
vn -0.7548386 0.292986 -0.5868373
vn -0.7310511 0.3500361 -0.5856953
vn -0.7798349 0.2368854 -0.5794332
vn -0.7568272 0.3038385 -0.5787009
vn -0.801631 0.1781025 -0.5706726
vn -0.7804229 0.2558104 -0.570527
vn -0.8199332 0.1168306 -0.5604108
vn -0.8017239 0.2060502 -0.5610544
vn -0.8344477 0.05332946 -0.5485007
vn -0.820609 0.1546812 -0.5501586
vn -0.8448951 -0.01205999 -0.5347962
vn -0.8369535 0.1018602 -0.5377113
vn -0.8510721 -0.06644495 -0.5208275
vn -0.8507089 0.02808481 -0.5248863
vn -0.8537892 -0.1088322 -0.5091166
vn -0.8560057 -0.07492006 -0.5115088
vn -0.8512207 -0.1663582 -0.4977431
vn -0.8511013 -0.167263 -0.4976442
vn -0.8425076 -0.2363149 -0.4840828
vn -0.842 -0.2388832 -0.4837052
vn -0.8299472 -0.3024212 -0.4687527
vn -0.8286087 -0.3074885 -0.4678233
vn -0.8139997 -0.3644626 -0.4522958
vn -0.8112226 -0.3728133 -0.4504753
vn -0.7951015 -0.4223892 -0.4352021
vn -0.7901204 -0.4347349 -0.4321059
vn -0.7736481 -0.4762619 -0.4179034
vn -0.7655373 -0.4932415 -0.4131168
vn -0.7499771 -0.5262291 -0.4007708
vn -0.7376416 -0.5484132 -0.3938628
vn -0.7243634 -0.5724942 -0.3841197
vn -0.7065228 -0.600383 -0.3746544
vn -0.6970288 -0.6152732 -0.368225
vn -0.6721837 -0.6493055 -0.3557687
vn -0.6681433 -0.654785 -0.3533286
vn -0.6345333 -0.6953334 -0.3374594
vn -0.6378374 -0.6912306 -0.3396524
vn -0.5933862 -0.7385869 -0.3199721
vn -0.6062154 -0.7247798 -0.3274097
vn -0.5484595 -0.7791297 -0.3035606
vn -0.5733607 -0.7555712 -0.3168118
vn -0.4993675 -0.816945 -0.2885013
vn -0.5393568 -0.7836976 -0.3080785
vn -0.4456315 -0.8518936 -0.2751181
vn -0.5043051 -0.8092012 -0.3014461
vn -0.3866898 -0.883673 -0.2638048
vn -0.4683371 -0.8320764 -0.2971686
vn -0.3219228 -0.9117648 -0.2550506
vn -0.4316354 -0.8522673 -0.2955185
vn -0.2507099 -0.9353669 -0.2494661
vn -0.3944626 -0.869665 -0.2967862
vn -0.172539 -0.9533208 -0.2478099
vn -0.3571831 -0.8841136 -0.3012694
vn -0.08718096 -0.9640537 -0.250998
vn -0.3202904 -0.8954177 -0.309259
vn 0.005004531 -0.965571 -0.2600915
vn -0.2844347 -0.9033532 -0.321014
vn 0.1026669 -0.9555921 -0.2762305
vn -0.2504388 -0.907687 -0.3367265
vn 0.2030316 -0.9319242 -0.3004919
vn -0.2193008 -0.9082018 -0.3564784
vn 0.3016022 -0.8931358 -0.3336832
vn -0.1612934 -0.910318 -0.3811897
vn 0.2804294 -0.8816489 -0.3795453
vn -0.02287688 -0.9135582 -0.4060643
vn 0.1393642 -0.9010961 -0.4106134
vn 0.1038294 -0.9050813 -0.4123682
vn 0.1047615 -0.9049646 -0.4123885
vn 0.1749725 -0.896122 -0.4078603
vn 0.1777194 -0.895592 -0.4078367
vn 0.2431882 -0.8829432 -0.4015854
vn 0.2487546 -0.8814866 -0.4013757
vn 0.308064 -0.865949 -0.3939911
vn 0.3174379 -0.8628336 -0.3933846
vn 0.3693485 -0.8455529 -0.3855154
vn 0.3834605 -0.8398269 -0.3842509
vn 0.4269188 -0.8221521 -0.3765717
vn 0.4466287 -0.8126373 -0.3743575
vn 0.4807437 -0.7961133 -0.3675446
vn 0.5068212 -0.7813958 -0.3640781
vn 0.5308619 -0.7677615 -0.3587866
vn 0.5639728 -0.7461753 -0.3537756
vn 0.5773587 -0.7373758 -0.3506194
vn 0.6180545 -0.7069716 -0.3438019
vn 0.6203344 -0.7051966 -0.3433407
vn 0.6690269 -0.6637065 -0.3345095
vn 0.659885 -0.6714367 -0.3372307
vn 0.716815 -0.616223 -0.3262598
vn 0.6960891 -0.6362899 -0.3325582
vn 0.7612716 -0.5642921 -0.3194369
vn 0.7290019 -0.5999417 -0.3295846
vn 0.8021423 -0.5076243 -0.3144605
vn 0.7586395 -0.5625911 -0.3285688
vn 0.8390208 -0.4458972 -0.3118008
vn 0.7849758 -0.5244668 -0.329769
vn 0.8713036 -0.3788017 -0.3119924
vn 0.8079427 -0.4858455 -0.3334406
vn 0.8981441 -0.3061176 -0.3156409
vn 0.8274302 -0.447073 -0.3398308
vn 0.9184172 -0.2278347 -0.3234211
vn 0.8432903 -0.408587 -0.3491679
vn 0.9307188 -0.1443246 -0.3360547
vn 0.8553484 -0.3709339 -0.3616452
vn 0.9334339 -0.0565655 -0.3542618
vn 0.8634177 -0.3347838 -0.3773987
vn 0.9249189 0.03360775 -0.3786758
vn 0.8673195 -0.300934 -0.3964791
vn 0.903834 0.1233113 -0.4097297
vn 0.8669085 -0.2702953 -0.4188199
vn 0.8695956 0.2086151 -0.44753
vn 0.8578197 -0.2637165 -0.4411336
vn 0.8067886 0.3266985 -0.4923011
vn 0.8519992 -0.2583669 -0.4553505
vn 0.7452151 0.4290567 -0.5104554
g 对象002_0
f 3/3/3 2/2/2 1/1/1
f 2/2/2 3/3/3 4/4/4
f 4/4/4 5/5/5 2/2/2
f 5/5/5 4/4/4 6/6/6
f 6/6/6 7/7/7 5/5/5
f 7/7/7 6/6/6 8/8/8
f 8/8/8 9/9/9 7/7/7
f 9/9/9 8/8/8 10/10/10
f 10/10/10 11/11/11 9/9/9
f 11/11/11 10/10/10 12/12/12
f 12/12/12 13/13/13 11/11/11
f 13/13/13 12/12/12 14/14/14
f 14/14/14 15/15/15 13/13/13
f 15/15/15 14/14/14 16/16/16
f 16/16/16 17/17/17 15/15/15
f 17/17/17 16/16/16 18/18/18
f 18/18/18 19/19/19 17/17/17
f 19/19/19 18/18/18 20/20/20
f 20/20/20 21/21/21 19/19/19
f 21/21/21 20/20/20 22/22/22
f 22/22/22 23/23/23 21/21/21
f 23/23/23 22/22/22 24/24/24
f 24/24/24 25/25/25 23/23/23
f 25/25/25 24/24/24 26/26/26
f 26/26/26 27/27/27 25/25/25
f 27/27/27 26/26/26 28/28/28
f 28/28/28 29/29/29 27/27/27
f 29/29/29 28/28/28 30/30/30
f 30/30/30 31/31/31 29/29/29
f 31/31/31 30/30/30 32/32/32
f 32/32/32 33/33/33 31/31/31
f 33/33/33 32/32/32 34/34/34
f 34/34/34 35/35/35 33/33/33
f 35/35/35 34/34/34 36/36/36
f 36/36/36 37/37/37 35/35/35
f 37/37/37 36/36/36 38/38/38
f 38/38/38 39/39/39 37/37/37
f 39/39/39 38/38/38 40/40/40
f 40/40/40 41/41/41 39/39/39
f 41/41/41 40/40/40 42/42/42
f 42/42/42 43/43/43 41/41/41
f 43/43/43 42/42/42 44/44/44
f 44/44/44 45/45/45 43/43/43
f 45/45/45 44/44/44 46/46/46
f 46/46/46 47/47/47 45/45/45
f 47/47/47 46/46/46 48/48/48
f 48/48/48 49/49/49 47/47/47
f 49/49/49 48/48/48 50/50/50
f 50/50/50 51/51/51 49/49/49
f 51/51/51 50/50/50 52/52/52
f 52/52/52 53/53/53 51/51/51
f 53/53/53 52/52/52 54/54/54
f 54/54/54 55/55/55 53/53/53
f 55/55/55 54/54/54 56/56/56
f 56/56/56 57/57/57 55/55/55
f 57/57/57 56/56/56 58/58/58
f 58/58/58 59/59/59 57/57/57
f 59/59/59 58/58/58 60/60/60
f 60/60/60 61/61/61 59/59/59
f 61/61/61 60/60/60 62/62/62
f 62/62/62 63/63/63 61/61/61
f 63/63/63 62/62/62 64/64/64
f 64/64/64 65/65/65 63/63/63
f 65/65/65 64/64/64 66/66/66
f 66/66/66 67/67/67 65/65/65
f 67/67/67 66/66/66 68/68/68
f 68/68/68 69/69/69 67/67/67
f 69/69/69 68/68/68 70/70/70
f 70/70/70 71/71/71 69/69/69
f 71/71/71 70/70/70 72/72/72
f 72/72/72 73/73/73 71/71/71
f 73/73/73 72/72/72 74/74/74
f 74/74/74 75/75/75 73/73/73
f 75/75/75 74/74/74 76/76/76
f 76/76/76 77/77/77 75/75/75
f 77/77/77 76/76/76 78/78/78
f 78/78/78 79/79/79 77/77/77
f 79/79/79 78/78/78 80/80/80
f 80/80/80 81/81/81 79/79/79
f 81/81/81 80/80/80 82/82/82
f 82/82/82 83/83/83 81/81/81
f 83/83/83 82/82/82 84/84/84
f 84/84/84 85/85/85 83/83/83
f 85/85/85 84/84/84 86/86/86
f 86/86/86 87/87/87 85/85/85
f 87/87/87 86/86/86 88/88/88
f 88/88/88 89/89/89 87/87/87
f 89/89/89 88/88/88 90/90/90
f 90/90/90 91/91/91 89/89/89
f 91/91/91 90/90/90 92/92/92
f 92/92/92 93/93/93 91/91/91
f 93/93/93 92/92/92 94/94/94
f 94/94/94 95/95/95 93/93/93
f 95/95/95 94/94/94 96/96/96
f 96/96/96 97/97/97 95/95/95
f 97/97/97 96/96/96 98/98/98
f 98/98/98 99/99/99 97/97/97
f 99/99/99 98/98/98 100/100/100
f 100/100/100 101/101/101 99/99/99
f 101/101/101 100/100/100 102/102/102
f 102/102/102 103/103/103 101/101/101
f 103/103/103 102/102/102 104/104/104
f 104/104/104 105/105/105 103/103/103
f 105/105/105 104/104/104 106/106/106
f 106/106/106 107/107/107 105/105/105
f 107/107/107 106/106/106 108/108/108
f 108/108/108 109/109/109 107/107/107
f 109/109/109 108/108/108 110/110/110
f 110/110/110 111/111/111 109/109/109
f 111/111/111 110/110/110 112/112/112
f 112/112/112 113/113/113 111/111/111
f 113/113/113 112/112/112 114/114/114
f 114/114/114 115/115/115 113/113/113
f 115/115/115 114/114/114 116/116/116
f 116/116/116 117/117/117 115/115/115
f 117/117/117 116/116/116 118/118/118
f 118/118/118 119/119/119 117/117/117
f 119/119/119 118/118/118 120/120/120
f 120/120/120 121/121/121 119/119/119
f 121/121/121 120/120/120 122/122/122
f 122/122/122 123/123/123 121/121/121
f 123/123/123 122/122/122 124/124/124
f 124/124/124 125/125/125 123/123/123
f 125/125/125 124/124/124 126/126/126
f 126/126/126 127/127/127 125/125/125
f 127/127/127 126/126/126 128/128/128
f 128/128/128 129/129/129 127/127/127
f 129/129/129 128/128/128 130/130/130
f 130/130/130 131/131/131 129/129/129
f 131/131/131 130/130/130 132/132/132
f 132/132/132 133/133/133 131/131/131
f 133/133/133 132/132/132 134/134/134
f 134/134/134 135/135/135 133/133/133
f 135/135/135 134/134/134 136/136/136
f 136/136/136 137/137/137 135/135/135
f 137/137/137 136/136/136 138/138/138
f 138/138/138 139/139/139 137/137/137
f 139/139/139 138/138/138 140/140/140
f 140/140/140 141/141/141 139/139/139
f 141/141/141 140/140/140 142/142/142
f 142/142/142 143/143/143 141/141/141
f 143/143/143 142/142/142 144/144/144
f 144/144/144 145/145/145 143/143/143
f 145/145/145 144/144/144 146/146/146
f 146/146/146 147/147/147 145/145/145
f 147/147/147 146/146/146 148/148/148
f 148/148/148 149/149/149 147/147/147
f 149/149/149 148/148/148 150/150/150
f 150/150/150 151/151/151 149/149/149
f 151/151/151 150/150/150 152/152/152
f 152/152/152 153/153/153 151/151/151
f 153/153/153 152/152/152 154/154/154
f 154/154/154 155/155/155 153/153/153
f 155/155/155 154/154/154 156/156/156
f 156/156/156 157/157/157 155/155/155
f 157/157/157 156/156/156 158/158/158
f 158/158/158 159/159/159 157/157/157
f 159/159/159 158/158/158 160/160/160
f 160/160/160 161/161/161 159/159/159
f 161/161/161 160/160/160 162/162/162
f 162/162/162 163/163/163 161/161/161
f 163/163/163 162/162/162 164/164/164
f 164/164/164 165/165/165 163/163/163
f 165/165/165 164/164/164 166/166/166
f 166/166/166 167/167/167 165/165/165
f 167/167/167 166/166/166 168/168/168
f 168/168/168 169/169/169 167/167/167
f 169/169/169 168/168/168 170/170/170
f 170/170/170 171/171/171 169/169/169
f 171/171/171 170/170/170 172/172/172
f 172/172/172 173/173/173 171/171/171
f 173/173/173 172/172/172 174/174/174
f 174/174/174 175/175/175 173/173/173
f 175/175/175 174/174/174 176/176/176
f 176/176/176 177/177/177 175/175/175
f 177/177/177 176/176/176 178/178/178
f 178/178/178 179/179/179 177/177/177
f 179/179/179 178/178/178 180/180/180
f 180/180/180 181/181/181 179/179/179
f 181/181/181 180/180/180 182/182/182
f 182/182/182 183/183/183 181/181/181
f 183/183/183 182/182/182 184/184/184
f 184/184/184 185/185/185 183/183/183
f 185/185/185 184/184/184 186/186/186
f 186/186/186 187/187/187 185/185/185
f 187/187/187 186/186/186 188/188/188
f 188/188/188 189/189/189 187/187/187
f 189/189/189 188/188/188 190/190/190
f 190/190/190 191/191/191 189/189/189
f 191/191/191 190/190/190 192/192/192
f 192/192/192 193/193/193 191/191/191
f 193/193/193 192/192/192 194/194/194
f 194/194/194 195/195/195 193/193/193
f 195/195/195 194/194/194 196/196/196
f 196/196/196 197/197/197 195/195/195
f 197/197/197 196/196/196 198/198/198
f 198/198/198 199/199/199 197/197/197
f 199/199/199 198/198/198 200/200/200
f 200/200/200 201/201/201 199/199/199
f 201/201/201 200/200/200 202/202/202
