g S_Bag_zipper_01
v -0.003431873 0.002150078 -0.03435852
v -0.004924159 0.002076454 -0.02866074
v -0.01219544 0.001982841 -0.02912918
v -0.008987057 0.002436867 -0.05395447
v 0.01803352 0.0023769 -0.02700607
v 0.01768538 0.002426338 -0.03283691
v -0.002942371 0.002452431 -0.04774627
v 0.01936311 0.002744408 -0.04614151
v 0.02654421 0.002902031 -0.05139557
v 0.01768538 0.002426338 -0.03283691
v 0.02529404 0.002473564 -0.02643036
v 0.02529404 0.002473564 -0.02643036
v 0.01519412 0.002100029 0.02298859
v 0.01539664 0.002054024 0.02926727
v 0.02348491 0.001935692 0.05409973
v 0.01589996 0.001897163 0.04800095
v -0.02676728 0.001277885 0.05048614
v -0.01808893 0.00145237 0.04555755
v -0.01389982 0.00167057 0.02715973
v -0.01219544 0.001982841 -0.02912918
v -0.01246197 0.001738014 0.0209996
v -0.004518738 0.0006181717 -0.02882049
v 0.01781118 0.0009104538 -0.02721695
v 0.01513617 0.0006370926 0.02294464
v -0.0122507 0.0002786636 0.02097321
v -0.01246197 0.001738014 0.0209996
v 0.01519412 0.002100029 0.02298859
v 0.01539664 0.002054024 0.02926727
v -0.01389982 0.00167057 0.02715973
v -0.01219544 0.001982841 -0.02912918
v -0.01194007 -0.00220356 -0.0294043
v -0.008763981 -0.001736183 -0.05409973
v -0.008987057 0.002436867 -0.05395447
v 0.02676728 -0.001271171 -0.05154419
v 0.02654421 0.002902031 -0.05139557
v -0.008987057 0.002436867 -0.05395447
v -0.008763981 -0.001736183 -0.05409973
v 0.01936311 0.002744408 -0.04614151
v 0.01891552 -0.001425667 -0.04624267
v -0.002068429 -0.001700325 -0.04775299
v -0.002942371 0.002452431 -0.04774627
v 0.02551228 -0.001713295 -0.02671082
v 0.02529404 0.002473564 -0.02643036
v 0.02654421 0.002902031 -0.05139557
v 0.02676728 -0.001271171 -0.05154419
v 0.02368906 -0.002244606 0.05399948
v 0.02348491 0.001935692 0.05409973
v -0.003145718 -0.002038307 -0.0344574
v -0.003431873 0.002150078 -0.03435852
v -0.002942371 0.002452431 -0.04774627
v -0.002068429 -0.001700325 -0.04775299
v 0.01768538 0.002426338 -0.03283691
v 0.01783822 -0.001763649 -0.03294708
v 0.01891552 -0.001425667 -0.04624267
v 0.01936311 0.002744408 -0.04614151
v -0.003145718 -0.002038307 -0.0344574
v 0.01783822 -0.001763649 -0.03294708
v 0.01768538 0.002426338 -0.03283691
v -0.003431873 0.002150078 -0.03435852
v -0.02676728 0.001277885 0.05048614
v -0.0265336 -0.002902031 0.05038528
v -0.01194007 -0.00220356 -0.0294043
v -0.01219544 0.001982841 -0.02912918
v 0.01535078 -0.00213871 0.02902374
v -0.01339069 -0.002514915 0.02695419
v -0.01389982 0.00167057 0.02715973
v 0.01539664 0.002054024 0.02926727
v -0.01339069 -0.002514915 0.02695419
v -0.01773921 -0.002735481 0.04519562
v -0.01808893 0.00145237 0.04555755
v -0.01389982 0.00167057 0.02715973
v 0.016042 -0.002293358 0.04762863
v 0.01535078 -0.00213871 0.02902374
v 0.01539664 0.002054024 0.02926727
v 0.01589996 0.001897163 0.04800095
v 0.02348491 0.001935692 0.05409973
v 0.02368906 -0.002244606 0.05399948
v -0.0265336 -0.002902031 0.05038528
v -0.02676728 0.001277885 0.05048614
v -0.01773921 -0.002735481 0.04519562
v 0.016042 -0.002293358 0.04762863
v 0.01589996 0.001897163 0.04800095
v -0.01808893 0.00145237 0.04555755
v -0.008763981 -0.001736183 -0.05409973
v -0.003145718 -0.002038307 -0.0344574
v -0.002068429 -0.001700325 -0.04775299
v 0.01891552 -0.001425667 -0.04624267
v 0.02676728 -0.001271171 -0.05154419
v 0.01783822 -0.001763649 -0.03294708
v -0.004504347 -0.002107582 -0.02870956
v 0.01804513 -0.001812477 -0.02708694
v 0.01535078 -0.00213871 0.02902374
v -0.01339069 -0.002514915 0.02695419
v -0.01194007 -0.00220356 -0.0294043
v 0.02551228 -0.001713295 -0.02671082
v 0.02368906 -0.002244606 0.05399948
v 0.016042 -0.002293358 0.04762863
v -0.0265336 -0.002902031 0.05038528
v -0.01773921 -0.002735481 0.04519562
v 0.01803352 0.0023769 -0.02700607
v 0.01781118 0.0009104538 -0.02721695
v -0.004518738 0.0006181717 -0.02882049
v -0.004924159 0.002076454 -0.02866074
v -0.0122507 0.0002786636 0.02097321
v -0.01246197 0.001738014 0.0209996
v -0.004924159 0.002076454 -0.02866074
v -0.004518738 0.0006181717 -0.02882049
v 0.01519412 0.002100029 0.02298859
v 0.01513617 0.0006370926 0.02294464
v 0.01781118 0.0009104538 -0.02721695
v 0.01803352 0.0023769 -0.02700607
v 0.01513617 0.0006370926 0.02294464
v 0.01519412 0.002100029 0.02298859
v -0.01246197 0.001738014 0.0209996
v -0.0122507 0.0002786636 0.02097321
vt 0.2113106 0.3877362
vt 0.2116003 0.3890361
vt 0.2133062 0.3890544
vt 0.2129128 0.3828393
vt 0.2057652 0.3890714
vt 0.2059939 0.3877451
vt 0.2113996 0.3841408
vt 0.2059042 0.3840944
vt 0.2043459 0.3827416
vt 0.2059939 0.3877451
vt 0.2040522 0.3890256
vt 0.2040522 0.3890256
vt 0.2055962 0.4008339
vt 0.2054557 0.402301
vt 0.203214 0.4084586
vt 0.2050455 0.4072185
vt 0.2150415 0.4084705
vt 0.213138 0.4072158
vt 0.2125608 0.4023991
vt 0.2133062 0.3890544
vt 0.2123591 0.4009367
vt 0.2113104 0.3892085
vt 0.2060475 0.3892535
vt 0.2058604 0.4006346
vt 0.212085 0.4007525
vt 0.2123591 0.4009367
vt 0.2055962 0.4008339
vt 0.2054557 0.402301
vt 0.2125608 0.4023991
vt 0.2133062 0.3890544
vt 0.2142694 0.3889097
vt 0.2138753 0.382754
vt 0.2129128 0.3828393
vt 0.2043471 0.3817715
vt 0.2043459 0.3827416
vt 0.2129128 0.3828393
vt 0.2129052 0.3818747
vt 0.2059042 0.3840944
vt 0.2065034 0.3846873
vt 0.2107742 0.3846397
vt 0.2113996 0.3841408
vt 0.2030852 0.3889157
vt 0.2040522 0.3890256
vt 0.2043459 0.3827416
vt 0.2033794 0.3826877
vt 0.2022467 0.4083901
vt 0.203214 0.4084586
vt 0.2106762 0.3872162
vt 0.2113106 0.3877362
vt 0.2113996 0.3841408
vt 0.2107742 0.3846397
vt 0.2059939 0.3877451
vt 0.2066333 0.3871163
vt 0.2065034 0.3846873
vt 0.2059042 0.3840944
vt 0.2106762 0.3872162
vt 0.2066333 0.3871163
vt 0.2059939 0.3877451
vt 0.2113106 0.3877362
vt 0.2150415 0.4084705
vt 0.2160043 0.4083585
vt 0.2142694 0.3889097
vt 0.2133062 0.3890544
vt 0.2060593 0.4029671
vt 0.211938 0.4029941
vt 0.2125608 0.4023991
vt 0.2054557 0.402301
vt 0.211938 0.4029941
vt 0.21255 0.4066473
vt 0.213138 0.4072158
vt 0.2125608 0.4023991
vt 0.205606 0.4065816
vt 0.2060593 0.4029671
vt 0.2054557 0.402301
vt 0.2050455 0.4072185
vt 0.203214 0.4084586
vt 0.2031915 0.4094334
vt 0.2149906 0.4094334
vt 0.2150415 0.4084705
vt 0.21255 0.4066473
vt 0.205606 0.4065816
vt 0.2050455 0.4072185
vt 0.213138 0.4072158
vt 0.2125459 0.4338606
vt 0.2109215 0.4294166
vt 0.2108941 0.432506
vt 0.2060245 0.432506
vt 0.204299 0.4338611
vt 0.2060548 0.4294166
vt 0.2111396 0.4280665
vt 0.20591 0.4280665
vt 0.2055713 0.4150629
vt 0.2123017 0.4150633
vt 0.2128648 0.4281034
vt 0.2041829 0.4281038
vt 0.2031915 0.4094334
vt 0.2050879 0.4107776
vt 0.2149906 0.4094334
vt 0.2130203 0.4107781
vt 0.2057652 0.3890714
vt 0.2060475 0.3892535
vt 0.2113104 0.3892085
vt 0.2116003 0.3890361
vt 0.212085 0.4007525
vt 0.2123591 0.4009367
vt 0.2116003 0.3890361
vt 0.2113104 0.3892085
vt 0.2055962 0.4008339
vt 0.2058604 0.4006346
vt 0.2060475 0.3892535
vt 0.2057652 0.3890714
vt 0.2058604 0.4006346
vt 0.2055962 0.4008339
vt 0.2123591 0.4009367
vt 0.212085 0.4007525
vn -0.01025714 0.9998189 0.01603449
vn -0.009653173 0.9998286 0.01580119
vn -0.009653175 0.9998286 0.01580119
vn -0.01398714 0.9998123 0.01340904
vn -0.01375393 0.9998622 0.00930145
vn -0.01375392 0.9998622 0.00930145
vn -0.01602185 0.9997858 0.01310309
vn -0.01209878 0.9998362 0.01346113
vn -0.01410499 0.9998103 0.01343743
vn -0.01822106 0.9997166 0.0153158
vn -0.01880426 0.9997111 0.01496638
vn -0.01190415 0.999916 0.005145214
vn -0.005264565 0.9999645 0.006586384
vn -0.005190931 0.9999644 0.006666601
vn -0.00997285 0.999911 0.008865691
vn -0.013495 0.999854 0.01048611
vn -0.01743542 0.9998149 0.00813527
vn -0.01418778 0.9998451 0.01040944
vn -0.02198509 0.9997461 0.0049392
vn -0.0149142 0.9998771 0.004824795
vn -0.0218949 0.9997484 0.004876151
vn -0.01342735 0.9998987 0.004730767
vn -0.01342735 0.9998987 0.004730767
vn -0.01342735 0.9998987 0.004730767
vn -0.01342735 0.9998987 0.004730767
vn -0.01364628 0.9998767 0.007766563
vn -0.01364628 0.9998767 0.007766565
vn -0.01364628 0.9998767 0.007766563
vn -0.01364628 0.9998767 0.007766565
vn -0.9904208 -0.05021797 -0.1286259
vn -0.9904208 -0.05021797 -0.1286259
vn -0.9904208 -0.05021797 -0.1286259
vn -0.9904208 -0.05021797 -0.1286259
vn 0.07122511 0.03890279 -0.9967013
vn 0.07122511 0.0389028 -0.9967013
vn 0.07122511 0.0389028 -0.9967013
vn 0.07122511 0.0389028 -0.9967013
vn -0.0715522 -0.01659209 0.9972989
vn -0.07155221 -0.01659209 0.9972989
vn -0.0715522 -0.01659209 0.9972989
vn -0.07155219 -0.01659209 0.9972989
vn 0.9974421 0.05003041 0.05105159
vn 0.9974421 0.05003041 0.05105159
vn 0.9974421 0.05003042 0.05105159
vn 0.9974421 0.05003042 0.05105159
vn 0.99852 0.04936665 0.02282153
vn 0.99852 0.04936664 0.02282153
vn 0.9887071 0.1367338 0.0613368
vn 0.9887071 0.1367338 0.0613368
vn 0.9887071 0.1367337 0.06133679
vn 0.9887071 0.1367337 0.06133679
vn -0.9940693 0.03762849 -0.1020305
vn -0.9940693 0.03762849 -0.1020305
vn -0.9940693 0.03762848 -0.1020305
vn -0.9940693 0.03762849 -0.1020305
vn 0.07142679 0.02861891 -0.9970353
vn 0.0714268 0.02861891 -0.9970353
vn 0.07142679 0.02861891 -0.9970353
vn 0.07142679 0.02861891 -0.9970353
vn -0.9823956 -0.04932856 -0.1801819
vn -0.9823956 -0.04932856 -0.1801819
vn -0.9823956 -0.04932855 -0.1801819
vn -0.9823956 -0.04932856 -0.1801819
vn -0.07092402 -0.05729582 0.9958348
vn -0.07092403 -0.05729582 0.9958348
vn -0.07092403 -0.05729583 0.9958348
vn -0.07092401 -0.05729582 0.9958348
vn 0.9702343 0.08412554 0.2270864
vn 0.9702343 0.08412556 0.2270864
vn 0.9702343 0.08412554 0.2270864
vn 0.9702343 0.08412556 0.2270864
vn -0.999397 -0.01380667 0.03185832
vn -0.999397 -0.01380667 0.03185832
vn -0.999397 -0.01380667 0.03185832
vn -0.999397 -0.01380667 0.03185832
vn -0.07136224 -0.02772258 0.9970651
vn -0.07136223 -0.02772258 0.9970651
vn -0.07136224 -0.02772257 0.9970651
vn -0.07136224 -0.02772258 0.9970651
vn 0.07028546 0.0911797 -0.993351
vn 0.07028546 0.09117969 -0.993351
vn 0.07028546 0.09117969 -0.993351
vn 0.07028545 0.09117969 -0.993351
vn 0.01444543 -0.9998148 -0.0127205
vn 0.01037869 -0.999809 -0.01656627
vn 0.01657266 -0.9997925 -0.01184614
vn 0.01136891 -0.9998596 -0.01231569
vn 0.0135375 -0.9998259 -0.01284834
vn 0.01372026 -0.9998671 -0.008813341
vn 0.01372026 -0.9998671 -0.008813341
vn 0.01372026 -0.9998671 -0.008813342
vn 0.01345888 -0.999896 -0.005168526
vn 0.01929938 -0.9997981 -0.005604515
vn 0.01442874 -0.9998821 -0.00525702
vn 0.01247958 -0.9999073 -0.005464531
vn 0.00942496 -0.9999284 -0.0073875
vn 0.0100309 -0.999921 -0.007589858
vn 0.01777557 -0.9998206 -0.006545103
vn 0.0172295 -0.9998281 -0.006852006
vn -0.06945236 -0.1296864 0.9891198
vn -0.06945235 -0.1296864 0.9891198
vn -0.06945237 -0.1296864 0.9891198
vn -0.06945237 -0.1296864 0.9891198
vn 0.9691883 0.195278 0.1501347
vn 0.9691883 0.195278 0.1501347
vn 0.9691883 0.195278 0.1501347
vn 0.9691883 0.195278 0.1501347
vn -0.9935359 0.09977018 -0.05415331
vn -0.9935359 0.09977017 -0.0541533
vn -0.9935359 0.09977019 -0.05415332
vn -0.9935359 0.09977018 -0.0541533
vn 0.07137938 0.02774475 -0.9970632
vn 0.07137939 0.02774475 -0.9970632
vn 0.07137938 0.02774474 -0.9970632
vn 0.07137939 0.02774475 -0.9970632
g S_Bag_zipper_01_0
f 3/3/3 2/2/2 1/1/1
f 4/4/4 3/3/3 1/1/1
f 2/2/2 5/5/5 1/1/1
f 5/5/5 6/6/6 1/1/1
f 7/7/7 4/4/4 1/1/1
f 7/7/7 8/8/8 4/4/4
f 8/8/8 9/9/9 4/4/4
f 8/8/8 10/10/10 9/9/9
f 10/10/10 5/5/5 9/9/9
f 5/5/5 11/11/11 9/9/9
f 5/5/5 13/13/13 12/12/12
f 13/13/13 14/14/14 12/12/12
f 14/14/14 15/15/15 12/12/12
f 14/14/14 16/16/16 15/15/15
f 17/17/17 15/15/15 16/16/16
f 18/18/18 17/17/17 16/16/16
f 17/17/17 18/18/18 19/19/19
f 20/20/20 17/17/17 19/19/19
f 21/21/21 20/20/20 19/19/19
f 21/21/21 2/2/2 20/20/20
f 24/24/24 23/23/23 22/22/22
f 25/25/25 24/24/24 22/22/22
f 28/28/28 27/27/27 26/26/26
f 29/29/29 28/28/28 26/26/26
f 32/32/32 31/31/31 30/30/30
f 33/33/33 32/32/32 30/30/30
f 36/36/36 35/35/35 34/34/34
f 37/37/37 36/36/36 34/34/34
f 40/40/40 39/39/39 38/38/38
f 41/41/41 40/40/40 38/38/38
f 44/44/44 43/43/43 42/42/42
f 45/45/45 44/44/44 42/42/42
f 42/42/42 43/43/43 46/46/46
f 43/43/43 47/47/47 46/46/46
f 50/50/50 49/49/49 48/48/48
f 51/51/51 50/50/50 48/48/48
f 54/54/54 53/53/53 52/52/52
f 55/55/55 54/54/54 52/52/52
f 58/58/58 57/57/57 56/56/56
f 59/59/59 58/58/58 56/56/56
f 62/62/62 61/61/61 60/60/60
f 63/63/63 62/62/62 60/60/60
f 66/66/66 65/65/65 64/64/64
f 67/67/67 66/66/66 64/64/64
f 70/70/70 69/69/69 68/68/68
f 71/71/71 70/70/70 68/68/68
f 74/74/74 73/73/73 72/72/72
f 75/75/75 74/74/74 72/72/72
f 78/78/78 77/77/77 76/76/76
f 79/79/79 78/78/78 76/76/76
f 82/82/82 81/81/81 80/80/80
f 83/83/83 82/82/82 80/80/80
f 86/86/86 85/85/85 84/84/84
f 86/86/86 84/84/84 87/87/87
f 84/84/84 88/88/88 87/87/87
f 87/87/87 88/88/88 89/89/89
f 85/85/85 89/89/89 90/90/90
f 85/85/85 90/90/90 84/84/84
f 89/89/89 91/91/91 90/90/90
f 91/91/91 92/92/92 90/90/90
f 92/92/92 93/93/93 90/90/90
f 90/90/90 93/93/93 94/94/94
f 90/90/90 94/94/94 84/84/84
f 95/95/95 91/91/91 89/89/89
f 88/88/88 95/95/95 89/89/89
f 91/91/91 95/95/95 92/92/92
f 95/95/95 96/96/96 92/92/92
f 96/96/96 97/97/97 92/92/92
f 97/97/97 96/96/96 98/98/98
f 99/99/99 97/97/97 98/98/98
f 99/99/99 98/98/98 94/94/94
f 93/93/93 99/99/99 94/94/94
f 102/102/102 101/101/101 100/100/100
f 103/103/103 102/102/102 100/100/100
f 106/106/106 105/105/105 104/104/104
f 107/107/107 106/106/106 104/104/104
f 110/110/110 109/109/109 108/108/108
f 111/111/111 110/110/110 108/108/108
f 114/114/114 113/113/113 112/112/112
f 115/115/115 114/114/114 112/112/112
