g S_Bag_metal_11
v -0.2985788 0.8750638 0.2411487
v -0.295882 0.8732922 0.2342189
v -0.2943971 0.8806755 0.2329092
v -0.297094 0.882447 0.239839
v -0.29239 0.8742819 0.2437571
v -0.2909052 0.8816652 0.2424474
v -0.2903683 0.8749644 0.2430812
v -0.2893372 0.8800918 0.2421716
v -0.2899006 0.8740641 0.2446485
v -0.2884627 0.8812146 0.2433802
v -0.249552 0.8680522 0.2655708
v -0.2475104 0.8782047 0.2637699
v -0.2384869 0.8660098 0.2640921
v -0.2366125 0.875332 0.2624385
v -0.2320947 0.8613254 0.2476381
v -0.2300397 0.8715435 0.2458256
v -0.2389587 0.861055 0.2370035
v -0.2369922 0.8708336 0.2352692
v -0.2473437 0.8646269 0.2348276
v -0.2462299 0.8701671 0.2338449
v -0.2567019 0.8681051 0.2405756
v -0.2558041 0.8725693 0.2397836
v -0.2647204 0.872998 0.236969
v -0.2652936 0.870148 0.2374745
v -0.2670676 0.8711139 0.2409085
v -0.2664945 0.8739638 0.240403
v -0.2893372 0.8800918 0.2421716
v -0.2874644 0.8788616 0.2373592
v -0.2858509 0.8794989 0.2366691
v -0.2884627 0.8812146 0.2433802
v -0.2884955 0.8737342 0.2382687
v -0.2872888 0.8723485 0.2379374
v -0.2899006 0.8740641 0.2446485
v -0.2903683 0.8749644 0.2430812
v -0.2909052 0.8816652 0.2424474
v -0.2882083 0.8798936 0.2355177
v -0.2896931 0.8725104 0.2368273
v -0.29239 0.8742819 0.2437571
v -0.2943971 0.8806755 0.2329092
v -0.297094 0.882447 0.239839
v -0.295882 0.8732922 0.2342189
v -0.2985788 0.8750638 0.2411487
v -0.2438507 0.875801 0.254367
v -0.2475104 0.8782047 0.2637699
v -0.249552 0.8680522 0.2655708
v -0.2458929 0.8656485 0.2561679
v -0.2397577 0.8741083 0.2519736
v -0.2366125 0.875332 0.2624385
v -0.2384869 0.8660098 0.2640921
v -0.2416327 0.8647861 0.2536272
v -0.2379877 0.8731006 0.2466376
v -0.2300397 0.8715435 0.2458256
v -0.2320947 0.8613254 0.2476381
v -0.2399725 0.8632283 0.2483887
v -0.240636 0.8728514 0.2425136
v -0.2369922 0.8708336 0.2352692
v -0.2389587 0.861055 0.2370035
v -0.2426025 0.8630728 0.244248
v -0.2473437 0.8646269 0.2348276
v -0.2485162 0.8659683 0.2410605
v -0.2574814 0.8692081 0.2459102
v -0.2567019 0.8681051 0.2405756
v -0.2565835 0.8736723 0.2451182
v -0.2474017 0.8715085 0.2400778
v -0.2558041 0.8725693 0.2397836
v -0.2462299 0.8701671 0.2338449
v -0.2652936 0.870148 0.2374745
v -0.2670676 0.8711139 0.2409085
v -0.2664945 0.8739638 0.240403
v -0.2647204 0.872998 0.236969
vt 0.18492 0.3821321
vt 0.1849548 0.3799878
vt 0.1828104 0.3799532
vt 0.1827757 0.3820974
vt 0.184879 0.3846616
vt 0.1827348 0.3846269
vt 0.1845409 0.3853095
vt 0.1830518 0.3852855
vt 0.1848263 0.3858312
vt 0.1827497 0.3857976
vt 0.1849851 0.4029599
vt 0.1820366 0.4029121
vt 0.1847999 0.4069574
vt 0.1820925 0.4069136
vt 0.1848471 0.4120809
vt 0.1818795 0.412033
vt 0.1847124 0.4164589
vt 0.1818724 0.416413
vt 0.1840422 0.4198275
vt 0.1824332 0.4198014
vt 0.1838272 0.4234594
vt 0.1825307 0.4234385
vt 0.1827086 0.4269257
vt 0.1835364 0.426939
vt 0.1835182 0.4280612
vt 0.1826906 0.4280478
vt 0.175473 0.4597853
vt 0.1737913 0.4597068
vt 0.1738075 0.4602756
vt 0.1757749 0.4602313
vt 0.1719162 0.4597689
vt 0.1718532 0.4602697
vt 0.1698747 0.4600654
vt 0.1702444 0.4596128
vt 0.1759157 0.4591743
vt 0.1738538 0.4590667
vt 0.1719022 0.4590626
vt 0.1698959 0.4590464
vt 0.1739416 0.4565032
vt 0.1761139 0.4565836
vt 0.171851 0.4565043
vt 0.1697484 0.4565202
vt 0.1740116 0.4774678
vt 0.1767535 0.4762597
vt 0.16825 0.4761249
vt 0.1709457 0.4774321
vt 0.1741071 0.4792754
vt 0.1774604 0.4784321
vt 0.1674646 0.4782825
vt 0.1707736 0.479275
vt 0.1741098 0.4811084
vt 0.1766641 0.4816484
vt 0.1681333 0.4815336
vt 0.1707109 0.4811041
vt 0.1737767 0.4829635
vt 0.1756528 0.484083
vt 0.1690518 0.4839603
vt 0.1709759 0.4828994
vt 0.1699036 0.4861899
vt 0.1714509 0.4857765
vt 0.1716633 0.488838
vt 0.1703541 0.4889242
vt 0.1727487 0.4889419
vt 0.1731794 0.4857914
vt 0.1740443 0.4891192
vt 0.1747086 0.4862947
vt 0.1704483 0.4926107
vt 0.1715575 0.4927882
vt 0.1724167 0.492853
vt 0.1735377 0.4927988
vn -0.8481572 0.06018342 0.5263147
vn -0.7637877 -0.4278172 -0.4833227
vn -0.2585507 0.4492235 -0.85519
vn -0.3364207 0.9288057 0.1553736
vn -0.2904044 -0.3183956 0.9023799
vn 0.388513 0.8130399 0.4336173
vn -0.3128058 -0.2563757 0.9145621
vn 0.3348209 0.8372856 0.4322588
vn -0.4572425 -0.08534325 0.8852377
vn 0.1466109 0.8222016 0.5499907
vn -0.3733411 -0.2064769 0.9044245
vn 0.2020259 0.7342836 0.6480843
vn 0.7283921 -0.3440568 0.5925115
vn 0.8978094 -0.004167371 0.4403644
vn 0.8095856 -0.5742158 -0.1218502
vn 0.9501978 -0.2372654 -0.2020629
vn 0.3794276 -0.5124223 -0.7703623
vn 0.4248139 -0.09624785 -0.9001496
vn -0.4809692 -0.3782724 -0.7909353
vn -0.4086014 0.00884606 -0.91267
vn -0.9861559 -0.1294913 -0.1035789
vn -0.03152641 0.1710773 -0.9847531
vn -0.1263825 0.01428348 -0.9918787
vn -0.8246707 -0.4668858 0.3192741
vn -0.5888121 0.1673861 0.7907479
vn -0.1422343 0.9503903 -0.2766361
vn 0.3348209 0.8372856 0.4322588
vn 0.4301104 0.2483042 -0.8679574
vn 0.3167241 0.1865035 -0.9300012
vn 0.1466109 0.8222016 0.5499907
vn -0.2115132 -0.8756229 -0.4342198
vn -0.2893907 -0.7180951 -0.6329235
vn -0.4572425 -0.08534325 0.8852377
vn -0.3128058 -0.2563757 0.9145621
vn 0.388513 0.8130399 0.4336173
vn 0.4618094 0.1973329 -0.8647496
vn -0.2157699 -0.909526 -0.3552546
vn -0.2904044 -0.3183956 0.9023799
vn -0.2585507 0.4492235 -0.85519
vn -0.3364207 0.9288057 0.1553736
vn -0.7637877 -0.4278172 -0.4833227
vn -0.8481572 0.06018342 0.5263147
vn 0.2943383 0.2752285 -0.9152126
vn 0.2020259 0.7342836 0.6480843
vn -0.3733411 -0.2064769 0.9044245
vn -0.3852555 -0.7983578 -0.4628207
vn -0.3057202 0.7463223 -0.5912175
vn 0.8978094 -0.004167371 0.4403644
vn 0.7283921 -0.3440568 0.5925115
vn -0.9392202 -0.2551323 0.2297234
vn -0.4820405 0.848338 -0.2189967
vn 0.9501978 -0.2372654 -0.2020629
vn 0.8095856 -0.5742158 -0.1218502
vn -0.5833956 -0.1339519 0.8010659
vn -0.5047669 0.8172929 0.2779258
vn 0.4248139 -0.09624785 -0.9001496
vn 0.3794276 -0.5124223 -0.7703623
vn -0.151399 -0.1972864 0.9685847
vn -0.4809692 -0.3782724 -0.7909353
vn -0.1133606 -0.1024545 0.9882573
vn 0.2169646 -0.01496305 0.9760647
vn -0.9861559 -0.1294913 -0.1035789
vn 0.7693828 0.4728459 0.4294959
vn 0.2767973 0.6298907 0.7256865
vn -0.03152641 0.1710773 -0.9847531
vn -0.4086014 0.00884606 -0.91267
vn -0.8246707 -0.4668858 0.3192741
vn -0.5888121 0.1673861 0.7907479
vn -0.1422343 0.9503903 -0.2766361
vn -0.1263825 0.01428348 -0.9918787
g S_Bag_metal_11_0
f 3/3/3 2/2/2 1/1/1
f 4/4/4 3/3/3 1/1/1
f 4/4/4 1/1/1 5/5/5
f 6/6/6 4/4/4 5/5/5
f 6/6/6 5/5/5 7/7/7
f 8/8/8 6/6/6 7/7/7
f 8/8/8 7/7/7 9/9/9
f 10/10/10 8/8/8 9/9/9
f 9/9/9 11/11/11 10/10/10
f 11/11/11 12/12/12 10/10/10
f 11/11/11 13/13/13 12/12/12
f 13/13/13 14/14/14 12/12/12
f 13/13/13 15/15/15 14/14/14
f 15/15/15 16/16/16 14/14/14
f 15/15/15 17/17/17 16/16/16
f 17/17/17 18/18/18 16/16/16
f 17/17/17 19/19/19 18/18/18
f 19/19/19 20/20/20 18/18/18
f 19/19/19 21/21/21 20/20/20
f 21/21/21 22/22/22 20/20/20
f 22/22/22 21/21/21 23/23/23
f 21/21/21 24/24/24 23/23/23
f 24/24/24 25/25/25 23/23/23
f 25/25/25 26/26/26 23/23/23
f 29/29/29 28/28/28 27/27/27
f 30/30/30 29/29/29 27/27/27
f 31/31/31 28/28/28 29/29/29
f 32/32/32 31/31/31 29/29/29
f 31/31/31 32/32/32 33/33/33
f 34/34/34 31/31/31 33/33/33
f 27/27/27 28/28/28 35/35/35
f 28/28/28 36/36/36 35/35/35
f 37/37/37 36/36/36 28/28/28
f 31/31/31 37/37/37 28/28/28
f 37/37/37 31/31/31 34/34/34
f 38/38/38 37/37/37 34/34/34
f 36/36/36 39/39/39 35/35/35
f 39/39/39 40/40/40 35/35/35
f 41/41/41 39/39/39 36/36/36
f 37/37/37 41/41/41 36/36/36
f 37/37/37 38/38/38 41/41/41
f 38/38/38 42/42/42 41/41/41
f 29/29/29 30/30/30 43/43/43
f 29/29/29 43/43/43 32/32/32
f 30/30/30 44/44/44 43/43/43
f 33/33/33 32/32/32 45/45/45
f 32/32/32 46/46/46 45/45/45
f 43/43/43 46/46/46 32/32/32
f 47/47/47 43/43/43 44/44/44
f 43/43/43 47/47/47 46/46/46
f 48/48/48 47/47/47 44/44/44
f 45/45/45 46/46/46 49/49/49
f 46/46/46 50/50/50 49/49/49
f 47/47/47 50/50/50 46/46/46
f 51/51/51 47/47/47 48/48/48
f 47/47/47 51/51/51 50/50/50
f 52/52/52 51/51/51 48/48/48
f 49/49/49 50/50/50 53/53/53
f 50/50/50 54/54/54 53/53/53
f 51/51/51 54/54/54 50/50/50
f 55/55/55 51/51/51 52/52/52
f 51/51/51 55/55/55 54/54/54
f 56/56/56 55/55/55 52/52/52
f 53/53/53 54/54/54 57/57/57
f 54/54/54 58/58/58 57/57/57
f 55/55/55 58/58/58 54/54/54
f 57/57/57 58/58/58 59/59/59
f 58/58/58 60/60/60 59/59/59
f 59/59/59 60/60/60 61/61/61
f 62/62/62 59/59/59 61/61/61
f 63/63/63 61/61/61 60/60/60
f 64/64/64 63/63/63 60/60/60
f 64/64/64 55/55/55 56/56/56
f 64/64/64 60/60/60 58/58/58
f 55/55/55 64/64/64 58/58/58
f 65/65/65 63/63/63 64/64/64
f 66/66/66 65/65/65 64/64/64
f 66/66/66 64/64/64 56/56/56
f 62/62/62 61/61/61 67/67/67
f 61/61/61 68/68/68 67/67/67
f 61/61/61 63/63/63 68/68/68
f 63/63/63 65/65/65 69/69/69
f 63/63/63 69/69/69 68/68/68
f 65/65/65 70/70/70 69/69/69
