g S_Bag_zipper_02
v -0.00370697 0.01091671 -0.02083939
v -0.00347034 0.002089729 -0.02096847
v 0.005790615 0.002326469 -0.02018387
v 0.005553985 0.01115345 -0.02005447
v -0.00482954 0.007062492 -0.006428375
v -0.004285851 0.001926231 -0.01129501
v -0.00347034 0.002089729 -0.02096847
v -0.00370697 0.01091671 -0.02083939
v -0.007040777 0.01024845 0.01870621
v -0.006177425 0.006792335 0.009560394
v -0.006078706 0.003108788 0.009506683
v -0.006845255 0.002955131 0.01859939
v 0.002220173 0.01048519 0.01949112
v 0.00241569 0.003191948 0.01938431
v -0.006845255 0.002955131 0.01859939
v -0.007040777 0.01024845 0.01870621
v 0.003083525 0.007029152 0.010345
v 0.002220173 0.01048519 0.01949112
v 0.005553985 0.01115345 -0.02005447
v 0.004431414 0.007299309 -0.005643463
v 0.00241569 0.003191948 0.01938431
v 0.003182249 0.003345604 0.01029129
v 0.004975104 0.002163048 -0.0105101
v 0.005790615 0.002326469 -0.02018387
v -0.007040777 0.01024845 0.01870621
v -0.00370697 0.01091671 -0.02083939
v 0.005553985 0.01115345 -0.02005447
v 0.002220173 0.01048519 0.01949112
v 0.004431414 0.007299309 -0.005643463
v 0.004975104 0.002163048 -0.0105101
v -0.004285851 0.001926231 -0.01129501
v -0.00482954 0.007062492 -0.006428375
v -0.006078706 0.003108788 0.009506683
v 0.003182249 0.003345604 0.01029129
v 0.003083525 0.007029152 0.010345
v -0.006177425 0.006792335 0.009560394
v -0.002868543 -0.01079273 -0.02192276
v -0.003132186 -0.0009972 -0.02176834
v -0.004579911 -0.001289329 -0.004547882
v -0.004301214 -0.01115345 -0.004859161
v 0.004135699 -0.001066475 -0.003809357
v 0.005591345 -0.0007741928 -0.0210292
v 0.005854764 -0.01056973 -0.02118362
v 0.004414177 -0.01093067 -0.004120636
v -0.002868543 -0.01079273 -0.02192276
v 0.005854764 -0.01056973 -0.02118362
v 0.005591345 -0.0007741928 -0.0210292
v -0.003132186 -0.0009972 -0.02176834
v -0.0177065 -0.001711006 0.0002201843
v -0.01985116 -0.001777306 0.0008399963
v -0.01973658 -0.005316811 0.0006874084
v -0.01783649 -0.005242576 4.40979E-05
v 0.004267425 0.002079811 -0.01809128
v -0.00246767 0.001907616 -0.01866196
v -0.003213353 0.001932487 -0.02172592
v 0.005515432 0.002155647 -0.02098618
v 0.003992739 0.009909783 -0.01803879
v 0.002957883 0.003734474 -0.003995819
v -0.003632631 0.003565941 -0.004554291
v -0.002603354 0.009741172 -0.01859787
v -0.003657947 0.00166851 -0.004508514
v -0.01669106 0.00113842 0.007837372
v -0.02212291 0.001156654 -0.003355865
v -0.00246767 0.001907616 -0.01866196
v 0.001857781 0.001615028 0.009245148
v -0.004668622 0.001448174 0.008692169
v -0.02086984 0.001382484 -0.01648666
v -0.003213353 0.001932487 -0.02172592
v 0.003071399 0.001840553 -0.003938446
v 0.01385276 0.001919365 0.01042557
v 0.02108144 0.002261238 0.0003050232
v 0.004267425 0.002079811 -0.01809128
v 0.005515432 0.002155647 -0.02098618
v 0.02204436 0.002479668 -0.01285019
v 0.001181841 0.00146122 0.01851761
v 0.01385276 0.001919365 0.01042557
v 0.01270764 0.001720314 0.02192276
v -0.0174869 0.0009483719 0.01936417
v -0.01669106 0.00113842 0.007837372
v -0.005554542 0.001288948 0.01794663
v -0.01649149 -0.005327797 0.007625274
v -0.01669106 0.00113842 0.007837372
v -0.0174869 0.0009483719 0.01936417
v -0.01731482 -0.005517845 0.01926956
v -0.01731482 -0.005517845 0.01926956
v -0.0174869 0.0009483719 0.01936417
v -0.01457631 -0.00191021 0.01956131
v -0.01474756 -0.005438271 0.01948715
v 0.00995419 -0.001283073 0.02163986
v 0.01270764 0.001720314 0.02192276
v 0.01288225 -0.00474575 0.02182815
v 0.01031424 -0.004797554 0.02161087
v 0.01627789 -0.0008421707 0.003099823
v 0.01661464 -0.004361687 0.002963104
v 0.01838076 -0.004342231 0.003917389
v 0.01828832 -0.0008021927 0.004071808
v 0.01402007 -0.004547767 0.01021072
v 0.01385276 0.001919365 0.01042557
v 0.01828832 -0.0008021927 0.004071808
v 0.01838076 -0.004342231 0.003917389
v 0.02116001 -0.0006694412 0.0002622986
v 0.02108144 0.002261238 0.0003050232
v -0.02086984 0.001382484 -0.01648666
v -0.02212291 0.001156654 -0.003355865
v -0.02204434 -0.001774101 -0.003398895
v -0.02079129 -0.001547585 -0.01652939
v 0.005515432 0.002155647 -0.02098618
v -0.003213353 0.001932487 -0.02172592
v -0.003132186 -0.0009972 -0.02176834
v 0.005591345 -0.0007741928 -0.0210292
v -0.003213353 0.001932487 -0.02172592
v -0.02086984 0.001382484 -0.01648666
v -0.02079129 -0.001547585 -0.01652939
v -0.003132186 -0.0009972 -0.02176834
v 0.02108144 0.002261238 0.0003050232
v 0.02204436 0.002479668 -0.01285019
v 0.02212291 -0.000450325 -0.01289322
v 0.02116001 -0.0006694412 0.0002622986
v 0.02204436 0.002479668 -0.01285019
v 0.005515432 0.002155647 -0.02098618
v 0.005591345 -0.0007741928 -0.0210292
v 0.02212291 -0.000450325 -0.01289322
v -0.01985116 -0.001777306 0.0008399963
v -0.01669106 0.00113842 0.007837372
v -0.01649149 -0.005327797 0.007625274
v -0.01973658 -0.005316811 0.0006874084
v -0.02212291 0.001156654 -0.003355865
v -0.02204434 -0.001774101 -0.003398895
v 0.01288225 -0.00474575 0.02182815
v 0.01270764 0.001720314 0.02192276
v 0.01385276 0.001919365 0.01042557
v 0.01402007 -0.004547767 0.01021072
v 0.004267425 0.002079811 -0.01809128
v 0.003992739 0.009909783 -0.01803879
v -0.002603354 0.009741172 -0.01859787
v -0.00246767 0.001907616 -0.01866196
v -0.00246767 0.001907616 -0.01866196
v -0.002603354 0.009741172 -0.01859787
v -0.003632631 0.003565941 -0.004554291
v -0.003657947 0.00166851 -0.004508514
v -0.003657947 0.00166851 -0.004508514
v -0.003632631 0.003565941 -0.004554291
v 0.002957883 0.003734474 -0.003995819
v 0.003071399 0.001840553 -0.003938446
v 0.003071399 0.001840553 -0.003938446
v 0.002957883 0.003734474 -0.003995819
v 0.003992739 0.009909783 -0.01803879
v 0.004267425 0.002079811 -0.01809128
vt 0.2036409 0.4390738
vt 0.2036753 0.4376305
vt 0.202156 0.4375942
vt 0.2021215 0.4390375
vt 0.2041743 0.4414604
vt 0.2050461 0.440695
vt 0.205084 0.4391085
vt 0.2036409 0.4390738
vt 0.2034856 0.4455602
vt 0.2041115 0.444083
vt 0.2047138 0.4440975
vt 0.204678 0.4455889
vt 0.2019662 0.4455239
vt 0.2019377 0.4467165
vt 0.2034571 0.4467528
vt 0.2034856 0.4455602
vt 0.2014117 0.4440183
vt 0.2019662 0.4455239
vt 0.2021215 0.4390375
vt 0.2014745 0.4413958
vt 0.2007738 0.4454953
vt 0.2008095 0.444004
vt 0.2006403 0.4405898
vt 0.2006783 0.4390029
vt 0.2034856 0.4455602
vt 0.2036409 0.4390738
vt 0.2021215 0.4390375
vt 0.2019662 0.4455239
vt 0.2051769 0.4426027
vt 0.2060487 0.4418374
vt 0.2050461 0.440695
vt 0.2041743 0.4414604
vt 0.2008458 0.4424847
vt 0.2008095 0.444004
vt 0.2014117 0.4440183
vt 0.201448 0.4424989
vt 0.2119272 0.4373671
vt 0.2130141 0.4385749
vt 0.2144138 0.4356605
vt 0.2130141 0.4351981
vt 0.2097569 0.4358516
vt 0.2110611 0.4386972
vt 0.211919 0.4379359
vt 0.2111808 0.4354348
vt 0.2119272 0.4373671
vt 0.211919 0.4379359
vt 0.2110611 0.4386972
vt 0.2130141 0.4385749
vt 0.2163585 0.443229
vt 0.2158946 0.4432119
vt 0.2162541 0.4437352
vt 0.216477 0.4436719
vt 0.2114714 0.4396397
vt 0.212605 0.4395428
vt 0.2128016 0.4390226
vt 0.2112831 0.4391496
vt 0.211665 0.4479244
vt 0.2112237 0.4498967
vt 0.2120723 0.4500867
vt 0.2125144 0.4481145
vt 0.2126403 0.4419617
vt 0.2148784 0.4442363
vt 0.215749 0.4423275
vt 0.212605 0.4395428
vt 0.211495 0.4440997
vt 0.2126653 0.4440792
vt 0.2156402 0.4401359
vt 0.2128016 0.4390226
vt 0.2114428 0.4420011
vt 0.2092656 0.4443187
vt 0.2083324 0.4423813
vt 0.2114714 0.4396397
vt 0.2112831 0.4391496
vt 0.2084423 0.4401599
vt 0.2116201 0.4455614
vt 0.2092656 0.4443187
vt 0.2100704 0.4460275
vt 0.2141445 0.4459772
vt 0.2148784 0.4442363
vt 0.2125702 0.4455479
vt 0.2157384 0.4451551
vt 0.2148784 0.4442363
vt 0.2141445 0.4459772
vt 0.2148443 0.4464974
vt 0.2142496 0.4469179
vt 0.2141445 0.4459772
vt 0.2136739 0.4464546
vt 0.2139151 0.4470609
vt 0.2105561 0.4465089
vt 0.2100704 0.4460275
vt 0.2099825 0.4469726
vt 0.2103143 0.4471162
vt 0.2077585 0.4433077
vt 0.2076408 0.4437517
vt 0.2078646 0.4438155
vt 0.2082217 0.4432912
vt 0.2083757 0.4446584
vt 0.2092656 0.4443187
vt 0.2082217 0.4432912
vt 0.2078646 0.4438155
vt 0.2078843 0.4426265
vt 0.2083324 0.4423813
vt 0.2156402 0.4401359
vt 0.215749 0.4423275
vt 0.2162433 0.4421916
vt 0.2161047 0.4401682
vt 0.2112831 0.4391496
vt 0.2128016 0.4390226
vt 0.2130141 0.4385749
vt 0.2110611 0.4386972
vt 0.2128016 0.4390226
vt 0.2156402 0.4401359
vt 0.2158286 0.4396845
vt 0.2130141 0.4385749
vt 0.2083324 0.4423813
vt 0.2084423 0.4401599
vt 0.2079388 0.4402166
vt 0.2078723 0.4422755
vt 0.2084423 0.4401599
vt 0.2112831 0.4391496
vt 0.2110611 0.4386972
vt 0.2083193 0.439695
vt 0.2158946 0.4432119
vt 0.2148784 0.4442363
vt 0.2157574 0.4445765
vt 0.2162541 0.4437352
vt 0.215749 0.4423275
vt 0.2162063 0.4425487
vt 0.2093903 0.4465798
vt 0.2100704 0.4460275
vt 0.2092656 0.4443187
vt 0.2084395 0.4452647
vt 0.2118812 0.4469173
vt 0.211665 0.4479244
vt 0.2125144 0.4481145
vt 0.2127484 0.4471117
vt 0.21335 0.4487167
vt 0.2125144 0.4481145
vt 0.2120723 0.4500867
vt 0.2122695 0.4502394
vt 0.2120267 0.4503321
vt 0.2120723 0.4500867
vt 0.2112237 0.4498967
vt 0.2111602 0.4501379
vt 0.2109801 0.4499507
vt 0.2112237 0.4498967
vt 0.211665 0.4479244
vt 0.2106525 0.4481124
vn 0.08400274 0.01683956 -0.9963232
vn 0.08400273 0.01683956 -0.9963232
vn 0.08400273 0.01683956 -0.9963232
vn 0.08400273 0.01683956 -0.9963232
vn -0.9961057 -0.0254693 -0.0844078
vn -0.9961058 -0.02546825 -0.08440635
vn -0.9961058 -0.02546825 -0.08440635
vn -0.9961058 -0.02546849 -0.08440668
vn -0.996106 -0.02546784 -0.08440564
vn -0.9961058 -0.02546887 -0.08440717
vn -0.9961061 -0.02546669 -0.08440397
vn -0.9961061 -0.02546669 -0.08440397
vn -0.08399826 -0.01684329 0.9963236
vn -0.08399826 -0.01684329 0.9963236
vn -0.08399826 -0.01684329 0.9963236
vn -0.08399825 -0.01684329 0.9963236
vn 0.996106 0.025467 0.084405
vn 0.996106 0.02546712 0.08440561
vn 0.9961061 0.02546683 0.08440464
vn 0.9961061 0.02546689 0.08440457
vn 0.996106 0.02546725 0.08440627
vn 0.996106 0.02546725 0.08440629
vn 0.9961061 0.02546681 0.08440465
vn 0.9961061 0.02546681 0.08440465
vn -0.02679171 0.999534 0.0146295
vn -0.02679171 0.999534 0.0146295
vn -0.02679171 0.999534 0.0146295
vn -0.02679171 0.999534 0.0146295
vn -0.04364096 -0.6895726 0.7229003
vn -0.04364096 -0.6895726 0.7229003
vn -0.04364096 -0.6895726 0.7229003
vn -0.04364096 -0.6895726 0.7229003
vn 0.08398438 0.0167782 -0.9963258
vn 0.0839844 0.0167782 -0.9963258
vn 0.08398441 0.0167782 -0.9963258
vn 0.0839844 0.0167782 -0.9963258
vn -0.996125 -0.02548568 -0.08417511
vn -0.996125 -0.02548569 -0.08417512
vn -0.996125 -0.02548568 -0.08417512
vn -0.996125 -0.02548568 -0.08417512
vn 0.996087 0.02545177 0.08463448
vn 0.996087 0.02545177 0.08463445
vn 0.996087 0.02545176 0.08463448
vn 0.996087 0.02545177 0.08463448
vn 0.08395688 0.01796488 -0.9963075
vn 0.08395688 0.01796488 -0.9963075
vn 0.08395687 0.01796488 -0.9963075
vn 0.08395687 0.01796487 -0.9963075
vn -0.2992197 0.04495602 -0.9531246
vn -0.2992197 0.04495602 -0.9531246
vn -0.2992198 0.04495602 -0.9531246
vn -0.2992197 0.04495602 -0.9531246
vn -0.02679366 0.999534 0.0146263
vn -0.02679366 0.999534 0.0146263
vn -0.02679366 0.999534 0.0146263
vn -0.02679366 0.999534 0.0146263
vn -0.05716811 0.9154508 0.3983486
vn -0.05716811 0.9154508 0.3983486
vn -0.05716812 0.9154508 0.3983487
vn -0.05716811 0.9154508 0.3983486
vn -0.02679452 0.9995338 0.01463804
vn -0.02679382 0.9995338 0.01463805
vn -0.02679382 0.9995338 0.01463893
vn -0.02679347 0.9995339 0.01463426
vn -0.0267963 0.9995338 0.01463192
vn -0.02679322 0.999534 0.01462743
vn -0.0267931 0.9995339 0.01462936
vn -0.0267931 0.9995339 0.01462936
vn -0.02679574 0.9995338 0.01463277
vn -0.02679549 0.9995339 0.0146326
vn -0.0267952 0.9995338 0.01463377
vn -0.02679615 0.9995338 0.01463677
vn -0.02679714 0.9995337 0.01463991
vn -0.02679715 0.9995337 0.01463991
vn -0.026795 0.999534 0.01461906
vn -0.0267959 0.9995339 0.01462606
vn -0.02679577 0.9995339 0.01462512
vn -0.02679201 0.999534 0.01462926
vn -0.02679193 0.999534 0.01463042
vn -0.02679252 0.9995341 0.0146218
vn -0.997173 -0.02699197 -0.0701253
vn -0.997173 -0.02699198 -0.0701253
vn -0.997173 -0.02699198 -0.07012531
vn -0.997173 -0.02699198 -0.0701253
vn -0.08392099 -0.01683061 0.9963302
vn -0.08398698 -0.01682697 0.9963247
vn -0.0839868 -0.01682698 0.9963247
vn -0.083921 -0.01683061 0.9963302
vn -0.0839988 -0.01682788 0.9963238
vn -0.08399878 -0.01682785 0.9963238
vn -0.08400467 -0.01683684 0.9963231
vn -0.08400467 -0.01683684 0.9963231
vn 0.4526011 0.06419618 -0.8893993
vn 0.4526011 0.06419619 -0.8893993
vn 0.4526011 0.06419618 -0.8893993
vn 0.4526011 0.06419619 -0.8893993
vn 0.8209811 0.0002413768 0.5709555
vn 0.819127 -0.002675147 0.5736059
vn 0.81562 -0.008126404 0.5785308
vn 0.8209811 0.0002413768 0.5709554
vn 0.8097419 -0.0170799 0.5865378
vn 0.8097419 -0.0170799 0.5865378
vn -0.9951179 -0.02527897 -0.09540027
vn -0.9951179 -0.02527897 -0.09540026
vn -0.9951179 -0.02527897 -0.09540025
vn -0.9951179 -0.02527897 -0.09540025
vn 0.08399425 0.016781 -0.996325
vn 0.08399427 0.016781 -0.996325
vn 0.08399426 0.016781 -0.996325
vn 0.08399427 0.016781 -0.996325
vn -0.2846257 0.006171817 -0.9586188
vn -0.2846257 0.006171816 -0.9586188
vn -0.2846258 0.006171817 -0.9586188
vn -0.2846257 0.006171817 -0.9586188
vn 0.9969724 0.02565422 0.07340204
vn 0.9969724 0.02565422 0.07340204
vn 0.9969724 0.02565422 0.07340203
vn 0.9969724 0.02565422 0.07340204
vn 0.4410524 0.02480105 -0.8971387
vn 0.4410524 0.02480105 -0.8971387
vn 0.4410524 0.02480105 -0.8971387
vn 0.4410524 0.02480105 -0.8971387
vn -0.8998103 -0.05199878 0.4331717
vn -0.9027112 -0.04670446 0.4277046
vn -0.9042386 -0.04387066 0.424768
vn -0.9042386 -0.04387066 0.424768
vn -0.8949155 -0.060688 0.4420897
vn -0.8949155 -0.060688 0.4420897
vn 0.9948325 0.0239389 0.09866708
vn 0.9948325 0.0239389 0.09866706
vn 0.9948325 0.0239389 0.09866707
vn 0.9948325 0.0239389 0.09866706
vn 0.08418575 0.009621594 -0.9964037
vn 0.08418573 0.009621594 -0.9964037
vn 0.08418575 0.009621592 -0.9964037
vn 0.08418575 0.009621594 -0.9964037
vn -0.9966527 -0.01115045 -0.08098897
vn -0.9966527 -0.01115045 -0.08098897
vn -0.9966527 -0.01115045 -0.08098897
vn -0.9966527 -0.01115045 -0.08098897
vn -0.08503208 0.02512141 0.9960615
vn -0.08503208 0.02512141 0.9960615
vn -0.08503208 0.02512141 0.9960615
vn -0.08503208 0.02512141 0.9960615
vn 0.9953432 0.03978242 0.08780266
vn 0.9953432 0.03978243 0.08780266
vn 0.9953432 0.03978242 0.08780266
vn 0.9953432 0.03978243 0.08780266
g S_Bag_zipper_02_0
f 3/3/3 2/2/2 1/1/1
f 4/4/4 3/3/3 1/1/1
f 7/7/7 6/6/6 5/5/5
f 8/8/8 7/7/7 5/5/5
f 8/8/8 5/5/5 9/9/9
f 5/5/5 10/10/10 9/9/9
f 10/10/10 11/11/11 9/9/9
f 11/11/11 12/12/12 9/9/9
f 15/15/15 14/14/14 13/13/13
f 16/16/16 15/15/15 13/13/13
f 19/19/19 18/18/18 17/17/17
f 20/20/20 19/19/19 17/17/17
f 18/18/18 21/21/21 17/17/17
f 21/21/21 22/22/22 17/17/17
f 20/20/20 23/23/23 19/19/19
f 23/23/23 24/24/24 19/19/19
f 27/27/27 26/26/26 25/25/25
f 28/28/28 27/27/27 25/25/25
f 31/31/31 30/30/30 29/29/29
f 32/32/32 31/31/31 29/29/29
f 35/35/35 34/34/34 33/33/33
f 36/36/36 35/35/35 33/33/33
f 39/39/39 38/38/38 37/37/37
f 40/40/40 39/39/39 37/37/37
f 43/43/43 42/42/42 41/41/41
f 44/44/44 43/43/43 41/41/41
f 47/47/47 46/46/46 45/45/45
f 48/48/48 47/47/47 45/45/45
f 51/51/51 50/50/50 49/49/49
f 52/52/52 51/51/51 49/49/49
f 55/55/55 54/54/54 53/53/53
f 56/56/56 55/55/55 53/53/53
f 59/59/59 58/58/58 57/57/57
f 60/60/60 59/59/59 57/57/57
f 63/63/63 62/62/62 61/61/61
f 64/64/64 63/63/63 61/61/61
f 61/61/61 62/62/62 65/65/65
f 62/62/62 66/66/66 65/65/65
f 67/67/67 63/63/63 64/64/64
f 68/68/68 67/67/67 64/64/64
f 61/61/61 65/65/65 69/69/69
f 65/65/65 70/70/70 69/69/69
f 69/69/69 70/70/70 71/71/71
f 72/72/72 69/69/69 71/71/71
f 73/73/73 72/72/72 71/71/71
f 74/74/74 73/73/73 71/71/71
f 76/76/76 65/65/65 75/75/75
f 77/77/77 76/76/76 75/75/75
f 78/78/78 77/77/77 75/75/75
f 66/66/66 79/79/79 78/78/78
f 80/80/80 66/66/66 78/78/78
f 80/80/80 78/78/78 75/75/75
f 83/83/83 82/82/82 81/81/81
f 84/84/84 83/83/83 81/81/81
f 87/87/87 86/86/86 85/85/85
f 88/88/88 87/87/87 85/85/85
f 87/87/87 89/89/89 86/86/86
f 89/89/89 90/90/90 86/86/86
f 91/91/91 90/90/90 89/89/89
f 92/92/92 91/91/91 89/89/89
f 95/95/95 94/94/94 93/93/93
f 96/96/96 95/95/95 93/93/93
f 99/99/99 98/98/98 97/97/97
f 100/100/100 99/99/99 97/97/97
f 99/99/99 101/101/101 98/98/98
f 101/101/101 102/102/102 98/98/98
f 105/105/105 104/104/104 103/103/103
f 106/106/106 105/105/105 103/103/103
f 109/109/109 108/108/108 107/107/107
f 110/110/110 109/109/109 107/107/107
f 113/113/113 112/112/112 111/111/111
f 114/114/114 113/113/113 111/111/111
f 117/117/117 116/116/116 115/115/115
f 118/118/118 117/117/117 115/115/115
f 121/121/121 120/120/120 119/119/119
f 122/122/122 121/121/121 119/119/119
f 125/125/125 124/124/124 123/123/123
f 126/126/126 125/125/125 123/123/123
f 124/124/124 127/127/127 123/123/123
f 127/127/127 128/128/128 123/123/123
f 131/131/131 130/130/130 129/129/129
f 132/132/132 131/131/131 129/129/129
f 135/135/135 134/134/134 133/133/133
f 136/136/136 135/135/135 133/133/133
f 139/139/139 138/138/138 137/137/137
f 140/140/140 139/139/139 137/137/137
f 143/143/143 142/142/142 141/141/141
f 144/144/144 143/143/143 141/141/141
f 147/147/147 146/146/146 145/145/145
f 148/148/148 147/147/147 145/145/145
