g S_Bag_belt_012
v 0.1295041 1.281391 -0.6984575
v 0.1127404 1.300976 -0.6831895
v 0.1153548 1.304806 -0.7255846
v 0.1063658 1.312044 -0.718183
v 0.1096093 1.31075 -0.7314625
v 0.1037467 1.309621 -0.6766987
v 0.104316 1.304303 -0.7326727
v 0.1024917 1.305292 -0.7201608
v 0.1119187 1.295374 -0.7396411
v 0.09931915 1.303486 -0.678017
v 0.1009889 1.293005 -0.6950526
v 0.1077559 1.301599 -0.7394023
v 0.1168428 1.293922 -0.7453929
v 0.1125378 1.298669 -0.7437148
v 0.1165081 1.301508 -0.7433749
v 0.1227993 1.29664 -0.7453153
v 0.1227567 1.286289 -0.7455139
v 0.1306483 1.287317 -0.7465845
v 0.1310057 1.272924 -0.7476987
v 0.1372389 1.27466 -0.7473741
v 0.1324672 1.289987 -0.7401227
v 0.1391958 1.275312 -0.739704
v 0.1395852 1.259897 -0.7480979
v 0.1399013 1.251581 -0.7407225
v 0.1362947 1.24512 -0.7490357
v 0.1276256 1.232665 -0.7501181
v 0.1284783 1.230821 -0.7423368
v 0.1149177 1.224262 -0.7513532
v 0.107331 1.219601 -0.7437907
v 0.09987471 1.221146 -0.7524004
v 0.08488018 1.224279 -0.7527706
v 0.08347363 1.221879 -0.7449407
v 0.071841 1.232292 -0.7533141
v 0.06578952 1.237481 -0.7451959
v 0.06349766 1.245175 -0.7529562
v 0.06062047 1.26008 -0.7521065
v 0.05860134 1.259709 -0.7442797
v 0.06419377 1.274788 -0.7510644
v 0.06725228 1.281335 -0.7428631
v 0.07384229 1.286654 -0.7500505
v 0.08858679 1.293376 -0.7491887
v 0.08760212 1.294847 -0.741442
v 0.1043764 1.294267 -0.7484662
v 0.1041394 1.295683 -0.7407775
v 0.06415301 1.279193 -0.6975188
v 0.08463956 1.292064 -0.6960667
v 0.1009889 1.293005 -0.6950526
v 0.055796 1.257579 -0.6988456
v 0.06267041 1.235519 -0.6982847
v 0.08070466 1.220685 -0.6992746
v 0.1168428 1.293922 -0.7453929
v 0.1119187 1.295374 -0.7396411
v 0.1032801 1.288939 -0.7488114
v 0.08966116 1.288425 -0.7493453
v 0.0769844 1.282787 -0.7500382
v 0.06876819 1.272668 -0.7509632
v 0.1227567 1.286289 -0.7455139
v 0.0732374 1.218495 -0.5985463
v 0.05580837 1.232101 -0.5987066
v 0.09610803 1.218062 -0.5974584
v 0.1040211 1.218961 -0.6990309
v 0.1248615 1.22908 -0.6975043
v 0.1351405 1.249731 -0.6955827
v 0.1216138 1.276101 -0.5925336
v 0.1069941 1.295289 -0.5920447
v 0.09801198 1.305686 -0.5916991
v 0.09130465 1.300617 -0.5082771
v 0.09979563 1.292729 -0.5004415
v 0.1145298 1.270793 -0.4866142
v 0.1266795 1.248349 -0.594298
v 0.1206862 1.237944 -0.4904773
v 0.1168924 1.260851 -0.4462898
v 0.1184851 1.237525 -0.4465576
v 0.1104598 1.275144 -0.4447866
v 0.1017248 1.286741 -0.443524
v 0.0966213 1.292624 -0.4581579
v 0.0912902 1.291962 -0.4451267
v 0.0889129 1.295485 -0.4525266
v 0.09586643 1.287493 -0.4410782
v 0.1025282 1.283001 -0.4393803
v 0.08962873 1.284787 -0.4447227
v 0.09683868 1.278247 -0.4416033
v 0.1042598 1.269581 -0.4399053
v 0.1107657 1.273746 -0.4383496
v 0.1101239 1.258283 -0.4393685
v 0.117302 1.260607 -0.4379826
v 0.1181402 1.24518 -0.4375664
v 0.111806 1.245375 -0.4395434
v 0.113566 1.230714 -0.437894
v 0.1088192 1.232836 -0.4401844
v 0.1058185 1.217818 -0.4398205
v 0.1017963 1.222063 -0.4411976
v 0.09427462 1.208558 -0.4419712
v 0.09109417 1.214859 -0.4424624
v 0.07826699 1.207274 -0.4437083
v 0.07825266 1.212846 -0.443532
v 0.06348545 1.210311 -0.4443792
v 0.06554501 1.215395 -0.4440216
v 0.05099891 1.218645 -0.4446186
v 0.05475481 1.222456 -0.4441778
v 0.04267415 1.230998 -0.4443993
v 0.04757354 1.233052 -0.4439604
v 0.0396906 1.245557 -0.4437601
v 0.04500645 1.245521 -0.4434112
v 0.04286216 1.260161 -0.4427857
v 0.0476952 1.257913 -0.4426177
v 0.05244877 1.271955 -0.4417811
v 0.05571388 1.267939 -0.4417813
v 0.06720041 1.278501 -0.4409139
v 0.06828662 1.273505 -0.4411039
v 0.08287015 1.279246 -0.4401571
v 0.08177298 1.273896 -0.4405141
v 0.1042598 1.269581 -0.4399053
v 0.09683868 1.278247 -0.4416033
v 0.04583871 1.223877 -0.4541717
v 0.06331991 1.208559 -0.4530857
v 0.05002309 1.22686 -0.5019286
v 0.06667621 1.211706 -0.4980569
v 0.08671825 1.206807 -0.4510117
v 0.0895404 1.209634 -0.4953639
v 0.1076711 1.216856 -0.4486028
v 0.1103196 1.217964 -0.4920456
v 0.1167656 1.228617 -0.5958694
v 0.04877948 1.253046 -0.597868
v 0.04402833 1.248237 -0.5020825
v 0.03826022 1.245996 -0.452837
v 0.05143691 1.269044 -0.498391
v 0.04682099 1.267469 -0.4505359
v 0.07070072 1.282255 -0.4948968
v 0.06743694 1.280266 -0.448683
v 0.08686806 1.283152 -0.4932461
v 0.08366828 1.280814 -0.4479711
v 0.08897275 1.281921 -0.4497323
v 0.07756363 1.287543 -0.5950345
v 0.05762046 1.274109 -0.5964203
v 0.09378906 1.288666 -0.594193
v 0.06598584 1.260053 -0.7518941
v 0.06869566 1.24737 -0.7523523
v 0.07601252 1.236612 -0.7524328
v 0.08697592 1.229418 -0.7524061
v 0.09989156 1.2269 -0.7518929
v 0.1127774 1.229461 -0.7511033
v 0.1237223 1.236604 -0.7502125
v 0.1309889 1.247361 -0.7493003
v 0.1336167 1.260009 -0.7485031
v 0.08766001 1.298397 -0.4666239
v 0.08072151 1.294157 -0.4633554
v 0.08501408 1.293256 -0.4945234
v 0.08147878 1.293544 -0.4548362
v 0.09297771 1.299868 -0.5910254
v 0.08686806 1.283152 -0.4932461
v 0.09378906 1.288666 -0.594193
v 0.08406005 1.2899 -0.4495627
v 0.08897275 1.281921 -0.4497323
v 0.1134148 1.306012 -0.7388813
v 0.1223287 1.300497 -0.7405444
vt 0.2400564 0.7377524
vt 0.2353084 0.7455584
vt 0.2471945 0.7456486
vt 0.2450298 0.7486759
vt 0.2482703 0.7479784
vt 0.233537 0.7494813
vt 0.249193 0.7497268
vt 0.2458624 0.7506857
vt 0.2532681 0.751173
vt 0.2339011 0.7518977
vt 0.2392981 0.7553276
vt 0.2512297 0.7494478
vt 0.2548309 0.7471884
vt 0.2529763 0.748732
vt 0.2524755 0.7471029
vt 0.2537781 0.7450398
vt 0.2566205 0.7433372
vt 0.2549392 0.7412153
vt 0.2574625 0.737098
vt 0.2555366 0.7366443
vt 0.2528307 0.7409458
vt 0.2531602 0.7363144
vt 0.2557825 0.7319328
vt 0.2534429 0.7293376
vt 0.255904 0.7271618
vt 0.2559288 0.7224453
vt 0.2534997 0.7222975
vt 0.2559514 0.7177521
vt 0.2533877 0.7152268
vt 0.2559321 0.7130373
vt 0.2558951 0.7083746
vt 0.2533632 0.7082044
vt 0.2558835 0.7037684
vt 0.2533905 0.7013147
vt 0.255916 0.6992161
vt 0.2559372 0.6947249
vt 0.2534812 0.6945106
vt 0.2561778 0.6902999
vt 0.2539927 0.6877655
vt 0.2566367 0.6859031
vt 0.2574269 0.6812627
vt 0.2550673 0.680733
vt 0.258538 0.6767616
vt 0.2562661 0.6759853
vt 0.2401015 0.6862738
vt 0.2408601 0.678872
vt 0.2413947 0.6738479
vt 0.2396379 0.6933447
vt 0.239062 0.7003322
vt 0.2393946 0.7073832
vt 0.259139 0.6729546
vt 0.2566999 0.6736228
vt 0.260049 0.6775306
vt 0.2588493 0.6817132
vt 0.2580883 0.6861506
vt 0.257668 0.6904593
vt 0.2617551 0.6716226
vt 0.2085029 0.70678
vt 0.2085029 0.6998494
vt 0.2085029 0.7139872
vt 0.2396767 0.7144016
vt 0.2396642 0.7213416
vt 0.2393567 0.728192
vt 0.2085029 0.7371979
vt 0.2085029 0.7448187
vt 0.2085029 0.7491036
vt 0.1830973 0.7494128
vt 0.1810193 0.7456769
vt 0.1767479 0.7376027
vt 0.2085029 0.728329
vt 0.1771011 0.7276017
vt 0.1639676 0.7360654
vt 0.1635297 0.7291166
vt 0.1640651 0.7406561
vt 0.1646409 0.7448652
vt 0.1691818 0.7456915
vt 0.1656846 0.7477053
vt 0.1678313 0.7479852
vt 0.1641344 0.7466843
vt 0.1631246 0.7446007
vt 0.1640906 0.7493441
vt 0.1614001 0.7465078
vt 0.1598597 0.7418342
vt 0.162073 0.7408901
vt 0.1590791 0.7368502
vt 0.1614454 0.7364534
vt 0.160908 0.7317535
vt 0.1589416 0.7318498
vt 0.1605927 0.7270275
vt 0.1589502 0.7270579
vt 0.1607866 0.7223067
vt 0.1589949 0.7223701
vt 0.1610366 0.7177833
vt 0.1589353 0.7175985
vt 0.1609966 0.712895
vt 0.159301 0.7128733
vt 0.1609914 0.7082483
vt 0.1593469 0.7083096
vt 0.1609172 0.7037297
vt 0.1593173 0.7038266
vt 0.1607696 0.6993055
vt 0.1592364 0.6994243
vt 0.1605514 0.6949332
vt 0.158972 0.6950836
vt 0.1602454 0.6905745
vt 0.1586254 0.6907544
vt 0.1598797 0.6862047
vt 0.1583735 0.686403
vt 0.1593679 0.6815592
vt 0.157907 0.6819195
vt 0.1585429 0.6769852
vt 0.1569749 0.6776608
vt 0.1548855 0.6708873
vt 0.157833 0.6728092
vt 0.163802 0.7013902
vt 0.1636603 0.7081822
vt 0.1783659 0.7002351
vt 0.1774582 0.7071494
vt 0.1635194 0.715116
vt 0.1771868 0.7141268
vt 0.1635423 0.7220888
vt 0.1768535 0.7209013
vt 0.2085029 0.7213172
vt 0.2085029 0.6929411
vt 0.1783872 0.6933904
vt 0.1633167 0.6946529
vt 0.1773404 0.6865473
vt 0.1626086 0.6880274
vt 0.1763129 0.6793182
vt 0.1617549 0.6810202
vt 0.1756811 0.6743798
vt 0.1609259 0.6761926
vt 0.1612723 0.6745179
vt 0.2085029 0.6783539
vt 0.2085029 0.6858097
vt 0.2085029 0.6733506
vt 0.2575356 0.6948273
vt 0.2576108 0.6992823
vt 0.2577367 0.7038493
vt 0.2575171 0.7084623
vt 0.2576992 0.7131274
vt 0.2575719 0.7178359
vt 0.2575833 0.7225215
vt 0.2576226 0.7272529
vt 0.2576381 0.7320892
vt 0.1714542 0.748646
vt 0.1700298 0.7503475
vt 0.1786314 0.7520007
vt 0.1679634 0.7497469
vt 0.2085029 0.7514441
vt 0.177816 0.7552482
vt 0.2085029 0.7549776
vt 0.1663195 0.7497409
vt 0.1639445 0.7518777
vt 0.2506853 0.7474635
vt 0.2520132 0.7450841
vn 0.4853789 0.8700041 -0.08660364
vn 0.1691185 0.9836162 -0.06243475
vn 0.110839 0.9937832 -0.01046423
vn -0.512115 0.8576491 0.0466508
vn -0.7222422 0.6676531 -0.1805706
vn -0.403767 0.9145994 0.02191475
vn -0.8613163 -0.4951506 -0.1138428
vn -0.771746 -0.6314681 0.07520676
vn -0.9992285 0.02334367 -0.03158551
vn -0.8473437 -0.5124258 0.1393856
vn -0.9433923 0.3144799 0.1054192
vn -0.8217103 -0.3122924 -0.4767238
vn -0.3251604 0.112241 -0.9389743
vn -0.587385 -0.3913845 -0.7083763
vn -0.5096043 0.397358 -0.7631579
vn -0.1948724 0.4806364 -0.8549932
vn -0.2346778 -0.07963694 -0.9688056
vn -0.03523137 0.4854245 -0.8735685
vn -0.2476963 -0.07693403 -0.9657782
vn 0.2719648 0.5529586 -0.7875734
vn 0.2111938 0.9746053 -0.07444314
vn 0.6156328 0.7815005 -0.1012577
vn 0.4500129 0.5132518 -0.7307947
vn 0.8436324 0.5213777 -0.1282563
vn 0.6946865 0.1419124 -0.7051748
vn 0.762513 -0.09941774 -0.6392887
vn 0.9836538 -0.07957461 -0.1615328
vn 0.658962 -0.3276516 -0.6770625
vn 0.7799421 -0.6170229 -0.1047524
vn 0.3692662 -0.7037178 -0.6069791
vn 0.186294 -0.8509175 -0.4911558
vn 0.3130267 -0.9496927 -0.009897891
vn -0.07717939 -0.8669802 -0.49233
vn -0.2569636 -0.9628189 0.08336286
vn -0.5395756 -0.7415218 -0.3987527
vn -0.7655776 -0.5884652 -0.2599991
vn -0.7615809 -0.6285695 0.1577807
vn -0.902216 -0.3172632 -0.2921476
vn -0.9855201 -0.01443693 0.1689429
vn -0.9194407 0.230679 -0.3184584
vn -0.8189399 0.4141444 -0.397268
vn -0.8667086 0.4835933 0.1222859
vn -0.5321001 0.4949307 -0.6869594
vn -0.6777412 0.7332935 0.05429114
vn -0.9874165 -0.01763949 0.157154
vn -0.875106 0.4695296 0.1171812
vn -0.9433923 0.3144799 0.1054192
vn -0.7665745 -0.624317 0.1503053
vn -0.2428254 -0.9659602 0.08920078
vn 0.3491971 -0.9369995 0.009657449
vn -0.3251604 0.112241 -0.9389743
vn -0.9992285 0.02334367 -0.03158551
vn -0.1483764 0.02547477 -0.9886028
vn -0.1877471 -0.06179272 -0.9802718
vn -0.1831925 -0.05947848 -0.9812762
vn -0.1900192 -0.04789953 -0.9806112
vn -0.2346778 -0.07963694 -0.9688056
vn 0.3451767 -0.9385202 -0.005729669
vn -0.2498119 -0.9644358 0.0863561
vn 0.7871611 -0.6102953 -0.08897871
vn 0.7949629 -0.6032191 -0.06450332
vn 0.9897346 -0.08005282 -0.1183926
vn 0.8144796 0.5671383 -0.1223815
vn 0.4463759 0.8886907 -0.1047728
vn 0.1685652 0.9833552 -0.06781061
vn -0.459866 0.8875412 0.02817738
vn -0.5586339 0.8279183 0.049794
vn 0.1481208 0.9865395 -0.06928216
vn 0.4780668 0.8686733 -0.1298414
vn 0.7944456 0.5898857 -0.1445372
vn 0.8063304 0.5661132 -0.1713098
vn 0.5966555 0.7780226 -0.19668
vn 0.8274257 0.5295134 -0.1870355
vn 0.245115 0.9597042 -0.1374285
vn 0.1193511 0.9896246 -0.07999093
vn 0.07865106 0.9931319 -0.08662025
vn -0.3792865 0.7484778 0.5439878
vn -0.5097929 0.799118 0.3186246
vn -0.1763592 0.2279359 0.9575713
vn 0.09651396 0.5312405 0.8417057
vn -0.2225597 -0.3947872 0.8914091
vn 0.0315088 0.08579106 0.9958149
vn 0.08474826 -0.01103663 0.9963413
vn 0.304681 0.6799086 0.6670036
vn 0.05469608 -0.04601166 0.9974424
vn 0.5788493 0.7125989 0.3964041
vn 0.6912407 0.6150596 0.3793255
vn -0.04523573 -0.05558014 0.997429
vn 0.8636214 0.1920812 0.4661148
vn -0.1184625 -0.04877361 0.99176
vn 0.9422849 -0.03169359 0.3333085
vn -0.04653218 0.001790376 0.9989152
vn 0.8779355 -0.3156615 0.3599819
vn 0.0713983 0.04576832 0.9963973
vn 0.5621812 -0.6533331 0.5070583
vn 0.1467335 0.0568697 0.98754
vn 0.3470083 -0.8252622 0.4455643
vn 0.1827466 0.0503376 0.9818705
vn 0.09517065 -0.8435184 0.5286011
vn 0.1853087 0.03946404 0.9818875
vn -0.3523953 -0.7379984 0.5754789
vn 0.181524 0.03443063 0.9827836
vn -0.6128223 -0.573133 0.5440289
vn 0.1782348 0.03700074 0.983292
vn -0.7403678 -0.2844306 0.6090605
vn 0.1778877 0.04719274 0.9829185
vn -0.7627289 0.3020639 0.5718409
vn 0.1829112 0.05961104 0.9813206
vn -0.6536693 0.4933367 0.5738773
vn 0.1896164 0.0580904 0.9801383
vn -0.2694897 0.5716525 0.7749766
vn 0.164372 0.1550306 0.9741392
vn 0.08474826 -0.01103663 0.9963413
vn 0.0315088 0.08579106 0.9958149
vn -0.2745272 -0.9587404 0.0738368
vn 0.3091134 -0.950866 -0.01739464
vn -0.258307 -0.9631402 0.07508983
vn 0.3332162 -0.9423802 -0.02977333
vn 0.7629937 -0.6376297 -0.1061556
vn 0.7713304 -0.6247765 -0.1212594
vn 0.983146 -0.09330864 -0.157218
vn 0.9788932 -0.1035154 -0.1762178
vn 0.9861981 -0.08006443 -0.1449244
vn -0.7693596 -0.6209716 0.1499338
vn -0.7721226 -0.6189799 0.1438421
vn -0.7686232 -0.6254287 0.1343771
vn -0.9880863 -0.02184915 0.1523416
vn -0.9878171 -0.02698996 0.1532605
vn -0.8776782 0.4642336 0.1190294
vn -0.8678455 0.4789588 0.1320701
vn -0.94235 0.304847 0.1380034
vn -0.6790786 0.7239828 0.121248
vn -0.700056 -0.6099889 0.3712614
vn -0.8802508 0.4609987 0.1124216
vn -0.9879174 -0.02357817 0.1531775
vn -0.968007 0.2136324 0.1316198
vn -0.1890503 -0.03804024 -0.9812304
vn -0.1761717 -0.01130335 -0.9842945
vn -0.1791071 -0.0005536705 -0.9838294
vn -0.1946562 -0.02277785 -0.980607
vn -0.2033249 -0.03229076 -0.9785787
vn -0.1945131 -0.03612613 -0.9802344
vn -0.1760481 -0.04534494 -0.9833366
vn -0.1690789 -0.04246663 -0.9846871
vn -0.1826446 -0.03832379 -0.9824318
vn -0.5592742 0.8274903 0.04972249
vn -0.6386689 -0.7310213 0.240229
vn -0.8446987 -0.5177482 0.1357238
vn -0.5012522 -0.8065399 0.3134319
vn -0.8679659 -0.474919 0.1452148
vn -0.94235 0.304847 0.1380034
vn -0.968007 0.2136324 0.1316198
vn -0.6109781 -0.1931091 0.7677335
vn -0.700056 -0.6099889 0.3712614
vn -0.4506294 0.8136896 -0.3672089
vn 0.08344404 0.9954399 -0.04622178
g S_Bag_belt_012_0
f 3/3/3 2/2/2 1/1/1
f 3/3/3 4/4/4 2/2/2
f 5/5/5 4/4/4 3/3/3
f 4/4/4 6/6/6 2/2/2
f 5/5/5 7/7/7 4/4/4
f 7/7/7 8/8/8 4/4/4
f 8/8/8 7/7/7 9/9/9
f 10/10/10 8/8/8 9/9/9
f 10/10/10 6/6/6 4/4/4
f 8/8/8 10/10/10 4/4/4
f 11/11/11 10/10/10 9/9/9
f 7/7/7 12/12/12 9/9/9
f 7/7/7 5/5/5 12/12/12
f 9/9/9 12/12/12 13/13/13
f 12/12/12 14/14/14 13/13/13
f 14/14/14 15/15/15 13/13/13
f 14/14/14 12/12/12 15/15/15
f 15/15/15 16/16/16 13/13/13
f 13/13/13 16/16/16 17/17/17
f 16/16/16 18/18/18 17/17/17
f 17/17/17 18/18/18 19/19/19
f 18/18/18 20/20/20 19/19/19
f 18/18/18 21/21/21 20/20/20
f 21/21/21 22/22/22 20/20/20
f 20/20/20 22/22/22 23/23/23
f 19/19/19 20/20/20 23/23/23
f 22/22/22 24/24/24 23/23/23
f 23/23/23 24/24/24 25/25/25
f 25/25/25 24/24/24 26/26/26
f 24/24/24 27/27/27 26/26/26
f 26/26/26 27/27/27 28/28/28
f 27/27/27 29/29/29 28/28/28
f 28/28/28 29/29/29 30/30/30
f 30/30/30 29/29/29 31/31/31
f 29/29/29 32/32/32 31/31/31
f 31/31/31 32/32/32 33/33/33
f 32/32/32 34/34/34 33/33/33
f 33/33/33 34/34/34 35/35/35
f 35/35/35 34/34/34 36/36/36
f 34/34/34 37/37/37 36/36/36
f 36/36/36 37/37/37 38/38/38
f 37/37/37 39/39/39 38/38/38
f 38/38/38 39/39/39 40/40/40
f 40/40/40 39/39/39 41/41/41
f 39/39/39 42/42/42 41/41/41
f 41/41/41 42/42/42 43/43/43
f 42/42/42 44/44/44 43/43/43
f 39/39/39 45/45/45 42/42/42
f 45/45/45 46/46/46 42/42/42
f 42/42/42 46/46/46 44/44/44
f 46/46/46 47/47/47 44/44/44
f 48/48/48 45/45/45 39/39/39
f 37/37/37 48/48/48 39/39/39
f 49/49/49 48/48/48 37/37/37
f 34/34/34 49/49/49 37/37/37
f 50/50/50 49/49/49 34/34/34
f 43/43/43 44/44/44 51/51/51
f 44/44/44 52/52/52 51/51/51
f 44/44/44 47/47/47 52/52/52
f 41/41/41 43/43/43 53/53/53
f 54/54/54 41/41/41 53/53/53
f 40/40/40 41/41/41 54/54/54
f 55/55/55 40/40/40 54/54/54
f 55/55/55 56/56/56 40/40/40
f 43/43/43 51/51/51 57/57/57
f 53/53/53 43/43/43 57/57/57
f 50/50/50 58/58/58 49/49/49
f 58/58/58 59/59/59 49/49/49
f 49/49/49 59/59/59 48/48/48
f 60/60/60 58/58/58 50/50/50
f 61/61/61 60/60/60 50/50/50
f 61/61/61 50/50/50 32/32/32
f 29/29/29 61/61/61 32/32/32
f 32/32/32 50/50/50 34/34/34
f 62/62/62 61/61/61 29/29/29
f 27/27/27 62/62/62 29/29/29
f 63/63/63 62/62/62 27/27/27
f 24/24/24 63/63/63 27/27/27
f 1/1/1 63/63/63 24/24/24
f 22/22/22 1/1/1 24/24/24
f 21/21/21 1/1/1 22/22/22
f 1/1/1 64/64/64 63/63/63
f 65/65/65 64/64/64 1/1/1
f 2/2/2 65/65/65 1/1/1
f 66/66/66 65/65/65 2/2/2
f 6/6/6 66/66/66 2/2/2
f 66/66/66 67/67/67 65/65/65
f 67/67/67 68/68/68 65/65/65
f 65/65/65 68/68/68 64/64/64
f 68/68/68 69/69/69 64/64/64
f 64/64/64 70/70/70 63/63/63
f 64/64/64 69/69/69 70/70/70
f 63/63/63 70/70/70 62/62/62
f 69/69/69 71/71/71 70/70/70
f 69/69/69 72/72/72 71/71/71
f 72/72/72 73/73/73 71/71/71
f 74/74/74 72/72/72 69/69/69
f 75/75/75 74/74/74 69/69/69
f 76/76/76 75/75/75 69/69/69
f 68/68/68 76/76/76 69/69/69
f 77/77/77 75/75/75 76/76/76
f 78/78/78 77/77/77 76/76/76
f 77/77/77 79/79/79 75/75/75
f 79/79/79 80/80/80 75/75/75
f 75/75/75 80/80/80 74/74/74
f 79/79/79 81/81/81 80/80/80
f 81/81/81 82/82/82 80/80/80
f 82/82/82 83/83/83 80/80/80
f 83/83/83 84/84/84 80/80/80
f 80/80/80 84/84/84 74/74/74
f 74/74/74 84/84/84 72/72/72
f 83/83/83 85/85/85 84/84/84
f 85/85/85 86/86/86 84/84/84
f 84/84/84 86/86/86 72/72/72
f 72/72/72 86/86/86 73/73/73
f 87/87/87 86/86/86 85/85/85
f 86/86/86 87/87/87 73/73/73
f 88/88/88 87/87/87 85/85/85
f 89/89/89 87/87/87 88/88/88
f 90/90/90 89/89/89 88/88/88
f 91/91/91 89/89/89 90/90/90
f 92/92/92 91/91/91 90/90/90
f 93/93/93 91/91/91 92/92/92
f 94/94/94 93/93/93 92/92/92
f 95/95/95 93/93/93 94/94/94
f 96/96/96 95/95/95 94/94/94
f 97/97/97 95/95/95 96/96/96
f 98/98/98 97/97/97 96/96/96
f 99/99/99 97/97/97 98/98/98
f 100/100/100 99/99/99 98/98/98
f 101/101/101 99/99/99 100/100/100
f 102/102/102 101/101/101 100/100/100
f 103/103/103 101/101/101 102/102/102
f 104/104/104 103/103/103 102/102/102
f 105/105/105 103/103/103 104/104/104
f 106/106/106 105/105/105 104/104/104
f 107/107/107 105/105/105 106/106/106
f 108/108/108 107/107/107 106/106/106
f 109/109/109 107/107/107 108/108/108
f 110/110/110 109/109/109 108/108/108
f 111/111/111 109/109/109 110/110/110
f 112/112/112 111/111/111 110/110/110
f 112/112/112 113/113/113 111/111/111
f 113/113/113 114/114/114 111/111/111
f 99/99/99 101/101/101 115/115/115
f 97/97/97 99/99/99 115/115/115
f 116/116/116 97/97/97 115/115/115
f 116/116/116 115/115/115 117/117/117
f 118/118/118 116/116/116 117/117/117
f 119/119/119 116/116/116 118/118/118
f 120/120/120 119/119/119 118/118/118
f 121/121/121 119/119/119 120/120/120
f 122/122/122 121/121/121 120/120/120
f 73/73/73 121/121/121 122/122/122
f 71/71/71 73/73/73 122/122/122
f 73/73/73 89/89/89 121/121/121
f 87/87/87 89/89/89 73/73/73
f 89/89/89 91/91/91 121/121/121
f 121/121/121 91/91/91 119/119/119
f 91/91/91 93/93/93 119/119/119
f 93/93/93 95/95/95 119/119/119
f 95/95/95 97/97/97 116/116/116
f 119/119/119 95/95/95 116/116/116
f 71/71/71 122/122/122 123/123/123
f 70/70/70 71/71/71 123/123/123
f 70/70/70 123/123/123 62/62/62
f 62/62/62 123/123/123 61/61/61
f 123/123/123 60/60/60 61/61/61
f 122/122/122 120/120/120 60/60/60
f 123/123/123 122/122/122 60/60/60
f 60/60/60 120/120/120 58/58/58
f 120/120/120 118/118/118 58/58/58
f 58/58/58 118/118/118 59/59/59
f 118/118/118 117/117/117 59/59/59
f 59/59/59 117/117/117 124/124/124
f 59/59/59 124/124/124 48/48/48
f 117/117/117 125/125/125 124/124/124
f 117/117/117 115/115/115 125/125/125
f 115/115/115 126/126/126 125/125/125
f 115/115/115 101/101/101 126/126/126
f 101/101/101 103/103/103 126/126/126
f 125/125/125 126/126/126 127/127/127
f 126/126/126 128/128/128 127/127/127
f 126/126/126 103/103/103 128/128/128
f 103/103/103 105/105/105 128/128/128
f 105/105/105 107/107/107 128/128/128
f 127/127/127 128/128/128 129/129/129
f 128/128/128 130/130/130 129/129/129
f 128/128/128 107/107/107 130/130/130
f 129/129/129 130/130/130 131/131/131
f 130/130/130 132/132/132 131/131/131
f 107/107/107 109/109/109 130/130/130
f 130/130/130 109/109/109 132/132/132
f 109/109/109 111/111/111 132/132/132
f 132/132/132 111/111/111 114/114/114
f 132/132/132 114/114/114 133/133/133
f 132/132/132 133/133/133 131/131/131
f 127/127/127 129/129/129 134/134/134
f 135/135/135 127/127/127 134/134/134
f 125/125/125 127/127/127 135/135/135
f 124/124/124 125/125/125 135/135/135
f 124/124/124 135/135/135 45/45/45
f 48/48/48 124/124/124 45/45/45
f 135/135/135 134/134/134 46/46/46
f 45/45/45 135/135/135 46/46/46
f 46/46/46 134/134/134 47/47/47
f 134/134/134 136/136/136 47/47/47
f 129/129/129 131/131/131 136/136/136
f 134/134/134 129/129/129 136/136/136
f 56/56/56 38/38/38 40/40/40
f 36/36/36 38/38/38 56/56/56
f 137/137/137 36/36/36 56/56/56
f 137/137/137 138/138/138 36/36/36
f 138/138/138 35/35/35 36/36/36
f 33/33/33 35/35/35 138/138/138
f 139/139/139 33/33/33 138/138/138
f 139/139/139 140/140/140 33/33/33
f 140/140/140 31/31/31 33/33/33
f 30/30/30 31/31/31 140/140/140
f 141/141/141 30/30/30 140/140/140
f 141/141/141 142/142/142 30/30/30
f 142/142/142 28/28/28 30/30/30
f 26/26/26 28/28/28 142/142/142
f 143/143/143 26/26/26 142/142/142
f 143/143/143 144/144/144 26/26/26
f 144/144/144 25/25/25 26/26/26
f 23/23/23 25/25/25 144/144/144
f 145/145/145 23/23/23 144/144/144
f 145/145/145 19/19/19 23/23/23
f 148/148/148 147/147/147 146/146/146
f 67/67/67 148/148/148 146/146/146
f 147/147/147 149/149/149 146/146/146
f 149/149/149 78/78/78 146/146/146
f 148/148/148 67/67/67 66/66/66
f 150/150/150 148/148/148 66/66/66
f 151/151/151 148/148/148 150/150/150
f 149/149/149 147/147/147 151/151/151
f 147/147/147 148/148/148 151/151/151
f 152/152/152 151/151/151 150/150/150
f 152/152/152 150/150/150 10/10/10
f 10/10/10 150/150/150 66/66/66
f 11/11/11 152/152/152 10/10/10
f 6/6/6 10/10/10 66/66/66
f 149/149/149 153/153/153 78/78/78
f 153/153/153 77/77/77 78/78/78
f 79/79/79 77/77/77 153/153/153
f 81/81/81 79/79/79 153/153/153
f 154/154/154 149/149/149 151/151/151
f 154/154/154 153/153/153 149/149/149
f 154/154/154 81/81/81 153/153/153
f 154/154/154 82/82/82 81/81/81
f 67/67/67 146/146/146 68/68/68
f 146/146/146 76/76/76 68/68/68
f 146/146/146 78/78/78 76/76/76
f 12/12/12 155/155/155 15/15/15
f 5/5/5 155/155/155 12/12/12
f 15/15/15 155/155/155 16/16/16
f 155/155/155 156/156/156 16/16/16
f 155/155/155 5/5/5 156/156/156
f 16/16/16 156/156/156 18/18/18
f 156/156/156 21/21/21 18/18/18
f 5/5/5 3/3/3 156/156/156
f 156/156/156 3/3/3 21/21/21
f 3/3/3 1/1/1 21/21/21
