g S_Bag_belt_011
v 0.3873192 0.697992 -0.3202714
v 0.3771864 0.7005027 -0.2915072
v 0.3606435 0.7196125 -0.2943332
v 0.3755538 0.7168865 -0.3253664
v 0.3912457 0.6828417 -0.2888781
v 0.4044867 0.6830238 -0.3144539
v 0.4056045 0.6645322 -0.2861578
v 0.4237009 0.6699074 -0.3063995
v 0.409197 0.6746995 -0.3404783
v 0.4310131 0.6652813 -0.3288395
v 0.3951273 0.6887791 -0.3492867
v 0.3926802 0.7121417 -0.355894
v 0.4123498 0.6659597 -0.3647471
v 0.4347011 0.6567805 -0.3532342
v 0.4033679 0.6828843 -0.3743485
v 0.4086928 0.7048916 -0.3800504
v 0.4174279 0.6583034 -0.3914643
v 0.4371327 0.6454457 -0.3789577
v 0.4145209 0.6746789 -0.3999826
v 0.4225367 0.6975672 -0.401977
v 0.4263011 0.6505104 -0.4228628
v 0.4407884 0.6349178 -0.4098826
v 0.4269969 0.6671953 -0.4271359
v 0.4373139 0.689896 -0.4265819
v 0.4356396 0.6405379 -0.4517882
v 0.445135 0.6234181 -0.441108
v 0.4397612 0.6599644 -0.4561952
v 0.4524533 0.6837919 -0.4555789
v 0.4461662 0.6337935 -0.4865573
v 0.4532093 0.6149703 -0.4788208
v 0.4529355 0.6534364 -0.4878329
v 0.466231 0.6774453 -0.4880426
v 0.4564704 0.6280517 -0.5250507
v 0.4594516 0.6070602 -0.5209112
v 0.4774199 0.6720982 -0.5228357
v 0.4644849 0.6477776 -0.5245921
v 0.4861186 0.6695318 -0.5667
v 0.4733126 0.6448872 -0.5695921
v 0.4654514 0.6252345 -0.5726113
v 0.4672237 0.6030043 -0.5727747
v 0.4695407 0.6291427 -0.6186232
v 0.4743624 0.605952 -0.621105
v 0.4778105 0.6494849 -0.6166029
v 0.4888236 0.6721649 -0.6144047
v 0.4674791 0.6314851 -0.6654754
v 0.4749191 0.6115996 -0.6680365
v 0.4739252 0.6528883 -0.6635541
v 0.4838053 0.6751429 -0.6607149
v 0.4600075 0.6359996 -0.712512
v 0.4696215 0.6173675 -0.7170889
v 0.4655014 0.6587101 -0.7076148
v 0.4752738 0.6807787 -0.7056101
v 0.4507061 0.6429387 -0.7574629
v 0.4631401 0.6280978 -0.7631977
v 0.453388 0.6647993 -0.7498747
v 0.4620007 0.6876679 -0.7472434
v 0.4409911 0.6546829 -0.7983735
v 0.4603547 0.6447408 -0.8029844
v 0.4394892 0.6742548 -0.7917879
v 0.4486406 0.6970951 -0.7850912
v 0.4364221 0.6659167 -0.8351775
v 0.4606715 0.6634205 -0.8349771
v 0.4281439 0.6811703 -0.8289388
v 0.4343227 0.7067074 -0.8215997
v 0.4203393 0.7139023 -0.8534049
v 0.4207867 0.6903069 -0.8630236
v 0.4366486 0.6807428 -0.8660717
v 0.4629081 0.6759368 -0.8643733
v 0.4051516 0.7218718 -0.8896008
v 0.4183461 0.7019035 -0.893428
v 0.4409798 0.6868628 -0.8923525
v 0.4605878 0.6791629 -0.892252
v 0.3953015 0.7250074 -0.9209576
v 0.4140277 0.7085971 -0.9195246
v 0.4335608 0.6873238 -0.9182727
v 0.4471556 0.6706393 -0.9203552
v 0.4127229 0.7122631 -0.8504926
v 0.4266323 0.7073824 -0.8182193
v 0.4410813 0.6989707 -0.7817958
v 0.454513 0.6901891 -0.7442161
v 0.4677221 0.6837554 -0.7032645
v 0.4761624 0.678458 -0.6592648
v 0.4812188 0.6758032 -0.6139873
v 0.4787039 0.6734374 -0.5676469
v 0.4702941 0.6760287 -0.5250929
v 0.4593796 0.6812262 -0.49125
v 0.4458 0.6873153 -0.4594378
v 0.4307381 0.6928162 -0.4310134
v 0.4158051 0.6994288 -0.4067202
v 0.401683 0.7051344 -0.3846824
v 0.3856197 0.7100838 -0.3598436
v 0.3689665 0.7126042 -0.3283232
v 0.3545349 0.7142399 -0.2966649
v 0.3545349 0.7142399 -0.2966649
v 0.3710653 0.6950913 -0.2937221
v 0.3853692 0.6777251 -0.2920474
v 0.4010046 0.6591035 -0.2906058
v 0.4010046 0.6591035 -0.2906058
v 0.4197937 0.6632665 -0.3087359
v 0.4269144 0.6579969 -0.3278086
v 0.4303286 0.6498857 -0.3510554
v 0.4318831 0.6391379 -0.3770447
v 0.4343967 0.6295489 -0.4088181
v 0.4378969 0.619117 -0.4410922
v 0.4454107 0.6118747 -0.4795719
v 0.4512348 0.605396 -0.5218796
v 0.4589169 0.601927 -0.5740052
v 0.4661439 0.604248 -0.621937
v 0.466995 0.6087156 -0.6680111
v 0.4622283 0.613304 -0.7169197
v 0.4568529 0.6227432 -0.7643174
v 0.4563796 0.6382108 -0.8061142
v 0.4589485 0.6560729 -0.8387073
v 0.4613714 0.6679976 -0.8664378
v 0.4574651 0.6719446 -0.8906938
v 0.4421045 0.664895 -0.9169042
v 0.4421045 0.664895 -0.9169042
v 0.4274675 0.6818578 -0.9166019
v 0.4081112 0.7025802 -0.9190266
v 0.3894453 0.7190006 -0.9199465
v 0.3894453 0.7190006 -0.9199465
v 0.3983553 0.7174539 -0.8877025
vt 0.493091 0.758349
vt 0.4814719 0.758349
vt 0.4814719 0.7683564
vt 0.493091 0.7683564
vt 0.4814719 0.7487548
vt 0.493091 0.7487548
vt 0.4814719 0.7402928
vt 0.493091 0.7402928
vt 0.5039844 0.7487548
vt 0.5039844 0.7402928
vt 0.5039844 0.758349
vt 0.5039844 0.7683564
vt 0.5144164 0.7487548
vt 0.5144164 0.7402928
vt 0.5144164 0.758349
vt 0.5144164 0.7683564
vt 0.5247545 0.7487548
vt 0.5247545 0.7402928
vt 0.5247545 0.758349
vt 0.5247545 0.7683564
vt 0.536519 0.7487548
vt 0.536519 0.7402928
vt 0.536519 0.758349
vt 0.536519 0.7683564
vt 0.54906 0.7487548
vt 0.54906 0.7402928
vt 0.54906 0.758349
vt 0.54906 0.7683564
vt 0.5633377 0.7487548
vt 0.5633377 0.7402928
vt 0.5633377 0.758349
vt 0.5633377 0.7683564
vt 0.5784828 0.7487548
vt 0.5784828 0.7402928
vt 0.5784828 0.7683564
vt 0.5784828 0.758349
vt 0.5969674 0.7683564
vt 0.5969674 0.758349
vt 0.5969674 0.7487548
vt 0.5969674 0.7402928
vt 0.6152556 0.7487548
vt 0.6152556 0.7402928
vt 0.6152556 0.758349
vt 0.6152556 0.7683564
vt 0.6329157 0.7487548
vt 0.6329157 0.7402928
vt 0.6329157 0.758349
vt 0.6329157 0.7683564
vt 0.6509633 0.7487548
vt 0.6509633 0.7402928
vt 0.6509633 0.758349
vt 0.6509633 0.7683564
vt 0.6683841 0.7487548
vt 0.6683841 0.7402928
vt 0.6683841 0.758349
vt 0.6683841 0.7683564
vt 0.6842694 0.7487548
vt 0.6842694 0.7402928
vt 0.6842694 0.758349
vt 0.6842694 0.7683564
vt 0.6987476 0.748755
vt 0.6987476 0.740293
vt 0.6987476 0.758349
vt 0.6987476 0.7683564
vt 0.7113261 0.7683564
vt 0.7113261 0.758349
vt 0.7113261 0.748755
vt 0.7113261 0.740293
vt 0.7239659 0.7683564
vt 0.7239659 0.758349
vt 0.7239658 0.748755
vt 0.7239658 0.740293
vt 0.7356598 0.7683564
vt 0.7356598 0.758349
vt 0.7356598 0.748755
vt 0.7356598 0.740293
vt 0.7113261 0.7715834
vt 0.6987476 0.7715834
vt 0.6842694 0.7715834
vt 0.6683841 0.7715834
vt 0.6509633 0.7715834
vt 0.6329157 0.7715834
vt 0.6152556 0.7715834
vt 0.5969674 0.7715834
vt 0.5784828 0.7715834
vt 0.5633377 0.7715834
vt 0.54906 0.7715834
vt 0.536519 0.7715834
vt 0.5247545 0.7715834
vt 0.5144164 0.7715834
vt 0.5039844 0.7715834
vt 0.493091 0.7715834
vt 0.4814719 0.7715834
vt 0.478295 0.7683564
vt 0.478295 0.758349
vt 0.478295 0.7487548
vt 0.478295 0.740293
vt 0.4814719 0.7370628
vt 0.493091 0.7370628
vt 0.5039844 0.7370628
vt 0.5144164 0.7370628
vt 0.5247545 0.7370628
vt 0.536519 0.7370628
vt 0.54906 0.7370628
vt 0.5633377 0.7370628
vt 0.5784828 0.7370628
vt 0.5969674 0.7370628
vt 0.6152556 0.7370628
vt 0.6329157 0.7370628
vt 0.6509633 0.7370628
vt 0.6683841 0.7370628
vt 0.6842694 0.7370628
vt 0.6987476 0.7370628
vt 0.7113261 0.7370628
vt 0.7239658 0.7370628
vt 0.7356598 0.7370628
vt 0.738873 0.740293
vt 0.738873 0.748755
vt 0.738873 0.758349
vt 0.738873 0.7683564
vt 0.7356598 0.7715834
vt 0.7239659 0.7715834
vn 0.391275 0.9200191 0.02165083
vn 0.3178898 0.8799929 0.3529286
vn -0.0199377 0.9537156 0.3000485
vn 0.1458057 0.9892815 0.007918292
vn 0.2069969 0.8596851 0.4670051
vn 0.164403 0.9863648 -0.007475713
vn 0.4027743 0.6826726 0.6096974
vn 0.3296295 0.9389033 0.09902015
vn 0.1161849 0.9617066 -0.2482368
vn 0.23934 0.9446524 -0.224384
vn 0.5425393 0.8397865 -0.02024104
vn 0.420203 0.905899 0.05269013
vn 0.2059772 0.9465595 -0.2481905
vn 0.270693 0.9159882 -0.2961268
vn 0.7376451 0.668022 0.09811438
vn 0.6801444 0.7116535 0.1759345
vn 0.3659354 0.9157231 -0.1659591
vn 0.4138253 0.8780349 -0.240423
vn 0.8529354 0.487439 0.1868274
vn 0.8007324 0.5465991 0.2450655
vn 0.5649062 0.821443 -0.07818096
vn 0.570805 0.8053442 -0.1600077
vn 0.9200318 0.3200005 0.2261444
vn 0.865888 0.4284005 0.2582846
vn 0.7096729 0.7044623 -0.009854859
vn 0.7634036 0.6426741 -0.0646909
vn 0.9551715 0.2063758 0.2122651
vn 0.9023708 0.3686764 0.2231696
vn 0.8276989 0.560765 0.02137804
vn 0.8620995 0.5066245 -0.01076891
vn 0.977856 0.1367393 0.1584301
vn 0.9316693 0.3302771 0.1513579
vn 0.8977504 0.4400582 -0.01982169
vn 0.9465928 0.3212442 -0.02764554
vn 0.9509637 0.3065661 0.0410509
vn 0.994431 0.0917986 0.05176879
vn 0.9452654 0.3129165 -0.09250244
vn 0.992992 0.08257385 -0.08454797
vn 0.9116406 0.4012622 -0.08888254
vn 0.9608932 0.2660587 -0.07679261
vn 0.8842162 0.4235943 -0.1967984
vn 0.914043 0.3620847 -0.1828116
vn 0.9671176 0.1004835 -0.2336377
vn 0.9020498 0.3562247 -0.2437416
vn 0.801829 0.5096929 -0.3119027
vn 0.8294709 0.4736076 -0.2960977
vn 0.9223355 0.1440323 -0.3585413
vn 0.8468738 0.3862056 -0.3655817
vn 0.7080972 0.6038629 -0.365989
vn 0.7494487 0.5657662 -0.3438538
vn 0.8707199 0.1963742 -0.4508703
vn 0.7916948 0.4080491 -0.4546596
vn 0.5913709 0.7429355 -0.3135717
vn 0.6297432 0.7327831 -0.2577836
vn 0.8166181 0.2752968 -0.5072935
vn 0.7434944 0.4303391 -0.5118831
vn 0.4109175 0.8998621 -0.1462704
vn 0.3843915 0.9231498 -0.006119078
vn 0.7707933 0.3844117 -0.5080406
vn 0.7048336 0.487535 -0.5152855
vn 0.1173872 0.9864071 0.1149841
vn 0.08832496 0.9673157 0.2376955
vn 0.6981266 0.580148 -0.41958
vn 0.6393059 0.599796 -0.4811784
vn 0.4721586 0.8108394 -0.3458405
vn 0.5147021 0.8234585 -0.2387421
vn -0.02807245 0.9845383 0.1729054
vn 0.009396294 0.9823919 0.1865955
vn 0.1248464 0.9822798 -0.1397844
vn 0.3275482 0.9237069 -0.19869
vn 0.005688024 0.9953798 -0.09584694
vn 0.1673566 0.9552361 -0.2439588
vn -0.1715054 0.9119166 -0.372819
vn 0.1856541 0.847757 -0.4968305
vn 0.02986663 0.83052 -0.5561876
vn 0.2560702 0.5882366 -0.7670761
vn -0.5603163 0.7851075 0.2639167
vn -0.3499065 0.9275551 0.1311751
vn -0.2195939 0.9734047 0.06528267
vn -0.1692504 0.985562 -0.004685971
vn -0.1422904 0.9886994 -0.04718945
vn -0.1131623 0.9913033 -0.06717215
vn -0.07962779 0.9952122 -0.0566757
vn -0.04902573 0.9976597 -0.04766228
vn -0.03744832 0.9963433 -0.07679554
vn -0.03982389 0.9956625 -0.08408459
vn -0.06915351 0.9952178 -0.06898803
vn -0.1276636 0.9875262 -0.09216217
vn -0.2330084 0.9599051 -0.1558501
vn -0.4206302 0.8827994 -0.2091302
vn -0.6560063 0.7241119 -0.2128793
vn -0.8277307 0.5302572 -0.1835463
vn -0.8003176 0.3179542 0.5083274
vn -0.8003176 0.3179542 0.5083274
vn -0.00303264 -0.1304581 0.9914492
vn -0.0327972 -0.2313519 0.9723172
vn 0.5696489 -0.3319022 0.7518917
vn 0.5696489 -0.3319022 0.7518917
vn 0.9621512 -0.124455 0.2424375
vn 0.9899265 0.03630067 0.1368497
vn 0.9959949 0.02431309 0.08603976
vn 0.9900294 -0.09960403 0.09960346
vn 0.9528691 -0.2618287 0.1532518
vn 0.8792786 -0.4412264 0.1794116
vn 0.7853335 -0.6008027 0.1492898
vn 0.6820109 -0.7254856 0.09236866
vn 0.6357624 -0.7718824 -0.001974154
vn 0.6622708 -0.7408441 -0.112015
vn 0.7338836 -0.6509675 -0.1940525
vn 0.8001394 -0.5225962 -0.2943979
vn 0.8653697 -0.3061191 -0.3967698
vn 0.9190782 -0.0034197 -0.3940602
vn 0.9284391 0.2286698 -0.2927645
vn 0.9231058 0.2547623 -0.288048
vn 0.9186288 0.007496742 -0.3950506
vn 0.5090784 -0.3292132 -0.7952722
vn 0.5090784 -0.3292132 -0.7952722
vn -0.2422114 -0.3097175 -0.919461
vn -0.1677652 -0.2329389 -0.9579115
vn -0.9067059 0.235677 -0.3497725
vn -0.9067059 0.235677 -0.3497725
vn -0.7455506 0.5662012 0.3515257
g S_Bag_belt_011_0
f 3/3/3 2/2/2 1/1/1
f 4/4/4 3/3/3 1/1/1
f 1/1/1 2/2/2 5/5/5
f 6/6/6 1/1/1 5/5/5
f 6/6/6 5/5/5 7/7/7
f 8/8/8 6/6/6 7/7/7
f 6/6/6 8/8/8 9/9/9
f 8/8/8 10/10/10 9/9/9
f 11/11/11 1/1/1 6/6/6
f 9/9/9 11/11/11 6/6/6
f 12/12/12 4/4/4 1/1/1
f 11/11/11 12/12/12 1/1/1
f 13/13/13 9/9/9 10/10/10
f 11/11/11 9/9/9 13/13/13
f 14/14/14 13/13/13 10/10/10
f 15/15/15 11/11/11 13/13/13
f 16/16/16 12/12/12 11/11/11
f 15/15/15 16/16/16 11/11/11
f 13/13/13 14/14/14 17/17/17
f 14/14/14 18/18/18 17/17/17
f 19/19/19 15/15/15 13/13/13
f 17/17/17 19/19/19 13/13/13
f 20/20/20 16/16/16 15/15/15
f 19/19/19 20/20/20 15/15/15
f 21/21/21 17/17/17 18/18/18
f 22/22/22 21/21/21 18/18/18
f 23/23/23 19/19/19 17/17/17
f 21/21/21 23/23/23 17/17/17
f 24/24/24 20/20/20 19/19/19
f 23/23/23 24/24/24 19/19/19
f 21/21/21 22/22/22 25/25/25
f 22/22/22 26/26/26 25/25/25
f 27/27/27 23/23/23 21/21/21
f 25/25/25 27/27/27 21/21/21
f 28/28/28 24/24/24 23/23/23
f 27/27/27 28/28/28 23/23/23
f 29/29/29 25/25/25 26/26/26
f 30/30/30 29/29/29 26/26/26
f 31/31/31 27/27/27 25/25/25
f 29/29/29 31/31/31 25/25/25
f 32/32/32 28/28/28 27/27/27
f 31/31/31 32/32/32 27/27/27
f 33/33/33 29/29/29 30/30/30
f 34/34/34 33/33/33 30/30/30
f 32/32/32 31/31/31 35/35/35
f 31/31/31 36/36/36 35/35/35
f 36/36/36 31/31/31 29/29/29
f 33/33/33 36/36/36 29/29/29
f 35/35/35 36/36/36 37/37/37
f 36/36/36 38/38/38 37/37/37
f 36/36/36 33/33/33 38/38/38
f 33/33/33 39/39/39 38/38/38
f 33/33/33 34/34/34 39/39/39
f 34/34/34 40/40/40 39/39/39
f 41/41/41 39/39/39 40/40/40
f 42/42/42 41/41/41 40/40/40
f 43/43/43 38/38/38 39/39/39
f 41/41/41 43/43/43 39/39/39
f 38/38/38 43/43/43 44/44/44
f 37/37/37 38/38/38 44/44/44
f 41/41/41 42/42/42 45/45/45
f 42/42/42 46/46/46 45/45/45
f 41/41/41 45/45/45 47/47/47
f 43/43/43 41/41/41 47/47/47
f 48/48/48 44/44/44 43/43/43
f 47/47/47 48/48/48 43/43/43
f 45/45/45 46/46/46 49/49/49
f 46/46/46 50/50/50 49/49/49
f 51/51/51 47/47/47 45/45/45
f 49/49/49 51/51/51 45/45/45
f 52/52/52 48/48/48 47/47/47
f 51/51/51 52/52/52 47/47/47
f 49/49/49 50/50/50 53/53/53
f 50/50/50 54/54/54 53/53/53
f 55/55/55 51/51/51 49/49/49
f 53/53/53 55/55/55 49/49/49
f 56/56/56 52/52/52 51/51/51
f 55/55/55 56/56/56 51/51/51
f 53/53/53 54/54/54 57/57/57
f 54/54/54 58/58/58 57/57/57
f 59/59/59 55/55/55 53/53/53
f 57/57/57 59/59/59 53/53/53
f 60/60/60 56/56/56 55/55/55
f 59/59/59 60/60/60 55/55/55
f 61/61/61 57/57/57 58/58/58
f 62/62/62 61/61/61 58/58/58
f 63/63/63 59/59/59 57/57/57
f 61/61/61 63/63/63 57/57/57
f 64/64/64 60/60/60 59/59/59
f 63/63/63 64/64/64 59/59/59
f 64/64/64 63/63/63 65/65/65
f 63/63/63 66/66/66 65/65/65
f 63/63/63 61/61/61 66/66/66
f 61/61/61 67/67/67 66/66/66
f 61/61/61 62/62/62 67/67/67
f 62/62/62 68/68/68 67/67/67
f 65/65/65 66/66/66 69/69/69
f 66/66/66 70/70/70 69/69/69
f 66/66/66 67/67/67 70/70/70
f 67/67/67 68/68/68 71/71/71
f 67/67/67 71/71/71 70/70/70
f 68/68/68 72/72/72 71/71/71
f 69/69/69 70/70/70 73/73/73
f 70/70/70 74/74/74 73/73/73
f 70/70/70 71/71/71 74/74/74
f 71/71/71 75/75/75 74/74/74
f 71/71/71 72/72/72 75/75/75
f 72/72/72 76/76/76 75/75/75
f 65/65/65 77/77/77 64/64/64
f 77/77/77 78/78/78 64/64/64
f 64/64/64 78/78/78 60/60/60
f 78/78/78 79/79/79 60/60/60
f 60/60/60 79/79/79 56/56/56
f 79/79/79 80/80/80 56/56/56
f 56/56/56 80/80/80 52/52/52
f 80/80/80 81/81/81 52/52/52
f 52/52/52 81/81/81 48/48/48
f 81/81/81 82/82/82 48/48/48
f 48/48/48 82/82/82 44/44/44
f 82/82/82 83/83/83 44/44/44
f 44/44/44 83/83/83 37/37/37
f 83/83/83 84/84/84 37/37/37
f 37/37/37 84/84/84 35/35/35
f 84/84/84 85/85/85 35/35/35
f 35/35/35 85/85/85 32/32/32
f 85/85/85 86/86/86 32/32/32
f 32/32/32 86/86/86 28/28/28
f 86/86/86 87/87/87 28/28/28
f 28/28/28 87/87/87 24/24/24
f 87/87/87 88/88/88 24/24/24
f 24/24/24 88/88/88 20/20/20
f 88/88/88 89/89/89 20/20/20
f 20/20/20 89/89/89 16/16/16
f 89/89/89 90/90/90 16/16/16
f 16/16/16 90/90/90 12/12/12
f 90/90/90 91/91/91 12/12/12
f 12/12/12 91/91/91 4/4/4
f 91/91/91 92/92/92 4/4/4
f 4/4/4 92/92/92 3/3/3
f 92/92/92 93/93/93 3/3/3
f 3/3/3 94/94/94 2/2/2
f 94/94/94 95/95/95 2/2/2
f 2/2/2 95/95/95 5/5/5
f 95/95/95 96/96/96 5/5/5
f 5/5/5 96/96/96 7/7/7
f 96/96/96 97/97/97 7/7/7
f 7/7/7 98/98/98 8/8/8
f 98/98/98 99/99/99 8/8/8
f 8/8/8 99/99/99 10/10/10
f 99/99/99 100/100/100 10/10/10
f 10/10/10 100/100/100 14/14/14
f 100/100/100 101/101/101 14/14/14
f 14/14/14 101/101/101 18/18/18
f 101/101/101 102/102/102 18/18/18
f 18/18/18 102/102/102 22/22/22
f 102/102/102 103/103/103 22/22/22
f 22/22/22 103/103/103 26/26/26
f 103/103/103 104/104/104 26/26/26
f 26/26/26 104/104/104 30/30/30
f 104/104/104 105/105/105 30/30/30
f 30/30/30 105/105/105 34/34/34
f 105/105/105 106/106/106 34/34/34
f 34/34/34 106/106/106 40/40/40
f 106/106/106 107/107/107 40/40/40
f 40/40/40 107/107/107 42/42/42
f 107/107/107 108/108/108 42/42/42
f 42/42/42 108/108/108 46/46/46
f 108/108/108 109/109/109 46/46/46
f 46/46/46 109/109/109 50/50/50
f 109/109/109 110/110/110 50/50/50
f 50/50/50 110/110/110 54/54/54
f 110/110/110 111/111/111 54/54/54
f 54/54/54 111/111/111 58/58/58
f 111/111/111 112/112/112 58/58/58
f 58/58/58 112/112/112 62/62/62
f 112/112/112 113/113/113 62/62/62
f 62/62/62 113/113/113 68/68/68
f 113/113/113 114/114/114 68/68/68
f 68/68/68 114/114/114 72/72/72
f 114/114/114 115/115/115 72/72/72
f 72/72/72 115/115/115 76/76/76
f 115/115/115 116/116/116 76/76/76
f 76/76/76 117/117/117 75/75/75
f 117/117/117 118/118/118 75/75/75
f 75/75/75 118/118/118 74/74/74
f 118/118/118 119/119/119 74/74/74
f 74/74/74 119/119/119 73/73/73
f 119/119/119 120/120/120 73/73/73
f 73/73/73 121/121/121 69/69/69
f 121/121/121 122/122/122 69/69/69
f 69/69/69 122/122/122 65/65/65
f 122/122/122 77/77/77 65/65/65
