g S_Bag_metal_06
v -0.1184968 0.8923234 -1.55308
v -0.1065842 0.8916638 -1.555439
v -0.1078437 0.8891706 -1.559314
v -0.1190423 0.8897696 -1.557096
v -0.09390976 0.8826816 -1.562083
v -0.09185874 0.8846028 -1.558343
v -0.08365212 0.8713987 -1.564092
v -0.08102466 0.8722621 -1.560368
v -0.08877227 0.8886948 -1.557704
v -0.07621341 0.8744614 -1.559906
v -0.1187467 0.8972901 -1.551894
v -0.1053739 0.8965729 -1.554527
v -0.1300691 0.8893722 -1.550792
v -0.1299255 0.8870175 -1.554946
v -0.1431868 0.8796027 -1.548169
v -0.1423803 0.8779699 -1.552492
v -0.1317378 0.8940019 -1.54931
v -0.1465299 0.8830665 -1.546248
v -0.1514368 0.8654341 -1.546346
v -0.1502791 0.8649661 -1.550893
v -0.1514784 0.8588108 -1.550587
v -0.1527452 0.8585481 -1.545881
v -0.1517417 0.853175 -1.545857
v -0.1505754 0.854386 -1.550676
v -0.1561072 0.8666728 -1.543986
v -0.156083 0.8505683 -1.543588
v -0.1576468 0.8580893 -1.543458
v -0.1474658 0.8517526 -1.551293
v -0.1480017 0.8498123 -1.546596
v -0.1409297 0.8481073 -1.5481
v -0.140932 0.8503211 -1.552607
v -0.1423517 0.8429739 -1.546388
v -0.1507972 0.8453628 -1.544611
v -0.08798052 0.853232 -1.55871
v -0.09001314 0.8552096 -1.562709
v -0.08131992 0.8562762 -1.559958
v -0.08383983 0.8578665 -1.563919
v -0.07732136 0.852554 -1.559343
v -0.08519477 0.8485792 -1.557855
v -0.08128391 0.8610427 -1.564424
v -0.07828666 0.8602877 -1.560561
v -0.07838181 0.8657451 -1.560734
v -0.08127132 0.8655658 -1.564507
v -0.07303562 0.8663462 -1.560361
v -0.07311103 0.8586745 -1.5602
v -0.07511524 0.8500834 -1.56317
v -0.08378364 0.8453751 -1.561489
v -0.1445008 0.8393779 -1.549394
v -0.1538884 0.8423153 -1.547474
v -0.1600446 0.848713 -1.546295
v -0.1618203 0.8575886 -1.546143
v -0.1601291 0.8673131 -1.546631
v -0.1497673 0.8855217 -1.548774
v -0.1337486 0.8975185 -1.551923
v -0.1196729 0.901092 -1.5547
v -0.1051919 0.9003048 -1.557572
v -0.08726147 0.8916283 -1.561149
v -0.07372952 0.8757819 -1.563779
v -0.0887616 0.8913455 -1.567782
v -0.07531961 0.8756417 -1.570394
v -0.1209835 0.9007403 -1.561499
v -0.1065921 0.8999577 -1.564328
v -0.1349627 0.8971897 -1.558717
v -0.1508586 0.8852806 -1.55551
v -0.1611727 0.8672321 -1.553466
v -0.1628937 0.8576069 -1.553195
v -0.1611918 0.848847 -1.55363
v -0.1551135 0.842551 -1.554812
v -0.145778 0.8396623 -1.556575
v -0.0853474 0.8456247 -1.568449
v -0.07676538 0.8502689 -1.570206
v -0.07027912 0.8575456 -1.56417
v -0.07023811 0.8665826 -1.564351
v -0.07188655 0.8665366 -1.571111
v -0.07197834 0.8576165 -1.571169
v -0.09293547 0.8863592 -1.570292
v -0.08147686 0.8731394 -1.572734
v -0.07531961 0.8756417 -1.570394
v -0.0887616 0.8913455 -1.567782
v -0.1084489 0.893822 -1.567187
v -0.1065921 0.8999577 -1.564328
v -0.1210101 0.8945138 -1.564705
v -0.1209835 0.9007403 -1.561499
v -0.1332118 0.8914061 -1.56229
v -0.1349627 0.8971897 -1.558717
v -0.1470625 0.8810844 -1.559616
v -0.1508586 0.8852806 -1.55551
v -0.1559279 0.8659039 -1.558126
v -0.1611727 0.8672321 -1.553466
v -0.1574257 0.8582844 -1.557999
v -0.1628937 0.8576069 -1.553195
v -0.1562931 0.8519677 -1.558346
v -0.1611918 0.848847 -1.55363
v -0.1551135 0.842551 -1.554812
v -0.1518872 0.8478134 -1.559198
v -0.1441841 0.8458266 -1.560589
v -0.145778 0.8396623 -1.556575
v -0.08930534 0.8511689 -1.571279
v -0.0853474 0.8456247 -1.568449
v -0.08216202 0.8546036 -1.572791
v -0.07676538 0.8502689 -1.570206
v -0.07197834 0.8576165 -1.571169
v -0.07862698 0.8595184 -1.57351
v -0.0786478 0.8659348 -1.573413
v -0.07188655 0.8665366 -1.571111
v -0.1422197 0.8495106 -1.557513
v -0.1489685 0.8510361 -1.556268
v -0.1523127 0.853922 -1.555642
v -0.153185 0.8586894 -1.555315
v -0.1519031 0.8651047 -1.555468
v -0.143882 0.8785376 -1.557078
v -0.1312153 0.8878644 -1.559677
v -0.1200828 0.8906938 -1.561901
v -0.1086155 0.8900689 -1.564147
v -0.09438131 0.883354 -1.56686
v -0.08392853 0.8716773 -1.568855
v -0.0814835 0.8656012 -1.569404
v -0.08149494 0.8607434 -1.569532
v -0.08421844 0.8572764 -1.568961
v -0.09054378 0.8544843 -1.567647
v -0.09438131 0.883354 -1.56686
v -0.1086155 0.8900689 -1.564147
v -0.1200828 0.8906938 -1.561901
v -0.1312153 0.8878644 -1.559677
v -0.143882 0.8785376 -1.557078
v -0.1519031 0.8651047 -1.555468
v -0.153185 0.8586894 -1.555315
v -0.1523127 0.853922 -1.555642
v -0.1489685 0.8510361 -1.556268
v -0.1422197 0.8495106 -1.557513
v -0.09054378 0.8544843 -1.567647
v -0.08421844 0.8572764 -1.568961
v -0.08149494 0.8607434 -1.569532
v -0.0814835 0.8656012 -1.569404
v -0.08392853 0.8716773 -1.568855
vt 0.8941644 0.8546854
vt 0.8989466 0.8538063
vt 0.8984084 0.8523642
vt 0.8941414 0.8531556
vt 0.9031708 0.8489453
vt 0.9043232 0.849999
vt 0.9060979 0.8440642
vt 0.9075159 0.8443061
vt 0.9056038 0.8511685
vt 0.9092388 0.8445405
vt 0.8941904 0.8564053
vt 0.899526 0.855399
vt 0.889375 0.8538733
vt 0.8898768 0.8523901
vt 0.8838981 0.8503243
vt 0.8850098 0.8492311
vt 0.8888521 0.8555086
vt 0.8826622 0.8515442
vt 0.8804318 0.844829
vt 0.8818768 0.8445605
vt 0.8813763 0.8420833
vt 0.87993 0.8418947
vt 0.8803241 0.8395609
vt 0.8816356 0.8402082
vt 0.8786878 0.845112
vt 0.8786967 0.8388181
vt 0.8781567 0.8417181
vt 0.8826516 0.8388127
vt 0.8815597 0.8377582
vt 0.8841113 0.8361263
vt 0.884924 0.837473
vt 0.8830892 0.8346199
vt 0.880285 0.8364807
vt 0.9034354 0.8360487
vt 0.9026735 0.8374277
vt 0.9060074 0.8375122
vt 0.9049569 0.8385923
vt 0.9072291 0.8362083
vt 0.9044035 0.8345148
vt 0.9060153 0.839857
vt 0.9073032 0.8391842
vt 0.9078225 0.8414136
vt 0.906406 0.8416298
vt 0.9095693 0.8411931
vt 0.9088933 0.8384018
vt 0.9084369 0.8350296
vt 0.9052949 0.8330478
vt 0.8821558 0.8331555
vt 0.8790185 0.8353181
vt 0.8772011 0.8381172
vt 0.876483 0.8415182
vt 0.8770681 0.8454234
vt 0.8814839 0.8526947
vt 0.8883342 0.8570544
vt 0.8942159 0.8580503
vt 0.9000964 0.8569232
vt 0.9068298 0.8522649
vt 0.9108433 0.8447859
vt 0.9085405 0.8537118
vt 0.913063 0.8454753
vt 0.8942378 0.8604299
vt 0.9011049 0.859159
vt 0.8874302 0.8592409
vt 0.8798673 0.8542613
vt 0.8748643 0.8462633
vt 0.8740849 0.841461
vt 0.8748316 0.8369901
vt 0.8774469 0.8333979
vt 0.8814493 0.8307755
vt 0.9060035 0.8307125
vt 0.909936 0.8331253
vt 0.9103405 0.8376664
vt 0.911204 0.8409413
vt 0.9135486 0.8407578
vt 0.9126009 0.8364798
vt 0.9274302 0.7024348
vt 0.9236858 0.6973068
vt 0.9213408 0.6980764
vt 0.9258011 0.7042779
vt 0.932861 0.7056183
vt 0.9321485 0.7079635
vt 0.9374202 0.7062392
vt 0.937452 0.7087033
vt 0.9419599 0.7055105
vt 0.9427206 0.7078426
vt 0.9473164 0.7022749
vt 0.9489795 0.7040941
vt 0.9509767 0.6971292
vt 0.9533676 0.6978646
vt 0.951687 0.6943782
vt 0.9542261 0.6942921
vt 0.9513774 0.692039
vt 0.9537456 0.6909922
vt 0.9517093 0.6884105
vt 0.9499166 0.6903377
vt 0.9471961 0.6892485
vt 0.9483227 0.6868593
vt 0.9273866 0.6894412
vt 0.9262615 0.6871077
vt 0.9246879 0.6905504
vt 0.9229259 0.6886789
vt 0.9209277 0.6912532
vt 0.9232541 0.6922486
vt 0.9229608 0.6945714
vt 0.9204698 0.6945286
vt 0.9464847 0.6909117
vt 0.9487531 0.691687
vt 0.9498045 0.6927884
vt 0.9499778 0.6944416
vt 0.94936 0.6966065
vt 0.9461793 0.7010201
vt 0.9414296 0.7039034
vt 0.9373981 0.7045603
vt 0.9333562 0.7040023
vt 0.928542 0.7011611
vt 0.925265 0.696752
vt 0.9246341 0.6946009
vt 0.9247997 0.6929578
vt 0.9258305 0.691857
vt 0.9280919 0.691069
vt 0.9020537 0.847963
vt 0.8977866 0.8509352
vt 0.8941448 0.8514843
vt 0.89046 0.8509085
vt 0.8860874 0.8482091
vt 0.8832639 0.8441627
vt 0.8827615 0.8421646
vt 0.8829376 0.8408164
vt 0.883608 0.8398375
vt 0.8854228 0.8388901
vt 0.9022033 0.8388863
vt 0.9040359 0.8396454
vt 0.904726 0.8405297
vt 0.9050365 0.8417838
vt 0.9047229 0.8436744
vn 0.6032119 -0.2545866 0.7558578
vn 0.4417524 -0.3252887 0.8360873
vn 0.3305579 -0.9014559 0.2794792
vn 0.6305201 -0.7644588 0.1343392
vn 0.0007228248 -0.9177437 0.3971726
vn 0.2575584 -0.3494462 0.9008613
vn -0.2725126 -0.8379066 0.4729159
vn 0.09622379 -0.3103534 0.9457387
vn 0.3590668 0.4832835 0.798441
vn 0.4385318 0.480758 0.7593166
vn 0.1917756 0.413069 0.8902786
vn 0.2671964 0.4655337 0.8437324
vn 0.7226853 -0.1210403 0.6804962
vn 0.8535824 -0.5208606 -0.01006254
vn 0.7981059 0.04515245 0.600823
vn 0.967142 -0.2133576 -0.1382562
vn 0.1149806 0.355847 0.9274439
vn 0.0638672 0.2725146 0.9600296
vn 0.8070396 0.2117689 0.5512179
vn 0.9734806 0.07173767 -0.2172306
vn 0.8494582 0.461145 -0.2564493
vn 0.7205746 0.430082 0.5438766
vn 0.5155777 0.5913559 0.6200628
vn 0.4913751 0.8513998 -0.1834911
vn 0.03160078 0.1926168 0.980765
vn 0.156069 -0.0901418 0.9836245
vn 0.05559391 0.0623698 0.9965036
vn -0.09006382 0.9959336 -0.00220913
vn 0.2436668 0.6867398 0.6848466
vn -0.008622661 0.6428713 0.7659258
vn -0.4857441 0.8582003 0.1659666
vn 0.5309008 -0.1076609 0.8405673
vn 0.3575804 -0.132476 0.9244384
vn -0.04498709 0.618581 0.7844321
vn -0.5343075 0.8231019 0.1924025
vn -0.1527422 0.400221 0.9035999
vn -0.7824339 0.4935948 0.3796859
vn 0.6301783 0.0685168 0.7734215
vn 0.5463843 -0.09297726 0.8323578
vn -0.8298273 -0.1130839 0.5464418
vn -0.1409718 0.1103931 0.9838396
vn -0.07419436 -0.1555129 0.9850436
vn -0.5937913 -0.5943397 0.5423765
vn 0.5482803 0.413743 0.7267775
vn 0.6512349 0.267209 0.7102764
vn 0.9611338 -0.2758891 -0.01034783
vn 0.6839825 -0.7110927 0.1628349
vn 0.6015002 -0.7713489 0.2078907
vn 0.1265757 -0.8833374 0.4513241
vn -0.3510037 -0.723526 0.5943959
vn -0.6661195 -0.3872139 0.6374561
vn -0.7982143 -0.01211674 0.6022517
vn -0.7860181 0.2850681 0.5485542
vn -0.661969 0.6025466 0.4457966
vn -0.4376846 0.8417411 0.3160761
vn -0.1494997 0.975219 0.1630884
vn 0.1755918 0.9842849 0.01872982
vn 0.4456933 0.8913551 -0.08272599
vn -0.1032925 0.7425238 -0.6618075
vn 0.1532997 0.668361 -0.7278687
vn -0.6744707 0.5994264 -0.4310189
vn -0.4070061 0.727138 -0.5528257
vn -0.873206 0.388268 -0.2945493
vn -0.9785538 0.1067667 -0.1761634
vn -0.9830458 -0.1558287 -0.09663579
vn -0.8649414 -0.4984038 -0.05890732
vn -0.5730867 -0.8147556 -0.08800574
vn -0.1286237 -0.9632895 -0.2356469
vn 0.3294258 -0.8524513 -0.4059625
vn 0.402224 -0.7985376 -0.447832
vn 0.6324943 -0.4082898 -0.6582174
vn 0.9635973 0.2319878 -0.1328979
vn 0.7522323 0.6426494 -0.1454245
vn 0.4372084 0.4462197 -0.7808564
vn 0.6440681 0.06993318 -0.7617648
vn -0.3391601 -0.08466832 -0.9369107
vn -0.3065775 -0.07669007 -0.9487512
vn 0.1532997 0.668361 -0.7278687
vn -0.1032925 0.7425238 -0.6618075
vn -0.3792203 -0.0919045 -0.920731
vn -0.4070061 0.727138 -0.5528257
vn -0.4105118 -0.1223788 -0.9036058
vn -0.6744707 0.5994264 -0.4310189
vn -0.4478962 -0.1411022 -0.8828812
vn -0.873206 0.388268 -0.2945493
vn -0.4677354 -0.1748628 -0.8663987
vn -0.9785538 0.1067667 -0.1761634
vn -0.4873121 -0.2005602 -0.8498839
vn -0.9830458 -0.1558287 -0.09663579
vn -0.4918195 -0.2626072 -0.8301512
vn -0.8649414 -0.4984038 -0.05890732
vn -0.4525344 -0.3679696 -0.8122874
vn -0.5730867 -0.8147556 -0.08800574
vn -0.1286237 -0.9632895 -0.2356469
vn -0.3330859 -0.3795977 -0.8631103
vn -0.244241 -0.3511184 -0.9039149
vn 0.3294258 -0.8524513 -0.4059625
vn -0.2426386 -0.346211 -0.9062364
vn 0.402224 -0.7985376 -0.447832
vn -0.1892966 -0.2717739 -0.9435601
vn 0.6324943 -0.4082898 -0.6582174
vn 0.6440681 0.06993318 -0.7617648
vn -0.1565066 -0.1554373 -0.9753692
vn -0.2458893 -0.0912313 -0.964995
vn 0.4372084 0.4462197 -0.7808564
vn -0.6492231 0.6255994 -0.4325907
vn -0.3036355 0.7185563 -0.6256855
vn 0.1690414 0.5769019 -0.7991304
vn 0.5124869 0.2775853 -0.8125907
vn 0.6301302 -0.06178431 -0.7740275
vn 0.6062332 -0.319116 -0.7284546
vn 0.4834508 -0.5898635 -0.6467893
vn 0.2892198 -0.798569 -0.5278631
vn 0.0346597 -0.9161125 -0.3994201
vn -0.2388903 -0.9348157 -0.2627759
vn -0.4710917 -0.8663903 -0.1656511
vn -0.7526794 -0.6489348 -0.1111636
vn -0.9540327 -0.2429303 -0.1755179
vn -0.9188516 0.2730333 -0.2848938
vn -0.6952506 0.5928839 -0.4063438
vn -0.2388903 -0.9348157 -0.2627759
vn 0.0346597 -0.9161125 -0.3994201
vn 0.2892198 -0.798569 -0.5278631
vn 0.4834508 -0.5898635 -0.6467893
vn 0.6062332 -0.319116 -0.7284546
vn 0.6301302 -0.06178431 -0.7740275
vn 0.5124869 0.2775853 -0.8125907
vn 0.1690414 0.5769019 -0.7991304
vn -0.3036355 0.7185563 -0.6256855
vn -0.6492231 0.6255994 -0.4325907
vn -0.6952506 0.5928839 -0.4063438
vn -0.9188516 0.2730333 -0.2848938
vn -0.9540327 -0.2429303 -0.1755179
vn -0.7526794 -0.6489348 -0.1111636
vn -0.4710917 -0.8663903 -0.1656511
g S_Bag_metal_06_0
f 3/3/3 2/2/2 1/1/1
f 4/4/4 3/3/3 1/1/1
f 3/3/3 5/5/5 2/2/2
f 5/5/5 6/6/6 2/2/2
f 5/5/5 7/7/7 6/6/6
f 7/7/7 8/8/8 6/6/6
f 6/6/6 8/8/8 9/9/9
f 8/8/8 10/10/10 9/9/9
f 1/1/1 2/2/2 11/11/11
f 2/2/2 12/12/12 11/11/11
f 6/6/6 9/9/9 12/12/12
f 2/2/2 6/6/6 12/12/12
f 4/4/4 1/1/1 13/13/13
f 14/14/14 4/4/4 13/13/13
f 14/14/14 13/13/13 15/15/15
f 16/16/16 14/14/14 15/15/15
f 1/1/1 11/11/11 17/17/17
f 13/13/13 1/1/1 17/17/17
f 13/13/13 17/17/17 18/18/18
f 15/15/15 13/13/13 18/18/18
f 16/16/16 15/15/15 19/19/19
f 20/20/20 16/16/16 19/19/19
f 21/21/21 20/20/20 19/19/19
f 22/22/22 21/21/21 19/19/19
f 21/21/21 22/22/22 23/23/23
f 24/24/24 21/21/21 23/23/23
f 15/15/15 18/18/18 25/25/25
f 19/19/19 15/15/15 25/25/25
f 23/23/23 22/22/22 26/26/26
f 22/22/22 27/27/27 26/26/26
f 19/19/19 25/25/25 27/27/27
f 22/22/22 19/19/19 27/27/27
f 28/28/28 24/24/24 23/23/23
f 29/29/29 28/28/28 23/23/23
f 29/29/29 23/23/23 26/26/26
f 28/28/28 29/29/29 30/30/30
f 31/31/31 28/28/28 30/30/30
f 30/30/30 29/29/29 32/32/32
f 29/29/29 33/33/33 32/32/32
f 33/33/33 29/29/29 26/26/26
f 31/31/31 30/30/30 34/34/34
f 35/35/35 31/31/31 34/34/34
f 35/35/35 34/34/34 36/36/36
f 37/37/37 35/35/35 36/36/36
f 36/36/36 34/34/34 38/38/38
f 34/34/34 39/39/39 38/38/38
f 30/30/30 32/32/32 39/39/39
f 34/34/34 30/30/30 39/39/39
f 40/40/40 37/37/37 36/36/36
f 41/41/41 40/40/40 36/36/36
f 41/41/41 36/36/36 38/38/38
f 40/40/40 41/41/41 42/42/42
f 43/43/43 40/40/40 42/42/42
f 7/7/7 43/43/43 42/42/42
f 8/8/8 7/7/7 42/42/42
f 42/42/42 41/41/41 44/44/44
f 41/41/41 45/45/45 44/44/44
f 45/45/45 41/41/41 38/38/38
f 42/42/42 44/44/44 10/10/10
f 8/8/8 42/42/42 10/10/10
f 38/38/38 39/39/39 46/46/46
f 45/45/45 38/38/38 46/46/46
f 39/39/39 47/47/47 46/46/46
f 39/39/39 32/32/32 47/47/47
f 32/32/32 48/48/48 47/47/47
f 32/32/32 33/33/33 48/48/48
f 33/33/33 49/49/49 48/48/48
f 49/49/49 33/33/33 50/50/50
f 33/33/33 26/26/26 50/50/50
f 26/26/26 27/27/27 50/50/50
f 27/27/27 51/51/51 50/50/50
f 51/51/51 27/27/27 52/52/52
f 27/27/27 25/25/25 52/52/52
f 25/25/25 18/18/18 52/52/52
f 18/18/18 53/53/53 52/52/52
f 18/18/18 17/17/17 53/53/53
f 17/17/17 54/54/54 53/53/53
f 17/17/17 11/11/11 54/54/54
f 11/11/11 55/55/55 54/54/54
f 11/11/11 12/12/12 55/55/55
f 12/12/12 56/56/56 55/55/55
f 12/12/12 9/9/9 56/56/56
f 9/9/9 57/57/57 56/56/56
f 9/9/9 10/10/10 57/57/57
f 10/10/10 58/58/58 57/57/57
f 57/57/57 58/58/58 59/59/59
f 58/58/58 60/60/60 59/59/59
f 55/55/55 56/56/56 61/61/61
f 56/56/56 62/62/62 61/61/61
f 57/57/57 59/59/59 62/62/62
f 56/56/56 57/57/57 62/62/62
f 55/55/55 61/61/61 63/63/63
f 54/54/54 55/55/55 63/63/63
f 54/54/54 63/63/63 64/64/64
f 53/53/53 54/54/54 64/64/64
f 53/53/53 64/64/64 65/65/65
f 52/52/52 53/53/53 65/65/65
f 52/52/52 65/65/65 66/66/66
f 51/51/51 52/52/52 66/66/66
f 51/51/51 66/66/66 67/67/67
f 50/50/50 51/51/51 67/67/67
f 49/49/49 50/50/50 67/67/67
f 68/68/68 49/49/49 67/67/67
f 49/49/49 68/68/68 69/69/69
f 48/48/48 49/49/49 69/69/69
f 48/48/48 69/69/69 70/70/70
f 47/47/47 48/48/48 70/70/70
f 47/47/47 70/70/70 71/71/71
f 46/46/46 47/47/47 71/71/71
f 72/72/72 46/46/46 71/71/71
f 72/72/72 45/45/45 46/46/46
f 45/45/45 72/72/72 73/73/73
f 44/44/44 45/45/45 73/73/73
f 10/10/10 44/44/44 73/73/73
f 58/58/58 10/10/10 73/73/73
f 73/73/73 72/72/72 74/74/74
f 72/72/72 75/75/75 74/74/74
f 75/75/75 72/72/72 71/71/71
f 73/73/73 74/74/74 60/60/60
f 58/58/58 73/73/73 60/60/60
f 78/78/78 77/77/77 76/76/76
f 79/79/79 78/78/78 76/76/76
f 79/79/79 76/76/76 80/80/80
f 81/81/81 79/79/79 80/80/80
f 81/81/81 80/80/80 82/82/82
f 83/83/83 81/81/81 82/82/82
f 83/83/83 82/82/82 84/84/84
f 85/85/85 83/83/83 84/84/84
f 85/85/85 84/84/84 86/86/86
f 87/87/87 85/85/85 86/86/86
f 87/87/87 86/86/86 88/88/88
f 89/89/89 87/87/87 88/88/88
f 89/89/89 88/88/88 90/90/90
f 91/91/91 89/89/89 90/90/90
f 91/91/91 90/90/90 92/92/92
f 93/93/93 91/91/91 92/92/92
f 94/94/94 93/93/93 92/92/92
f 95/95/95 94/94/94 92/92/92
f 94/94/94 95/95/95 96/96/96
f 97/97/97 94/94/94 96/96/96
f 97/97/97 96/96/96 98/98/98
f 99/99/99 97/97/97 98/98/98
f 99/99/99 98/98/98 100/100/100
f 101/101/101 99/99/99 100/100/100
f 102/102/102 101/101/101 100/100/100
f 103/103/103 102/102/102 100/100/100
f 102/102/102 103/103/103 104/104/104
f 105/105/105 102/102/102 104/104/104
f 105/105/105 104/104/104 77/77/77
f 78/78/78 105/105/105 77/77/77
f 96/96/96 95/95/95 106/106/106
f 98/98/98 96/96/96 106/106/106
f 95/95/95 107/107/107 106/106/106
f 107/107/107 95/95/95 108/108/108
f 95/95/95 92/92/92 108/108/108
f 92/92/92 90/90/90 108/108/108
f 90/90/90 109/109/109 108/108/108
f 109/109/109 90/90/90 110/110/110
f 90/90/90 88/88/88 110/110/110
f 88/88/88 86/86/86 110/110/110
f 86/86/86 111/111/111 110/110/110
f 86/86/86 84/84/84 111/111/111
f 84/84/84 112/112/112 111/111/111
f 84/84/84 82/82/82 112/112/112
f 82/82/82 113/113/113 112/112/112
f 82/82/82 80/80/80 113/113/113
f 80/80/80 114/114/114 113/113/113
f 114/114/114 80/80/80 115/115/115
f 80/80/80 76/76/76 115/115/115
f 76/76/76 77/77/77 115/115/115
f 77/77/77 116/116/116 115/115/115
f 116/116/116 77/77/77 117/117/117
f 77/77/77 104/104/104 117/117/117
f 104/104/104 103/103/103 117/117/117
f 103/103/103 118/118/118 117/117/117
f 118/118/118 103/103/103 119/119/119
f 103/103/103 100/100/100 119/119/119
f 100/100/100 98/98/98 119/119/119
f 98/98/98 120/120/120 119/119/119
f 120/120/120 98/98/98 106/106/106
f 3/3/3 122/122/122 121/121/121
f 5/5/5 3/3/3 121/121/121
f 122/122/122 3/3/3 123/123/123
f 3/3/3 4/4/4 123/123/123
f 123/123/123 4/4/4 124/124/124
f 4/4/4 14/14/14 124/124/124
f 124/124/124 14/14/14 125/125/125
f 14/14/14 16/16/16 125/125/125
f 125/125/125 16/16/16 126/126/126
f 16/16/16 20/20/20 126/126/126
f 20/20/20 21/21/21 126/126/126
f 21/21/21 127/127/127 126/126/126
f 127/127/127 21/21/21 128/128/128
f 21/21/21 24/24/24 128/128/128
f 129/129/129 128/128/128 24/24/24
f 28/28/28 129/129/129 24/24/24
f 129/129/129 28/28/28 130/130/130
f 28/28/28 31/31/31 130/130/130
f 31/31/31 35/35/35 130/130/130
f 35/35/35 131/131/131 130/130/130
f 131/131/131 35/35/35 132/132/132
f 35/35/35 37/37/37 132/132/132
f 133/133/133 132/132/132 37/37/37
f 40/40/40 133/133/133 37/37/37
f 133/133/133 40/40/40 134/134/134
f 40/40/40 43/43/43 134/134/134
f 43/43/43 7/7/7 134/134/134
f 7/7/7 135/135/135 134/134/134
f 135/135/135 7/7/7 121/121/121
f 7/7/7 5/5/5 121/121/121
