g S_Bag_metal_08
v 0.2851357 0.8847022 -1.512374
v 0.2954431 0.8801529 -1.507795
v 0.2959684 0.8780072 -1.51203
v 0.2862727 0.8822638 -1.516338
v 0.3063773 0.8672756 -1.507511
v 0.3063718 0.8686203 -1.503031
v 0.3121421 0.8532207 -1.505106
v 0.3122826 0.8533794 -1.500472
v 0.3095605 0.8715363 -1.500201
v 0.3163502 0.8539442 -1.497105
v 0.2857022 0.8895397 -1.51082
v 0.2972713 0.8844556 -1.505664
v 0.2740867 0.8857226 -1.517348
v 0.2758888 0.8832456 -1.521013
v 0.2596874 0.880802 -1.523893
v 0.2623043 0.8787878 -1.527225
v 0.2732965 0.8907095 -1.516387
v 0.257023 0.8852427 -1.52367
v 0.2482119 0.870123 -1.529033
v 0.2515636 0.8690878 -1.532184
v 0.2486876 0.8636619 -1.533491
v 0.2449502 0.8640486 -1.530377
v 0.2441535 0.8586447 -1.53058
v 0.2481526 0.8591821 -1.533706
v 0.2436345 0.8729041 -1.52951
v 0.2387691 0.8576775 -1.531508
v 0.2396684 0.8653004 -1.531178
v 0.2501324 0.8556656 -1.532869
v 0.2464766 0.8542306 -1.5296
v 0.2522748 0.8502821 -1.527156
v 0.2554882 0.8521571 -1.530529
v 0.2487201 0.8459632 -1.527288
v 0.2419086 0.8510114 -1.53017
v 0.3004896 0.8376785 -1.505734
v 0.3017852 0.8400043 -1.509851
v 0.3071989 0.8383678 -1.50262
v 0.3079862 0.8404849 -1.507032
v 0.308843 0.833597 -1.500438
v 0.3007961 0.8324268 -1.504164
v 0.3111566 0.8426481 -1.505567
v 0.3110333 0.841164 -1.500849
v 0.312637 0.8463498 -1.500251
v 0.3125215 0.8469198 -1.504972
v 0.3167043 0.8452269 -1.496893
v 0.3143365 0.8379999 -1.497917
v 0.3120095 0.8303667 -1.502709
v 0.3030297 0.8287659 -1.506824
v 0.247747 0.843101 -1.531464
v 0.2402885 0.8489765 -1.534672
v 0.2367361 0.8570566 -1.536193
v 0.2378517 0.8660303 -1.535765
v 0.2422409 0.874667 -1.533815
v 0.2566895 0.8884776 -1.52718
v 0.2742614 0.8945522 -1.519132
v 0.2876933 0.8932962 -1.513081
v 0.3002295 0.8877796 -1.507516
v 0.3135373 0.8736605 -1.50176
v 0.3208526 0.85421 -1.498709
v 0.3160927 0.8735485 -1.508067
v 0.3233693 0.8542626 -1.50503
v 0.2904692 0.8930502 -1.51943
v 0.3029137 0.8875688 -1.513878
v 0.2771152 0.8942973 -1.52542
v 0.2596297 0.8882693 -1.533339
v 0.2453209 0.87459 -1.540005
v 0.2410609 0.8660461 -1.542135
v 0.2400839 0.8571918 -1.542819
v 0.2436079 0.8492327 -1.54133
v 0.2509505 0.8434275 -1.538015
v 0.3058765 0.8291622 -1.513356
v 0.3148153 0.830726 -1.509362
v 0.318453 0.8358319 -1.499762
v 0.3212014 0.8443609 -1.498577
v 0.3237838 0.8445141 -1.505036
v 0.3211673 0.8361003 -1.506429
v 0.3128787 0.8700425 -1.513162
v 0.3192531 0.8537498 -1.510726
v 0.3233693 0.8542626 -1.50503
v 0.3160927 0.8735485 -1.508067
v 0.3013462 0.8822172 -1.518141
v 0.3029137 0.8875688 -1.513878
v 0.29048 0.8870103 -1.522975
v 0.2904692 0.8930502 -1.51943
v 0.2788293 0.8880902 -1.528216
v 0.2771152 0.8942973 -1.52542
v 0.2636783 0.882884 -1.535206
v 0.2596297 0.8882693 -1.533339
v 0.2516276 0.8714281 -1.541106
v 0.2453209 0.87459 -1.540005
v 0.2482017 0.8647036 -1.54294
v 0.2410609 0.8660461 -1.542135
v 0.2474437 0.8583474 -1.543513
v 0.2400839 0.8571918 -1.542819
v 0.2436079 0.8492327 -1.54133
v 0.2501135 0.8529658 -1.54237
v 0.2562504 0.8485543 -1.539525
v 0.2509505 0.8434275 -1.538015
v 0.3060564 0.8355356 -1.517066
v 0.3058765 0.8291622 -1.513356
v 0.3134004 0.8364272 -1.513844
v 0.3148153 0.830726 -1.509362
v 0.3211673 0.8361003 -1.506429
v 0.3179474 0.8399119 -1.511758
v 0.3197315 0.8459947 -1.51076
v 0.3237838 0.8445141 -1.505036
v 0.2570676 0.8515623 -1.53538
v 0.2516132 0.855225 -1.537882
v 0.2495214 0.8590558 -1.538806
v 0.2500431 0.8638617 -1.53833
v 0.25297 0.8695146 -1.536813
v 0.2639349 0.879581 -1.531732
v 0.2778457 0.8842283 -1.525481
v 0.2884857 0.8832363 -1.520717
v 0.2983963 0.8788678 -1.516287
v 0.3089387 0.8678291 -1.511589
v 0.3147314 0.8533399 -1.509121
v 0.3151662 0.8467819 -1.509096
v 0.3138258 0.8421827 -1.509912
v 0.3104054 0.839801 -1.511459
v 0.3039889 0.8392462 -1.514297
v 0.3089387 0.8678291 -1.511589
v 0.2983963 0.8788678 -1.516287
v 0.2884857 0.8832363 -1.520717
v 0.2778457 0.8842283 -1.525481
v 0.2639349 0.879581 -1.531732
v 0.25297 0.8695146 -1.536813
v 0.2500431 0.8638617 -1.53833
v 0.2495214 0.8590558 -1.538806
v 0.2516132 0.855225 -1.537882
v 0.2570676 0.8515623 -1.53538
v 0.3039889 0.8392462 -1.514297
v 0.3104054 0.839801 -1.511459
v 0.3138258 0.8421827 -1.509912
v 0.3151662 0.8467819 -1.509096
v 0.3147314 0.8533399 -1.509121
vt 0.8930764 0.8249997
vt 0.8978586 0.8241207
vt 0.8973203 0.8226786
vt 0.8930533 0.8234699
vt 0.9020827 0.8192596
vt 0.9032352 0.8203133
vt 0.9050099 0.8143786
vt 0.9064278 0.8146204
vt 0.9045158 0.8214828
vt 0.9081509 0.8148549
vt 0.8931023 0.8267196
vt 0.898438 0.8257133
vt 0.8882869 0.8241876
vt 0.8887889 0.8227044
vt 0.8828102 0.8206387
vt 0.8839217 0.8195454
vt 0.887764 0.8258229
vt 0.8815742 0.8218585
vt 0.8793437 0.8151433
vt 0.8807887 0.8148748
vt 0.8802882 0.8123976
vt 0.8788419 0.8122091
vt 0.879236 0.8098752
vt 0.8805476 0.8105226
vt 0.8775998 0.8154263
vt 0.8776087 0.8091325
vt 0.8770687 0.8120324
vt 0.8815637 0.8091271
vt 0.8804716 0.8080724
vt 0.8830232 0.8064407
vt 0.883836 0.8077874
vt 0.8820012 0.8049342
vt 0.8791969 0.8067951
vt 0.9023473 0.806363
vt 0.9015855 0.8077421
vt 0.9049194 0.8078266
vt 0.9038689 0.8089066
vt 0.9061411 0.8065226
vt 0.9033155 0.8048291
vt 0.9049273 0.8101712
vt 0.9062153 0.8094985
vt 0.9067345 0.8117279
vt 0.905318 0.8119441
vt 0.9084812 0.8115074
vt 0.9078053 0.8087162
vt 0.9073488 0.805344
vt 0.9042068 0.8033622
vt 0.8810678 0.8034698
vt 0.8779305 0.8056325
vt 0.8761131 0.8084316
vt 0.875395 0.8118325
vt 0.87598 0.8157378
vt 0.8803958 0.8230091
vt 0.8872462 0.8273687
vt 0.8931279 0.8283647
vt 0.8990083 0.8272375
vt 0.9057418 0.8225793
vt 0.9097552 0.8151003
vt 0.9074525 0.8240261
vt 0.911975 0.8157897
vt 0.8931498 0.8307442
vt 0.9000168 0.8294734
vt 0.8863422 0.8295552
vt 0.8787792 0.8245757
vt 0.8737762 0.8165777
vt 0.8729968 0.8117753
vt 0.8737436 0.8073044
vt 0.8763589 0.8037123
vt 0.8803612 0.8010898
vt 0.9049155 0.8010269
vt 0.9088479 0.8034397
vt 0.9092525 0.8079807
vt 0.910116 0.8112556
vt 0.9124606 0.8110721
vt 0.9115129 0.8067942
vt 0.8826362 0.7539874
vt 0.8788919 0.7488593
vt 0.8765469 0.7496291
vt 0.8810073 0.7558306
vt 0.8880671 0.7571709
vt 0.8873546 0.7595161
vt 0.8926263 0.7577919
vt 0.8926581 0.7602559
vt 0.897166 0.7570632
vt 0.8979267 0.7593953
vt 0.9025224 0.7538275
vt 0.9041857 0.7556468
vt 0.9061827 0.7486818
vt 0.9085737 0.7494172
vt 0.9068931 0.7459309
vt 0.9094322 0.7458448
vt 0.9065835 0.7435916
vt 0.9089517 0.7425448
vt 0.9069154 0.7399632
vt 0.9051227 0.7418904
vt 0.9024022 0.7408012
vt 0.9035287 0.738412
vt 0.8825927 0.7409938
vt 0.8814676 0.7386603
vt 0.879894 0.7421031
vt 0.878132 0.7402316
vt 0.8761338 0.7428058
vt 0.8784601 0.7438012
vt 0.8781669 0.7461241
vt 0.8756759 0.7460813
vt 0.9016908 0.7424643
vt 0.9039592 0.7432396
vt 0.9050106 0.7443411
vt 0.9051838 0.7459942
vt 0.904566 0.7481591
vt 0.9013854 0.7525728
vt 0.8966356 0.755456
vt 0.8926043 0.7561131
vt 0.8885623 0.7555549
vt 0.8837481 0.7527137
vt 0.8804711 0.7483046
vt 0.8798402 0.7461536
vt 0.8800058 0.7445105
vt 0.8810367 0.7434097
vt 0.883298 0.7426217
vt 0.9009656 0.8182774
vt 0.8966985 0.8212495
vt 0.8930568 0.8217986
vt 0.8893719 0.8212228
vt 0.8849993 0.8185234
vt 0.8821759 0.814477
vt 0.8816734 0.812479
vt 0.8818495 0.8111308
vt 0.8825199 0.8101519
vt 0.8843347 0.8092044
vt 0.9011152 0.8092006
vt 0.902948 0.8099598
vt 0.9036379 0.8108441
vt 0.9039485 0.8120981
vt 0.903635 0.8139887
vn 0.01564675 -0.5945995 0.8038697
vn -0.1746352 -0.6112689 0.7719151
vn -0.09590513 -0.9933704 0.063383
vn 0.2567703 -0.9579641 0.1279602
vn -0.4295684 -0.90302 0.00507907
vn -0.3639708 -0.5743195 0.7332683
vn -0.6724025 -0.7396401 -0.02841633
vn -0.5093051 -0.4851823 0.7107788
vn -0.03217709 0.1605334 0.9865058
vn 0.05258667 0.1348573 0.9894686
vn -0.2333615 0.1444455 0.9616018
vn -0.1350112 0.1714653 0.9758952
vn 0.1841078 -0.5057651 0.8427966
vn 0.5719677 -0.7965978 0.195665
vn 0.3270024 -0.3697138 0.8697017
vn 0.8049816 -0.53832 0.2494315
vn -0.3288191 0.1152766 0.937331
vn -0.4071947 0.05346106 0.9117754
vn 0.4000568 -0.2132301 0.8913403
vn 0.9195628 -0.268145 0.2872322
vn 0.9317744 0.1393982 0.3352081
vn 0.385273 0.0191414 0.9226041
vn 0.2162206 0.2302605 0.9488038
vn 0.6944615 0.6172967 0.3696863
vn -0.4631313 -0.01036995 0.8862289
vn -0.4303051 -0.314919 0.845969
vn -0.4827158 -0.140522 0.86443
vn 0.160938 0.9383571 0.3059167
vn -0.01591276 0.4091486 0.912329
vn -0.2736197 0.4513659 0.8493534
vn -0.2815922 0.9347452 0.2166965
vn -0.0544332 -0.4486903 0.8920281
vn -0.2455704 -0.4198267 0.873751
vn -0.3186656 0.4399392 0.8395867
vn -0.3433041 0.916772 0.2041354
vn -0.5212623 0.2619961 0.8121845
vn -0.721985 0.6795546 0.1301663
vn 0.1031916 -0.3148385 0.9435191
vn -0.03406813 -0.4398191 0.89744
vn -0.9924907 0.1176976 0.03330762
vn -0.6230773 -0.01967844 0.7819127
vn -0.6319333 -0.2865978 0.7200848
vn -0.9123083 -0.4082819 -0.03161414
vn 0.1431278 0.03785844 0.9889798
vn 0.2008556 -0.1315131 0.9707529
vn 0.7159684 -0.6153315 0.3297825
vn 0.296837 -0.9349834 0.1941487
vn 0.1917704 -0.9661248 0.1727049
vn -0.3495747 -0.9293947 0.1184184
vn -0.7750337 -0.6273719 0.07567861
vn -0.9739971 -0.2095442 0.08614439
vn -0.9738175 0.1873838 0.1287117
vn -0.8654439 0.461852 0.194164
vn -0.6354879 0.7206827 0.2770768
vn -0.3283702 0.8749653 0.3558213
vn 0.01828168 0.9130619 0.4074111
vn 0.3609554 0.8226866 0.4392016
vn 0.6121696 0.653202 0.4456182
vn 0.4499748 0.8299028 -0.3298242
vn 0.675422 0.6763406 -0.2938851
vn -0.1693304 0.8773605 -0.4489607
vn 0.1423073 0.9126372 -0.3831998
vn -0.4529942 0.7375699 -0.5007861
vn -0.6679983 0.5014719 -0.5498219
vn -0.7761452 0.250899 -0.5784879
vn -0.7814015 -0.1116224 -0.6139644
vn -0.6041139 -0.5049736 -0.6164804
vn -0.2002209 -0.7832986 -0.5885193
vn 0.2874793 -0.8275004 -0.482285
vn 0.3815116 -0.7989826 -0.4648397
vn 0.772624 -0.4956654 -0.3966964
vn 0.9030954 -0.1338743 0.4080395
vn 0.8353622 0.3215877 0.4458152
vn 0.8812689 0.3757471 -0.2866695
vn 0.9498351 -0.04795206 -0.3090532
vn 0.2165418 0.2179881 -0.9516253
vn 0.2510835 0.2148876 -0.9438117
vn 0.675422 0.6763406 -0.2938851
vn 0.4499748 0.8299028 -0.3298242
vn 0.1737745 0.2238565 -0.9590051
vn 0.1423073 0.9126372 -0.3831998
vn 0.1321212 0.2051075 -0.9697808
vn -0.1693304 0.8773605 -0.4489607
vn 0.08634127 0.1987231 -0.976245
vn -0.4529942 0.7375699 -0.5007861
vn 0.05350492 0.1727639 -0.983509
vn -0.6679983 0.5014719 -0.5498219
vn 0.02275304 0.1540397 -0.9878027
vn -0.7761452 0.250899 -0.5784879
vn -0.006094883 0.095977 -0.9953649
vn -0.7814015 -0.1116224 -0.6139644
vn -0.008734882 -0.01782019 -0.9998031
vn -0.6041139 -0.5049736 -0.6164804
vn -0.2002209 -0.7832986 -0.5885193
vn 0.112468 -0.06496762 -0.9915292
vn 0.2129402 -0.06587096 -0.9748423
vn 0.2874793 -0.8275004 -0.482285
vn 0.2166404 -0.06162194 -0.9743047
vn 0.3815116 -0.7989826 -0.4648397
vn 0.2972707 -0.007806397 -0.9547614
vn 0.772624 -0.4956654 -0.3966964
vn 0.9498351 -0.04795206 -0.3090532
vn 0.3682007 0.09085 -0.925297
vn 0.3054594 0.1814134 -0.934764
vn 0.8812689 0.3757471 -0.2866695
vn -0.1420563 0.8917415 -0.429671
vn 0.2632259 0.8782774 -0.3991756
vn 0.7055172 0.5999401 -0.3772495
vn 0.9198484 0.1996566 -0.3376628
vn 0.9145342 -0.160005 -0.3715181
vn 0.8104426 -0.3924028 -0.4349745
vn 0.6038802 -0.6055823 -0.5182652
vn 0.3339646 -0.7417871 -0.5815665
vn 0.03150129 -0.77391 -0.6325116
vn -0.2676807 -0.7105464 -0.6507464
vn -0.4917087 -0.5769669 -0.6521747
vn -0.69758 -0.2817606 -0.6587815
vn -0.7301108 0.1746936 -0.6606212
vn -0.5218822 0.6487548 -0.5538557
vn -0.2010648 0.8749912 -0.4404126
vn -0.2676807 -0.7105464 -0.6507464
vn 0.03150129 -0.77391 -0.6325116
vn 0.3339646 -0.7417871 -0.5815665
vn 0.6038802 -0.6055823 -0.5182652
vn 0.8104426 -0.3924028 -0.4349745
vn 0.9145342 -0.160005 -0.3715181
vn 0.9198484 0.1996566 -0.3376628
vn 0.7055172 0.5999401 -0.3772495
vn 0.2632259 0.8782774 -0.3991756
vn -0.1420563 0.8917415 -0.429671
vn -0.2010648 0.8749912 -0.4404126
vn -0.5218822 0.6487548 -0.5538557
vn -0.7301108 0.1746936 -0.6606212
vn -0.69758 -0.2817606 -0.6587815
vn -0.4917087 -0.5769669 -0.6521747
g S_Bag_metal_08_0
f 3/3/3 2/2/2 1/1/1
f 4/4/4 3/3/3 1/1/1
f 3/3/3 5/5/5 2/2/2
f 5/5/5 6/6/6 2/2/2
f 5/5/5 7/7/7 6/6/6
f 7/7/7 8/8/8 6/6/6
f 6/6/6 8/8/8 9/9/9
f 8/8/8 10/10/10 9/9/9
f 1/1/1 2/2/2 11/11/11
f 2/2/2 12/12/12 11/11/11
f 6/6/6 9/9/9 12/12/12
f 2/2/2 6/6/6 12/12/12
f 4/4/4 1/1/1 13/13/13
f 14/14/14 4/4/4 13/13/13
f 14/14/14 13/13/13 15/15/15
f 16/16/16 14/14/14 15/15/15
f 1/1/1 11/11/11 17/17/17
f 13/13/13 1/1/1 17/17/17
f 13/13/13 17/17/17 18/18/18
f 15/15/15 13/13/13 18/18/18
f 16/16/16 15/15/15 19/19/19
f 20/20/20 16/16/16 19/19/19
f 21/21/21 20/20/20 19/19/19
f 22/22/22 21/21/21 19/19/19
f 21/21/21 22/22/22 23/23/23
f 24/24/24 21/21/21 23/23/23
f 15/15/15 18/18/18 25/25/25
f 19/19/19 15/15/15 25/25/25
f 23/23/23 22/22/22 26/26/26
f 22/22/22 27/27/27 26/26/26
f 19/19/19 25/25/25 27/27/27
f 22/22/22 19/19/19 27/27/27
f 28/28/28 24/24/24 23/23/23
f 29/29/29 28/28/28 23/23/23
f 29/29/29 23/23/23 26/26/26
f 28/28/28 29/29/29 30/30/30
f 31/31/31 28/28/28 30/30/30
f 30/30/30 29/29/29 32/32/32
f 29/29/29 33/33/33 32/32/32
f 33/33/33 29/29/29 26/26/26
f 31/31/31 30/30/30 34/34/34
f 35/35/35 31/31/31 34/34/34
f 35/35/35 34/34/34 36/36/36
f 37/37/37 35/35/35 36/36/36
f 36/36/36 34/34/34 38/38/38
f 34/34/34 39/39/39 38/38/38
f 30/30/30 32/32/32 39/39/39
f 34/34/34 30/30/30 39/39/39
f 40/40/40 37/37/37 36/36/36
f 41/41/41 40/40/40 36/36/36
f 41/41/41 36/36/36 38/38/38
f 40/40/40 41/41/41 42/42/42
f 43/43/43 40/40/40 42/42/42
f 7/7/7 43/43/43 42/42/42
f 8/8/8 7/7/7 42/42/42
f 42/42/42 41/41/41 44/44/44
f 41/41/41 45/45/45 44/44/44
f 45/45/45 41/41/41 38/38/38
f 42/42/42 44/44/44 10/10/10
f 8/8/8 42/42/42 10/10/10
f 38/38/38 39/39/39 46/46/46
f 45/45/45 38/38/38 46/46/46
f 39/39/39 47/47/47 46/46/46
f 39/39/39 32/32/32 47/47/47
f 32/32/32 48/48/48 47/47/47
f 32/32/32 33/33/33 48/48/48
f 33/33/33 49/49/49 48/48/48
f 49/49/49 33/33/33 50/50/50
f 33/33/33 26/26/26 50/50/50
f 26/26/26 27/27/27 50/50/50
f 27/27/27 51/51/51 50/50/50
f 51/51/51 27/27/27 52/52/52
f 27/27/27 25/25/25 52/52/52
f 25/25/25 18/18/18 52/52/52
f 18/18/18 53/53/53 52/52/52
f 18/18/18 17/17/17 53/53/53
f 17/17/17 54/54/54 53/53/53
f 17/17/17 11/11/11 54/54/54
f 11/11/11 55/55/55 54/54/54
f 11/11/11 12/12/12 55/55/55
f 12/12/12 56/56/56 55/55/55
f 12/12/12 9/9/9 56/56/56
f 9/9/9 57/57/57 56/56/56
f 9/9/9 10/10/10 57/57/57
f 10/10/10 58/58/58 57/57/57
f 57/57/57 58/58/58 59/59/59
f 58/58/58 60/60/60 59/59/59
f 55/55/55 56/56/56 61/61/61
f 56/56/56 62/62/62 61/61/61
f 57/57/57 59/59/59 62/62/62
f 56/56/56 57/57/57 62/62/62
f 55/55/55 61/61/61 63/63/63
f 54/54/54 55/55/55 63/63/63
f 54/54/54 63/63/63 64/64/64
f 53/53/53 54/54/54 64/64/64
f 53/53/53 64/64/64 65/65/65
f 52/52/52 53/53/53 65/65/65
f 52/52/52 65/65/65 66/66/66
f 51/51/51 52/52/52 66/66/66
f 51/51/51 66/66/66 67/67/67
f 50/50/50 51/51/51 67/67/67
f 49/49/49 50/50/50 67/67/67
f 68/68/68 49/49/49 67/67/67
f 49/49/49 68/68/68 69/69/69
f 48/48/48 49/49/49 69/69/69
f 48/48/48 69/69/69 70/70/70
f 47/47/47 48/48/48 70/70/70
f 47/47/47 70/70/70 71/71/71
f 46/46/46 47/47/47 71/71/71
f 72/72/72 46/46/46 71/71/71
f 72/72/72 45/45/45 46/46/46
f 45/45/45 72/72/72 73/73/73
f 44/44/44 45/45/45 73/73/73
f 10/10/10 44/44/44 73/73/73
f 58/58/58 10/10/10 73/73/73
f 73/73/73 72/72/72 74/74/74
f 72/72/72 75/75/75 74/74/74
f 75/75/75 72/72/72 71/71/71
f 73/73/73 74/74/74 60/60/60
f 58/58/58 73/73/73 60/60/60
f 78/78/78 77/77/77 76/76/76
f 79/79/79 78/78/78 76/76/76
f 79/79/79 76/76/76 80/80/80
f 81/81/81 79/79/79 80/80/80
f 81/81/81 80/80/80 82/82/82
f 83/83/83 81/81/81 82/82/82
f 83/83/83 82/82/82 84/84/84
f 85/85/85 83/83/83 84/84/84
f 85/85/85 84/84/84 86/86/86
f 87/87/87 85/85/85 86/86/86
f 87/87/87 86/86/86 88/88/88
f 89/89/89 87/87/87 88/88/88
f 89/89/89 88/88/88 90/90/90
f 91/91/91 89/89/89 90/90/90
f 91/91/91 90/90/90 92/92/92
f 93/93/93 91/91/91 92/92/92
f 94/94/94 93/93/93 92/92/92
f 95/95/95 94/94/94 92/92/92
f 94/94/94 95/95/95 96/96/96
f 97/97/97 94/94/94 96/96/96
f 97/97/97 96/96/96 98/98/98
f 99/99/99 97/97/97 98/98/98
f 99/99/99 98/98/98 100/100/100
f 101/101/101 99/99/99 100/100/100
f 102/102/102 101/101/101 100/100/100
f 103/103/103 102/102/102 100/100/100
f 102/102/102 103/103/103 104/104/104
f 105/105/105 102/102/102 104/104/104
f 105/105/105 104/104/104 77/77/77
f 78/78/78 105/105/105 77/77/77
f 96/96/96 95/95/95 106/106/106
f 98/98/98 96/96/96 106/106/106
f 95/95/95 107/107/107 106/106/106
f 107/107/107 95/95/95 108/108/108
f 95/95/95 92/92/92 108/108/108
f 92/92/92 90/90/90 108/108/108
f 90/90/90 109/109/109 108/108/108
f 109/109/109 90/90/90 110/110/110
f 90/90/90 88/88/88 110/110/110
f 88/88/88 86/86/86 110/110/110
f 86/86/86 111/111/111 110/110/110
f 86/86/86 84/84/84 111/111/111
f 84/84/84 112/112/112 111/111/111
f 84/84/84 82/82/82 112/112/112
f 82/82/82 113/113/113 112/112/112
f 82/82/82 80/80/80 113/113/113
f 80/80/80 114/114/114 113/113/113
f 114/114/114 80/80/80 115/115/115
f 80/80/80 76/76/76 115/115/115
f 76/76/76 77/77/77 115/115/115
f 77/77/77 116/116/116 115/115/115
f 116/116/116 77/77/77 117/117/117
f 77/77/77 104/104/104 117/117/117
f 104/104/104 103/103/103 117/117/117
f 103/103/103 118/118/118 117/117/117
f 118/118/118 103/103/103 119/119/119
f 103/103/103 100/100/100 119/119/119
f 100/100/100 98/98/98 119/119/119
f 98/98/98 120/120/120 119/119/119
f 120/120/120 98/98/98 106/106/106
f 3/3/3 122/122/122 121/121/121
f 5/5/5 3/3/3 121/121/121
f 122/122/122 3/3/3 123/123/123
f 3/3/3 4/4/4 123/123/123
f 123/123/123 4/4/4 124/124/124
f 4/4/4 14/14/14 124/124/124
f 124/124/124 14/14/14 125/125/125
f 14/14/14 16/16/16 125/125/125
f 125/125/125 16/16/16 126/126/126
f 16/16/16 20/20/20 126/126/126
f 20/20/20 21/21/21 126/126/126
f 21/21/21 127/127/127 126/126/126
f 127/127/127 21/21/21 128/128/128
f 21/21/21 24/24/24 128/128/128
f 129/129/129 128/128/128 24/24/24
f 28/28/28 129/129/129 24/24/24
f 129/129/129 28/28/28 130/130/130
f 28/28/28 31/31/31 130/130/130
f 31/31/31 35/35/35 130/130/130
f 35/35/35 131/131/131 130/130/130
f 131/131/131 35/35/35 132/132/132
f 35/35/35 37/37/37 132/132/132
f 133/133/133 132/132/132 37/37/37
f 40/40/40 133/133/133 37/37/37
f 133/133/133 40/40/40 134/134/134
f 40/40/40 43/43/43 134/134/134
f 43/43/43 7/7/7 134/134/134
f 7/7/7 135/135/135 134/134/134
f 135/135/135 7/7/7 121/121/121
f 7/7/7 5/5/5 121/121/121
