g S_Bag_metal_05
v -0.292749 0.8703645 0.245323
v -0.2934568 0.8592392 0.2501847
v -0.2913122 0.8577363 0.2461899
v -0.2906578 0.8681871 0.2416033
v -0.2951358 0.8426476 0.2474711
v -0.2976226 0.8432291 0.2513902
v -0.301393 0.8291953 0.2434163
v -0.3045347 0.8289084 0.2468167
v -0.2966023 0.8424218 0.2563887
v -0.3046969 0.825909 0.2511956
v -0.2910732 0.8728747 0.2494495
v -0.2918679 0.8604004 0.2549304
v -0.2939451 0.8798689 0.2378333
v -0.2917699 0.8771337 0.2345773
v -0.2987012 0.8883279 0.2244087
v -0.2961351 0.8852322 0.2219932
v -0.2924164 0.8835602 0.2410666
v -0.2978236 0.8931727 0.2260291
v -0.3060525 0.8908147 0.2098514
v -0.3027567 0.8877543 0.2084346
v -0.3060115 0.8866495 0.2031803
v -0.3098013 0.8896031 0.2040357
v -0.3128397 0.8868341 0.200433
v -0.3084382 0.8842595 0.2002137
v -0.3064486 0.8961405 0.2092244
v -0.3152447 0.8904551 0.1969844
v -0.3110966 0.8945325 0.2020039
v -0.3099147 0.880463 0.1995874
v -0.3147207 0.8821984 0.1995303
v -0.3157453 0.8750741 0.2013675
v -0.3108481 0.8739648 0.2014229
v -0.3195845 0.8751212 0.1972975
v -0.3181598 0.8837488 0.1953681
v -0.3145553 0.8284901 0.2291336
v -0.3098079 0.8291954 0.2281306
v -0.3132167 0.8235363 0.2345054
v -0.3086101 0.8245221 0.2329634
v -0.3164585 0.8191307 0.2339562
v -0.3182489 0.8248556 0.2273212
v -0.3070193 0.8233373 0.2365609
v -0.3111989 0.8222167 0.23896
v -0.3081698 0.8241994 0.2430485
v -0.3045765 0.8249303 0.2400194
v -0.309202 0.8201392 0.2464443
v -0.313351 0.8174905 0.2405573
v -0.3150153 0.8147805 0.2318092
v -0.3171965 0.8209812 0.2242641
v -0.3185658 0.8743256 0.1923058
v -0.3167886 0.8839946 0.1903582
v -0.3132072 0.8919212 0.1924941
v -0.3083245 0.8966747 0.1984537
v -0.3031401 0.8985875 0.2066468
v -0.2938117 0.8956762 0.2253021
v -0.2880137 0.8853937 0.2417669
v -0.2865711 0.8738294 0.250866
v -0.2874205 0.8603089 0.2567857
v -0.2925009 0.8407686 0.2581781
v -0.3012776 0.8226823 0.2520959
v -0.2868633 0.8390952 0.2547508
v -0.2955634 0.8211433 0.2487382
v -0.2808691 0.8719034 0.2474242
v -0.2817338 0.858477 0.253316
v -0.2823224 0.8833979 0.2383949
v -0.2881465 0.8936352 0.2220832
v -0.2973177 0.8965226 0.2035397
v -0.3022651 0.8945788 0.1953284
v -0.306838 0.8898082 0.1893158
v -0.310348 0.8819816 0.1872163
v -0.31222 0.8724403 0.1892316
v -0.3109965 0.8194152 0.2210943
v -0.3087689 0.8132304 0.2285168
v -0.3112065 0.8130467 0.2397186
v -0.3063156 0.8162094 0.2466308
v -0.3004198 0.8146911 0.2432619
v -0.3050406 0.811511 0.2363254
v -0.2865929 0.8396869 0.2478111
v -0.2937429 0.8243526 0.2427352
v -0.2955634 0.8211433 0.2487382
v -0.2868633 0.8390952 0.2547508
v -0.2822291 0.8565816 0.246576
v -0.2817338 0.858477 0.253316
v -0.2814796 0.8683088 0.2414446
v -0.2808691 0.8719034 0.2474242
v -0.2827414 0.878333 0.2335519
v -0.2823224 0.8833979 0.2383949
v -0.2876874 0.8872218 0.2193374
v -0.2881465 0.8936352 0.2220832
v -0.2951751 0.8897114 0.2035576
v -0.2973177 0.8965226 0.2035397
v -0.2989922 0.8882475 0.1969542
v -0.3022651 0.8945788 0.1953284
v -0.3022434 0.8848717 0.1925567
v -0.306838 0.8898082 0.1893158
v -0.310348 0.8819816 0.1872163
v -0.3045767 0.8793491 0.1913518
v -0.3059659 0.8716471 0.1933436
v -0.31222 0.8724403 0.1892316
v -0.3049697 0.8235065 0.2222573
v -0.3109965 0.8194152 0.2210943
v -0.3033006 0.8181813 0.2280855
v -0.3087689 0.8132304 0.2285168
v -0.3050406 0.811511 0.2363254
v -0.3008103 0.8167236 0.233456
v -0.2975149 0.8191063 0.2384201
v -0.3004198 0.8146911 0.2432619
v -0.3069596 0.8726571 0.1983318
v -0.3058781 0.8793386 0.196431
v -0.3042302 0.8834248 0.1971321
v -0.3018264 0.8860144 0.2004654
v -0.2985784 0.88721 0.2060191
v -0.2917461 0.8847374 0.2199683
v -0.2871553 0.8765027 0.2328252
v -0.2859898 0.8673458 0.240014
v -0.2866867 0.8566506 0.2447108
v -0.2907335 0.8412547 0.2459957
v -0.2972474 0.8275037 0.2417449
v -0.3004604 0.8230406 0.2381456
v -0.3029048 0.821236 0.234353
v -0.3046696 0.822482 0.2304677
v -0.3059954 0.8272768 0.2254893
v -0.2907335 0.8412547 0.2459957
v -0.2866867 0.8566506 0.2447108
v -0.2859898 0.8673458 0.240014
v -0.2871553 0.8765027 0.2328252
v -0.2917461 0.8847374 0.2199683
v -0.2985784 0.88721 0.2060191
v -0.3018264 0.8860144 0.2004654
v -0.3042302 0.8834248 0.1971321
v -0.3058781 0.8793386 0.196431
v -0.3069596 0.8726571 0.1983318
v -0.3059954 0.8272768 0.2254893
v -0.3046696 0.822482 0.2304677
v -0.3029048 0.821236 0.234353
v -0.3004604 0.8230406 0.2381456
v -0.2972474 0.8275037 0.2417449
vt 0.8492473 0.8540488
vt 0.8540295 0.8531698
vt 0.8534912 0.8517277
vt 0.8492242 0.852519
vt 0.8582535 0.8483087
vt 0.8594059 0.8493625
vt 0.8611807 0.8434277
vt 0.8625987 0.8436696
vt 0.8606866 0.8505319
vt 0.8643216 0.843904
vt 0.8492732 0.8557687
vt 0.8546088 0.8547624
vt 0.8444579 0.8532367
vt 0.8449597 0.8517535
vt 0.838981 0.8496878
vt 0.8400927 0.8485945
vt 0.8439349 0.854872
vt 0.8377451 0.8509077
vt 0.8355146 0.8441924
vt 0.8369596 0.843924
vt 0.8364592 0.8414467
vt 0.8350128 0.8412582
vt 0.8354069 0.8389244
vt 0.8367185 0.8395717
vt 0.8337706 0.8444754
vt 0.8337795 0.8381816
vt 0.8332395 0.8410816
vt 0.8377345 0.8381762
vt 0.8366425 0.8371216
vt 0.8391941 0.8354898
vt 0.8400068 0.8368365
vt 0.838172 0.8339834
vt 0.8353678 0.8358442
vt 0.8585182 0.8354121
vt 0.8577563 0.8367912
vt 0.8610902 0.8368757
vt 0.8600398 0.8379557
vt 0.862312 0.8355718
vt 0.8594863 0.8338782
vt 0.8610982 0.8392204
vt 0.8623861 0.8385476
vt 0.8629053 0.8407771
vt 0.8614888 0.8409933
vt 0.8646521 0.8405565
vt 0.8639761 0.8377653
vt 0.8635197 0.834393
vt 0.8603777 0.8324113
vt 0.8372386 0.8325189
vt 0.8341013 0.8346816
vt 0.832284 0.8374807
vt 0.8315658 0.8408816
vt 0.8321509 0.8447869
vt 0.8365667 0.8520582
vt 0.843417 0.8564179
vt 0.8492987 0.8574138
vt 0.8551792 0.8562866
vt 0.8619125 0.8516284
vt 0.8659261 0.8441494
vt 0.8636234 0.8530753
vt 0.8681458 0.8448388
vt 0.8493207 0.8597933
vt 0.8561876 0.8585225
vt 0.8425131 0.8586044
vt 0.8349501 0.8536248
vt 0.8299471 0.8456268
vt 0.8291677 0.8408245
vt 0.8299145 0.8363535
vt 0.8325297 0.8327614
vt 0.8365321 0.8301389
vt 0.8610863 0.830076
vt 0.8650187 0.8324888
vt 0.8654233 0.8370299
vt 0.8662868 0.8403047
vt 0.8686315 0.8401212
vt 0.8676837 0.8358433
vt 0.8794767 0.7062612
vt 0.8757324 0.7011331
vt 0.8733875 0.7019027
vt 0.8778477 0.7081043
vt 0.8849076 0.7094446
vt 0.8841951 0.7117899
vt 0.8894669 0.7100656
vt 0.8894987 0.7125297
vt 0.8940066 0.7093369
vt 0.8947673 0.7116691
vt 0.8993632 0.7061012
vt 0.9010263 0.7079205
vt 0.9030234 0.7009556
vt 0.9054143 0.7016909
vt 0.9037338 0.6982045
vt 0.9062728 0.6981184
vt 0.9034241 0.6958653
vt 0.9057924 0.6948184
vt 0.903756 0.6922368
vt 0.9019634 0.6941641
vt 0.8992428 0.6930748
vt 0.9003693 0.6906856
vt 0.8794333 0.6932675
vt 0.8783081 0.690934
vt 0.8767346 0.6943768
vt 0.8749726 0.6925052
vt 0.8729743 0.6950795
vt 0.8753006 0.6960748
vt 0.8750074 0.6983978
vt 0.8725164 0.698355
vt 0.8985315 0.694738
vt 0.9007999 0.6955133
vt 0.9018512 0.6966147
vt 0.9020244 0.6982679
vt 0.9014067 0.7004328
vt 0.898226 0.7048465
vt 0.8934762 0.7077298
vt 0.8894449 0.7083867
vt 0.8854029 0.7078286
vt 0.8805886 0.7049875
vt 0.8773116 0.7005784
vt 0.8766807 0.6984273
vt 0.8768463 0.6967841
vt 0.8778772 0.6956834
vt 0.8801386 0.6948953
vt 0.8571364 0.8473265
vt 0.8528694 0.8502986
vt 0.8492277 0.8508478
vt 0.8455428 0.8502719
vt 0.8411703 0.8475726
vt 0.8383468 0.8435261
vt 0.8378443 0.8415281
vt 0.8380204 0.8401799
vt 0.8386908 0.839201
vt 0.8405057 0.8382536
vt 0.857286 0.8382498
vt 0.8591188 0.8390088
vt 0.8598088 0.8398932
vt 0.8601193 0.8411472
vt 0.8598057 0.8430379
vn -0.9230359 0.343615 0.173013
vn -0.8621135 0.5007398 0.07758915
vn -0.766122 0.1225466 -0.6309036
vn -0.8787081 -0.1663583 -0.4474337
vn -0.5667911 0.3960183 -0.7224385
vn -0.7567163 0.6536224 0.01258143
vn -0.3525088 0.5981399 -0.7196987
vn -0.6336548 0.773585 0.006920606
vn -0.439272 0.4601758 0.7715428
vn -0.4851291 0.3855231 0.7848706
vn -0.3788139 0.6302132 0.6777399
vn -0.3949832 0.5478397 0.7374686
vn -0.926658 0.2085451 0.3127522
vn -0.8862088 -0.42132 -0.1926745
vn -0.8799352 0.0906987 0.4663558
vn -0.7879707 -0.6093612 0.0882109
vn -0.3593547 0.7055758 0.6107593
vn -0.3690037 0.7653165 0.5273773
vn -0.7943361 0.0331455 0.6065735
vn -0.6371004 -0.6980734 0.3267975
vn -0.357752 -0.6915234 0.6275419
vn -0.6310048 0.0581851 0.7735938
vn -0.436226 0.2197888 0.8725822
vn 0.05535254 -0.4672886 0.8823703
vn -0.3866714 0.8049252 0.4500895
vn -0.6050259 0.7603957 0.2360974
vn -0.467563 0.8140789 0.3444712
vn 0.4915785 -0.01852439 0.8706362
vn -0.2114963 0.4109012 0.8868086
vn -0.06820935 0.6145365 0.7859341
vn 0.6686981 0.3400519 0.6612168
vn -0.8425298 0.4439985 0.3049736
vn -0.7545687 0.6075027 0.2481262
vn -0.0582016 0.6508159 0.7570015
vn 0.6801509 0.3901557 0.6206234
vn -0.1193336 0.8223604 0.5563118
vn 0.651841 0.7000887 0.2915117
vn -0.8159987 0.323754 0.4788837
vn -0.8448081 0.4279848 0.3211362
vn 0.3580503 0.9055034 -0.2277356
vn -0.2869815 0.9030216 0.3196773
vn -0.4521255 0.8861634 0.1014731
vn -0.02860253 0.8094813 -0.5864484
vn -0.585008 0.3047599 0.7515897
vn -0.7203028 0.2463376 0.6484454
vn -0.8673834 -0.4934742 0.06426024
vn -0.9111165 -0.1735263 -0.3738385
vn -0.8920051 -0.08825424 -0.4433262
vn -0.675704 0.3740657 -0.6352155
vn -0.2974731 0.7350779 -0.6092374
vn 0.0726339 0.9148918 -0.3971111
vn 0.3504938 0.9299735 -0.1109197
vn 0.4904685 0.8589031 0.1473974
vn 0.5731759 0.6863582 0.4476403
vn 0.5562062 0.4435784 0.7027609
vn 0.4549395 0.1543692 0.8770406
vn 0.2683514 -0.138848 0.9532622
vn 0.06263094 -0.3603589 0.9307087
vn 0.6931302 -0.5561761 0.4585178
vn 0.4899438 -0.7416936 0.4580892
vn 0.9777027 -0.05229361 0.2033782
vn 0.8762354 -0.3038034 0.3740523
vn 0.9833377 0.1810702 -0.01614238
vn 0.8940494 0.3548226 -0.2734529
vn 0.7509587 0.4416181 -0.4909525
vn 0.4966554 0.433949 -0.7516792
vn 0.1469261 0.2768953 -0.9496009
vn -0.1984596 -0.07143007 -0.9775028
vn -0.4349795 -0.4627196 -0.7724528
vn -0.4505946 -0.5398147 -0.7110307
vn -0.3721119 -0.8640318 -0.3390895
vn -0.5998688 -0.6314906 0.4913013
vn -0.2549284 -0.5579951 0.789717
vn 0.1969945 -0.920919 0.3363054
vn -0.1328863 -0.9887062 0.06929085
vn 0.6541824 -0.6138382 -0.4418689
vn 0.6372901 -0.6414108 -0.4271459
vn 0.4899438 -0.7416936 0.4580892
vn 0.6931302 -0.5561761 0.4585178
vn 0.6753485 -0.5786651 -0.457221
vn 0.8762354 -0.3038034 0.3740523
vn 0.6793623 -0.5457839 -0.4904964
vn 0.9777027 -0.05229361 0.2033782
vn 0.691501 -0.5074182 -0.5141529
vn 0.9833377 0.1810702 -0.01614238
vn 0.6854179 -0.4808785 -0.5467707
vn 0.8940494 0.3548226 -0.2734529
vn 0.68253 -0.4549773 -0.571969
vn 0.7509587 0.4416181 -0.4909525
vn 0.6509917 -0.4319154 -0.6242266
vn 0.4966554 0.433949 -0.7516792
vn 0.5675893 -0.4304977 -0.7017936
vn 0.1469261 0.2768953 -0.9496009
vn -0.1984596 -0.07143007 -0.9775028
vn 0.4917606 -0.5353152 -0.686738
vn 0.4523148 -0.6182952 -0.6427459
vn -0.4349795 -0.4627196 -0.7724528
vn 0.4541647 -0.6214339 -0.6383999
vn -0.4505946 -0.5398147 -0.7110307
vn 0.460477 -0.6858138 -0.5635782
vn -0.3721119 -0.8640318 -0.3390895
vn -0.1328863 -0.9887062 0.06929085
vn 0.4980786 -0.7374537 -0.4561575
vn 0.590803 -0.6860025 -0.4246791
vn 0.1969945 -0.920919 0.3363054
vn 0.969605 -0.06848385 0.2348963
vn 0.8242757 -0.4191756 0.3806064
vn 0.4711905 -0.8046679 0.3612329
vn 0.08108278 -0.9764474 0.1999399
vn -0.1719213 -0.9834148 -0.05777896
vn -0.2822221 -0.9156903 -0.2861151
vn -0.3366411 -0.7647462 -0.5493959
vn -0.325593 -0.5487949 -0.7699438
vn -0.2329883 -0.2990417 -0.9253597
vn -0.08749072 -0.03871921 -0.9954126
vn 0.08009724 0.1608611 -0.9837216
vn 0.3685838 0.340391 -0.8650318
vn 0.7270386 0.3649034 -0.5816015
vn 0.966298 0.2205178 -0.1328163
vn 0.9801492 -0.02001863 0.1972478
vn -0.08749072 -0.03871921 -0.9954126
vn -0.2329883 -0.2990417 -0.9253597
vn -0.325593 -0.5487949 -0.7699438
vn -0.3366411 -0.7647462 -0.5493959
vn -0.2822221 -0.9156903 -0.2861151
vn -0.1719213 -0.9834148 -0.05777896
vn 0.08108278 -0.9764474 0.1999399
vn 0.4711905 -0.8046679 0.3612329
vn 0.8242757 -0.4191756 0.3806064
vn 0.969605 -0.06848385 0.2348963
vn 0.9801492 -0.02001863 0.1972478
vn 0.966298 0.2205178 -0.1328163
vn 0.7270386 0.3649034 -0.5816015
vn 0.3685838 0.340391 -0.8650318
vn 0.08009724 0.1608611 -0.9837216
g S_Bag_metal_05_0
f 3/3/3 2/2/2 1/1/1
f 4/4/4 3/3/3 1/1/1
f 3/3/3 5/5/5 2/2/2
f 5/5/5 6/6/6 2/2/2
f 5/5/5 7/7/7 6/6/6
f 7/7/7 8/8/8 6/6/6
f 6/6/6 8/8/8 9/9/9
f 8/8/8 10/10/10 9/9/9
f 1/1/1 2/2/2 11/11/11
f 2/2/2 12/12/12 11/11/11
f 6/6/6 9/9/9 12/12/12
f 2/2/2 6/6/6 12/12/12
f 4/4/4 1/1/1 13/13/13
f 14/14/14 4/4/4 13/13/13
f 14/14/14 13/13/13 15/15/15
f 16/16/16 14/14/14 15/15/15
f 1/1/1 11/11/11 17/17/17
f 13/13/13 1/1/1 17/17/17
f 13/13/13 17/17/17 18/18/18
f 15/15/15 13/13/13 18/18/18
f 16/16/16 15/15/15 19/19/19
f 20/20/20 16/16/16 19/19/19
f 21/21/21 20/20/20 19/19/19
f 22/22/22 21/21/21 19/19/19
f 21/21/21 22/22/22 23/23/23
f 24/24/24 21/21/21 23/23/23
f 15/15/15 18/18/18 25/25/25
f 19/19/19 15/15/15 25/25/25
f 23/23/23 22/22/22 26/26/26
f 22/22/22 27/27/27 26/26/26
f 19/19/19 25/25/25 27/27/27
f 22/22/22 19/19/19 27/27/27
f 28/28/28 24/24/24 23/23/23
f 29/29/29 28/28/28 23/23/23
f 29/29/29 23/23/23 26/26/26
f 28/28/28 29/29/29 30/30/30
f 31/31/31 28/28/28 30/30/30
f 30/30/30 29/29/29 32/32/32
f 29/29/29 33/33/33 32/32/32
f 33/33/33 29/29/29 26/26/26
f 31/31/31 30/30/30 34/34/34
f 35/35/35 31/31/31 34/34/34
f 35/35/35 34/34/34 36/36/36
f 37/37/37 35/35/35 36/36/36
f 36/36/36 34/34/34 38/38/38
f 34/34/34 39/39/39 38/38/38
f 30/30/30 32/32/32 39/39/39
f 34/34/34 30/30/30 39/39/39
f 40/40/40 37/37/37 36/36/36
f 41/41/41 40/40/40 36/36/36
f 41/41/41 36/36/36 38/38/38
f 40/40/40 41/41/41 42/42/42
f 43/43/43 40/40/40 42/42/42
f 7/7/7 43/43/43 42/42/42
f 8/8/8 7/7/7 42/42/42
f 42/42/42 41/41/41 44/44/44
f 41/41/41 45/45/45 44/44/44
f 45/45/45 41/41/41 38/38/38
f 42/42/42 44/44/44 10/10/10
f 8/8/8 42/42/42 10/10/10
f 38/38/38 39/39/39 46/46/46
f 45/45/45 38/38/38 46/46/46
f 39/39/39 47/47/47 46/46/46
f 39/39/39 32/32/32 47/47/47
f 32/32/32 48/48/48 47/47/47
f 32/32/32 33/33/33 48/48/48
f 33/33/33 49/49/49 48/48/48
f 49/49/49 33/33/33 50/50/50
f 33/33/33 26/26/26 50/50/50
f 26/26/26 27/27/27 50/50/50
f 27/27/27 51/51/51 50/50/50
f 51/51/51 27/27/27 52/52/52
f 27/27/27 25/25/25 52/52/52
f 25/25/25 18/18/18 52/52/52
f 18/18/18 53/53/53 52/52/52
f 18/18/18 17/17/17 53/53/53
f 17/17/17 54/54/54 53/53/53
f 17/17/17 11/11/11 54/54/54
f 11/11/11 55/55/55 54/54/54
f 11/11/11 12/12/12 55/55/55
f 12/12/12 56/56/56 55/55/55
f 12/12/12 9/9/9 56/56/56
f 9/9/9 57/57/57 56/56/56
f 9/9/9 10/10/10 57/57/57
f 10/10/10 58/58/58 57/57/57
f 57/57/57 58/58/58 59/59/59
f 58/58/58 60/60/60 59/59/59
f 55/55/55 56/56/56 61/61/61
f 56/56/56 62/62/62 61/61/61
f 57/57/57 59/59/59 62/62/62
f 56/56/56 57/57/57 62/62/62
f 55/55/55 61/61/61 63/63/63
f 54/54/54 55/55/55 63/63/63
f 54/54/54 63/63/63 64/64/64
f 53/53/53 54/54/54 64/64/64
f 53/53/53 64/64/64 65/65/65
f 52/52/52 53/53/53 65/65/65
f 52/52/52 65/65/65 66/66/66
f 51/51/51 52/52/52 66/66/66
f 51/51/51 66/66/66 67/67/67
f 50/50/50 51/51/51 67/67/67
f 49/49/49 50/50/50 67/67/67
f 68/68/68 49/49/49 67/67/67
f 49/49/49 68/68/68 69/69/69
f 48/48/48 49/49/49 69/69/69
f 48/48/48 69/69/69 70/70/70
f 47/47/47 48/48/48 70/70/70
f 47/47/47 70/70/70 71/71/71
f 46/46/46 47/47/47 71/71/71
f 72/72/72 46/46/46 71/71/71
f 72/72/72 45/45/45 46/46/46
f 45/45/45 72/72/72 73/73/73
f 44/44/44 45/45/45 73/73/73
f 10/10/10 44/44/44 73/73/73
f 58/58/58 10/10/10 73/73/73
f 73/73/73 72/72/72 74/74/74
f 72/72/72 75/75/75 74/74/74
f 75/75/75 72/72/72 71/71/71
f 73/73/73 74/74/74 60/60/60
f 58/58/58 73/73/73 60/60/60
f 78/78/78 77/77/77 76/76/76
f 79/79/79 78/78/78 76/76/76
f 79/79/79 76/76/76 80/80/80
f 81/81/81 79/79/79 80/80/80
f 81/81/81 80/80/80 82/82/82
f 83/83/83 81/81/81 82/82/82
f 83/83/83 82/82/82 84/84/84
f 85/85/85 83/83/83 84/84/84
f 85/85/85 84/84/84 86/86/86
f 87/87/87 85/85/85 86/86/86
f 87/87/87 86/86/86 88/88/88
f 89/89/89 87/87/87 88/88/88
f 89/89/89 88/88/88 90/90/90
f 91/91/91 89/89/89 90/90/90
f 91/91/91 90/90/90 92/92/92
f 93/93/93 91/91/91 92/92/92
f 94/94/94 93/93/93 92/92/92
f 95/95/95 94/94/94 92/92/92
f 94/94/94 95/95/95 96/96/96
f 97/97/97 94/94/94 96/96/96
f 97/97/97 96/96/96 98/98/98
f 99/99/99 97/97/97 98/98/98
f 99/99/99 98/98/98 100/100/100
f 101/101/101 99/99/99 100/100/100
f 102/102/102 101/101/101 100/100/100
f 103/103/103 102/102/102 100/100/100
f 102/102/102 103/103/103 104/104/104
f 105/105/105 102/102/102 104/104/104
f 105/105/105 104/104/104 77/77/77
f 78/78/78 105/105/105 77/77/77
f 96/96/96 95/95/95 106/106/106
f 98/98/98 96/96/96 106/106/106
f 95/95/95 107/107/107 106/106/106
f 107/107/107 95/95/95 108/108/108
f 95/95/95 92/92/92 108/108/108
f 92/92/92 90/90/90 108/108/108
f 90/90/90 109/109/109 108/108/108
f 109/109/109 90/90/90 110/110/110
f 90/90/90 88/88/88 110/110/110
f 88/88/88 86/86/86 110/110/110
f 86/86/86 111/111/111 110/110/110
f 86/86/86 84/84/84 111/111/111
f 84/84/84 112/112/112 111/111/111
f 84/84/84 82/82/82 112/112/112
f 82/82/82 113/113/113 112/112/112
f 82/82/82 80/80/80 113/113/113
f 80/80/80 114/114/114 113/113/113
f 114/114/114 80/80/80 115/115/115
f 80/80/80 76/76/76 115/115/115
f 76/76/76 77/77/77 115/115/115
f 77/77/77 116/116/116 115/115/115
f 116/116/116 77/77/77 117/117/117
f 77/77/77 104/104/104 117/117/117
f 104/104/104 103/103/103 117/117/117
f 103/103/103 118/118/118 117/117/117
f 118/118/118 103/103/103 119/119/119
f 103/103/103 100/100/100 119/119/119
f 100/100/100 98/98/98 119/119/119
f 98/98/98 120/120/120 119/119/119
f 120/120/120 98/98/98 106/106/106
f 3/3/3 122/122/122 121/121/121
f 5/5/5 3/3/3 121/121/121
f 122/122/122 3/3/3 123/123/123
f 3/3/3 4/4/4 123/123/123
f 123/123/123 4/4/4 124/124/124
f 4/4/4 14/14/14 124/124/124
f 124/124/124 14/14/14 125/125/125
f 14/14/14 16/16/16 125/125/125
f 125/125/125 16/16/16 126/126/126
f 16/16/16 20/20/20 126/126/126
f 20/20/20 21/21/21 126/126/126
f 21/21/21 127/127/127 126/126/126
f 127/127/127 21/21/21 128/128/128
f 21/21/21 24/24/24 128/128/128
f 129/129/129 128/128/128 24/24/24
f 28/28/28 129/129/129 24/24/24
f 129/129/129 28/28/28 130/130/130
f 28/28/28 31/31/31 130/130/130
f 31/31/31 35/35/35 130/130/130
f 35/35/35 131/131/131 130/130/130
f 131/131/131 35/35/35 132/132/132
f 35/35/35 37/37/37 132/132/132
f 133/133/133 132/132/132 37/37/37
f 40/40/40 133/133/133 37/37/37
f 133/133/133 40/40/40 134/134/134
f 40/40/40 43/43/43 134/134/134
f 43/43/43 7/7/7 134/134/134
f 7/7/7 135/135/135 134/134/134
f 135/135/135 7/7/7 121/121/121
f 7/7/7 5/5/5 121/121/121
