g S_Bag_metal_01
v 0.1725884 0.8646483 0.291762
v 0.1842202 0.8616054 0.2899314
v 0.1826402 0.8592721 0.2860746
v 0.1717014 0.8621119 0.2877959
v 0.1951281 0.8501076 0.2840765
v 0.197377 0.8517218 0.2878473
v 0.2030481 0.836984 0.282809
v 0.2056555 0.8374485 0.2866169
v 0.2011785 0.8551555 0.2885079
v 0.2107838 0.8386857 0.2872245
v 0.1732712 0.8696069 0.2928028
v 0.1863328 0.8662143 0.290762
v 0.1605866 0.8640829 0.2936321
v 0.1604189 0.8616029 0.2895534
v 0.1457249 0.8571451 0.2959542
v 0.1463541 0.8552382 0.291715
v 0.1598023 0.8689969 0.2949178
v 0.1430556 0.8612568 0.2976384
v 0.1348026 0.8449212 0.297803
v 0.136012 0.8440803 0.2933235
v 0.1336219 0.8382896 0.2937432
v 0.1321569 0.838441 0.298396
v 0.1320889 0.8329793 0.2986071
v 0.1336449 0.8337733 0.2938114
v 0.1303814 0.8471245 0.2999274
v 0.1272416 0.8313459 0.3007576
v 0.1271749 0.8390273 0.3006191
v 0.1362 0.8305662 0.2933979
v 0.1351236 0.8289305 0.2981178
v 0.1417759 0.825833 0.2969631
v 0.1423714 0.8278478 0.2924021
v 0.1393159 0.821136 0.2987501
v 0.1314413 0.8251803 0.3001006
v 0.195057 0.8202017 0.2884866
v 0.193598 0.8223971 0.2843522
v 0.2022254 0.8218486 0.2874427
v 0.2002117 0.8237603 0.2833365
v 0.2053937 0.817444 0.2883265
v 0.1968461 0.8151287 0.2895831
v 0.2033561 0.8263599 0.2828555
v 0.2060045 0.8251711 0.2868622
v 0.2069847 0.8305336 0.2865393
v 0.2042559 0.8307888 0.2826521
v 0.2123279 0.830097 0.2871235
v 0.2107481 0.8225963 0.287486
v 0.2072127 0.814461 0.2846646
v 0.1977354 0.8115876 0.2860996
v 0.1366166 0.8179244 0.2957523
v 0.1279208 0.8226944 0.2971912
v 0.1230954 0.8302032 0.2979349
v 0.1230851 0.8392547 0.2977731
v 0.1266618 0.8484424 0.297098
v 0.1404554 0.8642053 0.2949114
v 0.1586149 0.8727447 0.2921285
v 0.1732096 0.873417 0.2898588
v 0.1873523 0.8697322 0.2876291
v 0.2033587 0.8576186 0.285053
v 0.213618 0.8393638 0.2834269
v 0.2020759 0.8574036 0.2783719
v 0.2122742 0.8393065 0.2767571
v 0.1721052 0.8730919 0.2830218
v 0.1861595 0.8694304 0.2808307
v 0.1576093 0.8724235 0.2852999
v 0.1395851 0.8639482 0.288144
v 0.1258733 0.8483294 0.290229
v 0.1222946 0.8392373 0.2906843
v 0.1222657 0.8303039 0.2905569
v 0.1270347 0.8229098 0.2898038
v 0.1356832 0.8182031 0.2885186
v 0.1965063 0.8118957 0.2790759
v 0.2058892 0.8147202 0.2775624
v 0.2134478 0.8208022 0.2836725
v 0.2152617 0.8296471 0.2832506
v 0.2138845 0.8296886 0.2764302
v 0.2120525 0.8209598 0.2766073
v 0.1971023 0.8532397 0.2758209
v 0.2058363 0.8379689 0.2742245
v 0.2122742 0.8393065 0.2767571
v 0.2020759 0.8574036 0.2783719
v 0.1832445 0.8636773 0.2780612
v 0.1861595 0.8694304 0.2808307
v 0.1709789 0.8668821 0.2799855
v 0.1721052 0.8730919 0.2830218
v 0.158325 0.8662899 0.2819605
v 0.1576093 0.8724235 0.2852999
v 0.1426351 0.858955 0.284317
v 0.1395851 0.8639482 0.288144
v 0.130924 0.8458471 0.2858344
v 0.1258733 0.8483294 0.290229
v 0.1279617 0.8386729 0.286101
v 0.1222946 0.8392373 0.2906843
v 0.1278492 0.8322484 0.2859715
v 0.1222657 0.8303039 0.2905569
v 0.1270347 0.8229098 0.2898038
v 0.1313859 0.8272902 0.2854196
v 0.1385974 0.8237976 0.2844124
v 0.1356832 0.8182031 0.2885186
v 0.1938151 0.818002 0.2759318
v 0.1965063 0.8118957 0.2790759
v 0.2015426 0.8199289 0.2746339
v 0.2058892 0.8147202 0.2775624
v 0.2120525 0.8209598 0.2766073
v 0.2059943 0.8240353 0.2739354
v 0.207225 0.8303329 0.2738589
v 0.2138845 0.8296886 0.2764302
v 0.1411304 0.8271338 0.287469
v 0.1347693 0.8299837 0.2883844
v 0.1320333 0.8334844 0.2887895
v 0.1320986 0.8383387 0.2889509
v 0.1346149 0.8443735 0.2886812
v 0.1451612 0.8559279 0.2870556
v 0.1594935 0.8625203 0.2847508
v 0.1710381 0.863054 0.282928
v 0.1822361 0.8601356 0.2811907
v 0.1949722 0.8506932 0.2792672
v 0.2030059 0.8371461 0.2780327
v 0.204234 0.8306955 0.2777515
v 0.2032776 0.825931 0.2777536
v 0.1999097 0.823081 0.2783001
v 0.1931168 0.8216183 0.2794172
v 0.1949722 0.8506932 0.2792672
v 0.1822361 0.8601356 0.2811907
v 0.1710381 0.863054 0.282928
v 0.1594935 0.8625203 0.2847508
v 0.1451612 0.8559279 0.2870556
v 0.1346149 0.8443735 0.2886812
v 0.1320986 0.8383387 0.2889509
v 0.1320333 0.8334844 0.2887895
v 0.1347693 0.8299837 0.2883844
v 0.1411304 0.8271338 0.287469
v 0.1931168 0.8216183 0.2794172
v 0.1999097 0.823081 0.2783001
v 0.2032776 0.825931 0.2777536
v 0.204234 0.8306955 0.2777515
v 0.2030059 0.8371461 0.2780327
vt 0.8487033 0.8243617
vt 0.8534855 0.8234828
vt 0.8529472 0.8220407
vt 0.8486802 0.822832
vt 0.8577095 0.8186217
vt 0.858862 0.8196754
vt 0.8606367 0.8137406
vt 0.8620547 0.8139825
vt 0.8601426 0.8208449
vt 0.8637776 0.8142169
vt 0.8487293 0.8260817
vt 0.8540649 0.8250754
vt 0.8439139 0.8235497
vt 0.8444157 0.8220664
vt 0.838437 0.8200007
vt 0.8395486 0.8189075
vt 0.8433908 0.825185
vt 0.837201 0.8212206
vt 0.8349705 0.8145054
vt 0.8364156 0.8142369
vt 0.8359151 0.8117597
vt 0.8344688 0.8115712
vt 0.8348628 0.8092373
vt 0.8361744 0.8098847
vt 0.8332266 0.8147884
vt 0.8332355 0.8084945
vt 0.8326955 0.8113945
vt 0.8371904 0.8084891
vt 0.8360985 0.8074346
vt 0.8386501 0.8058027
vt 0.8394628 0.8071495
vt 0.837628 0.8042963
vt 0.8348238 0.8061571
vt 0.8579742 0.8057251
vt 0.8572122 0.8071042
vt 0.8605462 0.8071886
vt 0.8594957 0.8082687
vt 0.8617679 0.8058847
vt 0.8589423 0.8041912
vt 0.8605541 0.8095334
vt 0.8618421 0.8088605
vt 0.8623613 0.81109
vt 0.8609448 0.8113062
vt 0.8641081 0.8108695
vt 0.863432 0.8080782
vt 0.8629757 0.804706
vt 0.8598337 0.8027242
vt 0.8366946 0.8028319
vt 0.8335573 0.8049945
vt 0.8317399 0.8077937
vt 0.8310218 0.8111945
vt 0.8316069 0.8150998
vt 0.8360227 0.8223712
vt 0.842873 0.8267308
vt 0.8487548 0.8277268
vt 0.8546352 0.8265995
vt 0.8613686 0.8219414
vt 0.8653821 0.8144623
vt 0.8630793 0.8233882
vt 0.8676019 0.8151518
vt 0.8487766 0.8301063
vt 0.8556436 0.8288355
vt 0.8419691 0.8289173
vt 0.8344061 0.8239378
vt 0.829403 0.8159397
vt 0.8286236 0.8111374
vt 0.8293704 0.8066664
vt 0.8319857 0.8030744
vt 0.8359881 0.8004519
vt 0.8605422 0.8003889
vt 0.8644747 0.8028017
vt 0.8648793 0.8073428
vt 0.8657427 0.8106176
vt 0.8680875 0.8104342
vt 0.8671396 0.8061562
vt 0.7983878 0.7711821
vt 0.7946435 0.766054
vt 0.7922984 0.7668237
vt 0.7967588 0.7730253
vt 0.8038187 0.7743655
vt 0.8031062 0.7767107
vt 0.8083779 0.7749864
vt 0.8084097 0.7774506
vt 0.8129176 0.7742578
vt 0.8136783 0.7765899
vt 0.8182741 0.7710222
vt 0.8199372 0.7728414
vt 0.8219344 0.7658765
vt 0.8243253 0.7666119
vt 0.8226448 0.7631255
vt 0.8251839 0.7630394
vt 0.8223351 0.7607862
vt 0.8247034 0.7597394
vt 0.822667 0.7571577
vt 0.8208743 0.7590851
vt 0.8181538 0.7579958
vt 0.8192803 0.7556066
vt 0.7983443 0.7581884
vt 0.7972192 0.755855
vt 0.7956456 0.7592977
vt 0.7938836 0.7574262
vt 0.7918853 0.7600005
vt 0.7942117 0.7609958
vt 0.7939184 0.7633187
vt 0.7914274 0.7632759
vt 0.8174424 0.7596589
vt 0.8197109 0.7604342
vt 0.8207622 0.7615357
vt 0.8209355 0.7631888
vt 0.8203177 0.7653537
vt 0.817137 0.7697674
vt 0.8123873 0.7726507
vt 0.8083559 0.7733077
vt 0.804314 0.7727495
vt 0.7994996 0.7699084
vt 0.7962226 0.7654993
vt 0.7955918 0.7633482
vt 0.7957574 0.7617051
vt 0.7967882 0.7606043
vt 0.7990496 0.7598163
vt 0.8565924 0.8176394
vt 0.8523253 0.8206116
vt 0.8486837 0.8211607
vt 0.8449988 0.8205848
vt 0.8406262 0.8178855
vt 0.8378027 0.8138391
vt 0.8373003 0.8118411
vt 0.8374764 0.8104928
vt 0.8381468 0.8095139
vt 0.8399616 0.8085665
vt 0.856742 0.8085628
vt 0.8585747 0.8093218
vt 0.8592648 0.8102061
vt 0.8595753 0.8114601
vt 0.8592618 0.8133508
vn 0.4937065 -0.3212025 0.8081354
vn 0.3169641 -0.3572838 0.8785682
vn 0.1389453 -0.931148 0.3371315
vn 0.4681193 -0.8583527 0.2099881
vn -0.1953688 -0.8813475 0.4301833
vn 0.1275343 -0.3443031 0.9301561
vn -0.4536472 -0.7495012 0.482133
vn -0.02646948 -0.2743787 0.9612573
vn 0.3876522 0.4499455 0.804534
vn 0.4677289 0.43107 0.7716271
vn 0.2044711 0.4159107 0.8861207
vn 0.2912532 0.4514472 0.8434259
vn 0.6405557 -0.2155715 0.7370327
vn 0.7414839 -0.6669059 0.0737434
vn 0.7505387 -0.07004183 0.6571041
vn 0.9182125 -0.3919684 -0.05697885
vn 0.1161286 0.3755296 0.9195062
vn 0.04844842 0.304616 0.9512423
vn 0.7933726 0.08947951 0.6021242
vn 0.9823459 -0.117113 -0.1458807
vn 0.9352397 0.2858227 -0.2088832
vn 0.7493788 0.3192146 0.580115
vn 0.5730428 0.5186352 0.6345388
vn 0.6512485 0.737766 -0.177698
vn 0.0006739079 0.2330463 0.9724654
vn 0.07033938 -0.06703801 0.9952679
vn -0.0008956822 0.1016173 0.9948232
vn 0.09564393 0.9943414 -0.0462314
vn 0.3196803 0.6649095 0.6750555
vn 0.05877468 0.6716528 0.738531
vn -0.3289966 0.9393637 0.0967322
vn 0.4442848 -0.1595111 0.8815709
vn 0.2640686 -0.1481688 0.953055
vn 0.01740601 0.6553198 0.7551509
vn -0.3848667 0.915042 0.1207311
vn -0.136551 0.4665031 0.8739157
vn -0.7015273 0.6460114 0.3008801
vn 0.5785939 -0.007900815 0.8155775
vn 0.4627293 -0.1483297 0.8740022
vn -0.8712421 0.06722654 0.4862281
vn -0.1839336 0.183788 0.9656036
vn -0.1676235 -0.08941467 0.9817878
vn -0.7283605 -0.4485159 0.5180002
vn 0.5651638 0.3436632 0.7499904
vn 0.6401444 0.1801914 0.7468241
vn 0.8921665 -0.4458679 0.07239327
vn 0.5284632 -0.8142305 0.2403233
vn 0.4334325 -0.8561681 0.2812695
vn -0.06925431 -0.8676429 0.4923412
vn -0.517634 -0.6168033 0.5929661
vn -0.7674257 -0.2271598 0.5995468
vn -0.825357 0.1633682 0.5404598
vn -0.7549161 0.45035 0.4767458
vn -0.5677737 0.7344296 0.3718147
vn -0.2950235 0.9220549 0.2505513
vn 0.02248447 0.9931343 0.1147986
vn 0.3525969 0.9357623 -0.004946399
vn 0.6070952 0.7903633 -0.08222743
vn 0.08022729 0.7144954 -0.6950251
vn 0.3225766 0.5917441 -0.7387714
vn -0.5217468 0.6892422 -0.5027182
vn -0.2277214 0.7599992 -0.6087233
vn -0.7647169 0.5248613 -0.373803
vn -0.9279376 0.2735026 -0.2532352
vn -0.9861662 0.02042545 -0.1644961
vn -0.9361452 -0.3355232 -0.1051489
vn -0.7064039 -0.7006668 -0.1002973
vn -0.2880986 -0.9346544 -0.2083757
vn 0.1929135 -0.9175042 -0.3478078
vn 0.2770556 -0.8798783 -0.3860755
vn 0.5889954 -0.5490597 -0.5929739
vn 0.9965734 0.04631806 -0.06852785
vn 0.8659847 0.4872983 -0.1122991
vn 0.5635119 0.3193742 -0.7618756
vn 0.6956014 -0.08669453 -0.7131779
vn -0.2852472 -0.06904049 -0.9559641
vn -0.2510513 -0.06773776 -0.9656007
vn 0.3225766 0.5917441 -0.7387714
vn 0.08022729 0.7144954 -0.6950251
vn -0.3269547 -0.06803092 -0.9425881
vn -0.2277214 0.7599992 -0.6087233
vn -0.3644034 -0.09147889 -0.9267372
vn -0.5217468 0.6892422 -0.5027182
vn -0.405912 -0.1020215 -0.9081998
vn -0.7647169 0.5248613 -0.373803
vn -0.4327156 -0.1307228 -0.8920026
vn -0.9279376 0.2735026 -0.2532352
vn -0.457768 -0.1515611 -0.876058
vn -0.9861662 0.02042545 -0.1644961
vn -0.4749698 -0.2106703 -0.8544131
vn -0.9361452 -0.3355232 -0.1051489
vn -0.457076 -0.3204577 -0.8296918
vn -0.7064039 -0.7006668 -0.1002973
vn -0.2880986 -0.9346544 -0.2083757
vn -0.3387088 -0.3561137 -0.8708957
vn -0.2435943 -0.3462712 -0.905957
vn 0.1929135 -0.9175042 -0.3478078
vn -0.2409609 -0.3418505 -0.9083371
vn 0.2770556 -0.8798783 -0.3860755
vn -0.1724315 -0.2803191 -0.9442927
vn 0.5889954 -0.5490597 -0.5929739
vn 0.6956014 -0.08669453 -0.7131779
vn -0.1166258 -0.1736743 -0.9778731
vn -0.1931345 -0.0938153 -0.9766768
vn 0.5635119 0.3193742 -0.7618756
vn -0.4920958 0.71023 -0.5034034
vn -0.1230749 0.7291316 -0.6732159
vn 0.3259278 0.495511 -0.8051335
vn 0.6082868 0.138514 -0.7815377
vn 0.6584562 -0.2141794 -0.7215003
vn 0.5844585 -0.4602516 -0.668264
vn 0.4085701 -0.6997633 -0.5860049
vn 0.1716249 -0.8634541 -0.474333
vn -0.1082845 -0.9262096 -0.3611235
vn -0.3891355 -0.8880413 -0.2448601
vn -0.6107389 -0.7737725 -0.1681494
vn -0.850359 -0.5063453 -0.1431919
vn -0.9684895 -0.07437927 -0.2376882
vn -0.8313555 0.4205518 -0.3632963
vn -0.5450237 0.687783 -0.4794827
vn -0.3891355 -0.8880413 -0.2448601
vn -0.1082845 -0.9262096 -0.3611235
vn 0.1716249 -0.8634541 -0.474333
vn 0.4085701 -0.6997633 -0.5860049
vn 0.5844585 -0.4602516 -0.668264
vn 0.6584562 -0.2141794 -0.7215003
vn 0.6082868 0.138514 -0.7815377
vn 0.3259278 0.495511 -0.8051335
vn -0.1230749 0.7291316 -0.6732159
vn -0.4920958 0.71023 -0.5034034
vn -0.5450237 0.687783 -0.4794827
vn -0.8313555 0.4205518 -0.3632963
vn -0.9684895 -0.07437927 -0.2376882
vn -0.850359 -0.5063453 -0.1431919
vn -0.6107389 -0.7737725 -0.1681494
g S_Bag_metal_01_0
f 3/3/3 2/2/2 1/1/1
f 4/4/4 3/3/3 1/1/1
f 3/3/3 5/5/5 2/2/2
f 5/5/5 6/6/6 2/2/2
f 5/5/5 7/7/7 6/6/6
f 7/7/7 8/8/8 6/6/6
f 6/6/6 8/8/8 9/9/9
f 8/8/8 10/10/10 9/9/9
f 1/1/1 2/2/2 11/11/11
f 2/2/2 12/12/12 11/11/11
f 6/6/6 9/9/9 12/12/12
f 2/2/2 6/6/6 12/12/12
f 4/4/4 1/1/1 13/13/13
f 14/14/14 4/4/4 13/13/13
f 14/14/14 13/13/13 15/15/15
f 16/16/16 14/14/14 15/15/15
f 1/1/1 11/11/11 17/17/17
f 13/13/13 1/1/1 17/17/17
f 13/13/13 17/17/17 18/18/18
f 15/15/15 13/13/13 18/18/18
f 16/16/16 15/15/15 19/19/19
f 20/20/20 16/16/16 19/19/19
f 21/21/21 20/20/20 19/19/19
f 22/22/22 21/21/21 19/19/19
f 21/21/21 22/22/22 23/23/23
f 24/24/24 21/21/21 23/23/23
f 15/15/15 18/18/18 25/25/25
f 19/19/19 15/15/15 25/25/25
f 23/23/23 22/22/22 26/26/26
f 22/22/22 27/27/27 26/26/26
f 19/19/19 25/25/25 27/27/27
f 22/22/22 19/19/19 27/27/27
f 28/28/28 24/24/24 23/23/23
f 29/29/29 28/28/28 23/23/23
f 29/29/29 23/23/23 26/26/26
f 28/28/28 29/29/29 30/30/30
f 31/31/31 28/28/28 30/30/30
f 30/30/30 29/29/29 32/32/32
f 29/29/29 33/33/33 32/32/32
f 33/33/33 29/29/29 26/26/26
f 31/31/31 30/30/30 34/34/34
f 35/35/35 31/31/31 34/34/34
f 35/35/35 34/34/34 36/36/36
f 37/37/37 35/35/35 36/36/36
f 36/36/36 34/34/34 38/38/38
f 34/34/34 39/39/39 38/38/38
f 30/30/30 32/32/32 39/39/39
f 34/34/34 30/30/30 39/39/39
f 40/40/40 37/37/37 36/36/36
f 41/41/41 40/40/40 36/36/36
f 41/41/41 36/36/36 38/38/38
f 40/40/40 41/41/41 42/42/42
f 43/43/43 40/40/40 42/42/42
f 7/7/7 43/43/43 42/42/42
f 8/8/8 7/7/7 42/42/42
f 42/42/42 41/41/41 44/44/44
f 41/41/41 45/45/45 44/44/44
f 45/45/45 41/41/41 38/38/38
f 42/42/42 44/44/44 10/10/10
f 8/8/8 42/42/42 10/10/10
f 38/38/38 39/39/39 46/46/46
f 45/45/45 38/38/38 46/46/46
f 39/39/39 47/47/47 46/46/46
f 39/39/39 32/32/32 47/47/47
f 32/32/32 48/48/48 47/47/47
f 32/32/32 33/33/33 48/48/48
f 33/33/33 49/49/49 48/48/48
f 49/49/49 33/33/33 50/50/50
f 33/33/33 26/26/26 50/50/50
f 26/26/26 27/27/27 50/50/50
f 27/27/27 51/51/51 50/50/50
f 51/51/51 27/27/27 52/52/52
f 27/27/27 25/25/25 52/52/52
f 25/25/25 18/18/18 52/52/52
f 18/18/18 53/53/53 52/52/52
f 18/18/18 17/17/17 53/53/53
f 17/17/17 54/54/54 53/53/53
f 17/17/17 11/11/11 54/54/54
f 11/11/11 55/55/55 54/54/54
f 11/11/11 12/12/12 55/55/55
f 12/12/12 56/56/56 55/55/55
f 12/12/12 9/9/9 56/56/56
f 9/9/9 57/57/57 56/56/56
f 9/9/9 10/10/10 57/57/57
f 10/10/10 58/58/58 57/57/57
f 57/57/57 58/58/58 59/59/59
f 58/58/58 60/60/60 59/59/59
f 55/55/55 56/56/56 61/61/61
f 56/56/56 62/62/62 61/61/61
f 57/57/57 59/59/59 62/62/62
f 56/56/56 57/57/57 62/62/62
f 55/55/55 61/61/61 63/63/63
f 54/54/54 55/55/55 63/63/63
f 54/54/54 63/63/63 64/64/64
f 53/53/53 54/54/54 64/64/64
f 53/53/53 64/64/64 65/65/65
f 52/52/52 53/53/53 65/65/65
f 52/52/52 65/65/65 66/66/66
f 51/51/51 52/52/52 66/66/66
f 51/51/51 66/66/66 67/67/67
f 50/50/50 51/51/51 67/67/67
f 49/49/49 50/50/50 67/67/67
f 68/68/68 49/49/49 67/67/67
f 49/49/49 68/68/68 69/69/69
f 48/48/48 49/49/49 69/69/69
f 48/48/48 69/69/69 70/70/70
f 47/47/47 48/48/48 70/70/70
f 47/47/47 70/70/70 71/71/71
f 46/46/46 47/47/47 71/71/71
f 72/72/72 46/46/46 71/71/71
f 72/72/72 45/45/45 46/46/46
f 45/45/45 72/72/72 73/73/73
f 44/44/44 45/45/45 73/73/73
f 10/10/10 44/44/44 73/73/73
f 58/58/58 10/10/10 73/73/73
f 73/73/73 72/72/72 74/74/74
f 72/72/72 75/75/75 74/74/74
f 75/75/75 72/72/72 71/71/71
f 73/73/73 74/74/74 60/60/60
f 58/58/58 73/73/73 60/60/60
f 78/78/78 77/77/77 76/76/76
f 79/79/79 78/78/78 76/76/76
f 79/79/79 76/76/76 80/80/80
f 81/81/81 79/79/79 80/80/80
f 81/81/81 80/80/80 82/82/82
f 83/83/83 81/81/81 82/82/82
f 83/83/83 82/82/82 84/84/84
f 85/85/85 83/83/83 84/84/84
f 85/85/85 84/84/84 86/86/86
f 87/87/87 85/85/85 86/86/86
f 87/87/87 86/86/86 88/88/88
f 89/89/89 87/87/87 88/88/88
f 89/89/89 88/88/88 90/90/90
f 91/91/91 89/89/89 90/90/90
f 91/91/91 90/90/90 92/92/92
f 93/93/93 91/91/91 92/92/92
f 94/94/94 93/93/93 92/92/92
f 95/95/95 94/94/94 92/92/92
f 94/94/94 95/95/95 96/96/96
f 97/97/97 94/94/94 96/96/96
f 97/97/97 96/96/96 98/98/98
f 99/99/99 97/97/97 98/98/98
f 99/99/99 98/98/98 100/100/100
f 101/101/101 99/99/99 100/100/100
f 102/102/102 101/101/101 100/100/100
f 103/103/103 102/102/102 100/100/100
f 102/102/102 103/103/103 104/104/104
f 105/105/105 102/102/102 104/104/104
f 105/105/105 104/104/104 77/77/77
f 78/78/78 105/105/105 77/77/77
f 96/96/96 95/95/95 106/106/106
f 98/98/98 96/96/96 106/106/106
f 95/95/95 107/107/107 106/106/106
f 107/107/107 95/95/95 108/108/108
f 95/95/95 92/92/92 108/108/108
f 92/92/92 90/90/90 108/108/108
f 90/90/90 109/109/109 108/108/108
f 109/109/109 90/90/90 110/110/110
f 90/90/90 88/88/88 110/110/110
f 88/88/88 86/86/86 110/110/110
f 86/86/86 111/111/111 110/110/110
f 86/86/86 84/84/84 111/111/111
f 84/84/84 112/112/112 111/111/111
f 84/84/84 82/82/82 112/112/112
f 82/82/82 113/113/113 112/112/112
f 82/82/82 80/80/80 113/113/113
f 80/80/80 114/114/114 113/113/113
f 114/114/114 80/80/80 115/115/115
f 80/80/80 76/76/76 115/115/115
f 76/76/76 77/77/77 115/115/115
f 77/77/77 116/116/116 115/115/115
f 116/116/116 77/77/77 117/117/117
f 77/77/77 104/104/104 117/117/117
f 104/104/104 103/103/103 117/117/117
f 103/103/103 118/118/118 117/117/117
f 118/118/118 103/103/103 119/119/119
f 103/103/103 100/100/100 119/119/119
f 100/100/100 98/98/98 119/119/119
f 98/98/98 120/120/120 119/119/119
f 120/120/120 98/98/98 106/106/106
f 3/3/3 122/122/122 121/121/121
f 5/5/5 3/3/3 121/121/121
f 122/122/122 3/3/3 123/123/123
f 3/3/3 4/4/4 123/123/123
f 123/123/123 4/4/4 124/124/124
f 4/4/4 14/14/14 124/124/124
f 124/124/124 14/14/14 125/125/125
f 14/14/14 16/16/16 125/125/125
f 125/125/125 16/16/16 126/126/126
f 16/16/16 20/20/20 126/126/126
f 20/20/20 21/21/21 126/126/126
f 21/21/21 127/127/127 126/126/126
f 127/127/127 21/21/21 128/128/128
f 21/21/21 24/24/24 128/128/128
f 129/129/129 128/128/128 24/24/24
f 28/28/28 129/129/129 24/24/24
f 129/129/129 28/28/28 130/130/130
f 28/28/28 31/31/31 130/130/130
f 31/31/31 35/35/35 130/130/130
f 35/35/35 131/131/131 130/130/130
f 131/131/131 35/35/35 132/132/132
f 35/35/35 37/37/37 132/132/132
f 133/133/133 132/132/132 37/37/37
f 40/40/40 133/133/133 37/37/37
f 133/133/133 40/40/40 134/134/134
f 40/40/40 43/43/43 134/134/134
f 43/43/43 7/7/7 134/134/134
f 7/7/7 135/135/135 134/134/134
f 135/135/135 7/7/7 121/121/121
f 7/7/7 5/5/5 121/121/121
